<svg xmlns="http://www.w3.org/2000/svg" width="200" height="200" preserveAspectRatio="none" style="display:block" viewBox="550 620 670 650"><defs><linearGradient id="Gradient1" x1="976.8" x2="998.4" y1="805.8" y2="811.3" gradientUnits="userSpaceOnUse"><stop class="stop0" offset="0" stop-color="#b1836a"/><stop class="stop1" offset="1" stop-color="#ab9471"/></linearGradient><linearGradient id="Gradient2" x1="754.5" x2="739" y1="1114.5" y2="1156.7" gradientUnits="userSpaceOnUse"><stop class="stop0" offset="0" stop-color="#caaf8c"/><stop class="stop1" offset="1" stop-color="#fffff9"/></linearGradient><linearGradient id="Gradient3" x1="694" x2="696.9" y1="1132.1" y2="1128" gradientUnits="userSpaceOnUse"><stop class="stop0" offset="0" stop-color="#a7643d"/><stop class="stop1" offset="1" stop-color="#aa7f5b"/></linearGradient><linearGradient id="Gradient4" x1="689.2" x2="669.3" y1="1120.5" y2="1134.1" gradientUnits="userSpaceOnUse"><stop class="stop0" offset="0" stop-color="#a0744d"/><stop class="stop1" offset="1" stop-color="#ae8f7a"/></linearGradient><linearGradient id="Gradient5" x1="668" x2="668" y1="1142" y2="1080" gradientUnits="userSpaceOnUse"><stop class="stop0" offset="0" stop-color="#b69577"/><stop class="stop1" offset="1" stop-color="#bab3a5"/></linearGradient><linearGradient id="Gradient6" x1="617.8" x2="642.2" y1="796.5" y2="838.1" gradientUnits="userSpaceOnUse"><stop class="stop0" offset="0" stop-color="#a88760"/><stop class="stop1" offset="1" stop-color="#dbb99a"/></linearGradient><linearGradient id="Gradient7" x1="615.2" x2="628.4" y1="813.2" y2="831.7" gradientUnits="userSpaceOnUse"><stop class="stop0" offset="0" stop-color="#d0b699"/><stop class="stop1" offset="1" stop-color="#e8e9da"/></linearGradient><linearGradient id="Gradient8" x1="632.6" x2="702.3" y1="815.3" y2="878.7" gradientUnits="userSpaceOnUse"><stop class="stop0" offset="0" stop-color="#d3c0aa"/><stop class="stop1" offset="1" stop-color="#f2f1e5"/></linearGradient><linearGradient id="Gradient9" x1="755.1" x2="929.9" y1="1080.1" y2="1076.7" gradientUnits="userSpaceOnUse"><stop class="stop0" offset="0" stop-color="#ddc9b3"/><stop class="stop1" offset="1" stop-color="#f2f2ec"/></linearGradient><linearGradient id="Gradient10" x1="674" x2="739" y1="653.9" y2="1026.4" gradientUnits="userSpaceOnUse"><stop class="stop0" offset="0" stop-color="#d0bdae"/><stop class="stop1" offset="1" stop-color="#f1edd5"/></linearGradient><linearGradient id="Gradient11" x1="798.1" x2="794.5" y1="1135.3" y2="1215.4" gradientUnits="userSpaceOnUse"><stop class="stop0" offset="0" stop-color="#af7750"/><stop class="stop1" offset="1" stop-color="#caac8d"/></linearGradient><linearGradient id="Gradient12" x1="941.6" x2="931.1" y1="722.2" y2="751.4" gradientUnits="userSpaceOnUse"><stop class="stop0" offset="0" stop-color="#bcaf9d"/><stop class="stop1" offset="1" stop-color="#d9ccc3"/></linearGradient><linearGradient id="Gradient13" x1="931.8" x2="992.7" y1="739.9" y2="680.9" gradientUnits="userSpaceOnUse"><stop class="stop0" offset="0" stop-color="#d3bead"/><stop class="stop1" offset="1" stop-color="#fff6e4"/></linearGradient><linearGradient id="Gradient14" x1="891.8" x2="1014.7" y1="756.6" y2="687.5" gradientUnits="userSpaceOnUse"><stop class="stop0" offset="0" stop-color="#beab9c"/><stop class="stop1" offset="1" stop-color="#e2dccd"/></linearGradient><linearGradient id="Gradient15" x1="740.5" x2="749.4" y1="988.5" y2="979.6" gradientUnits="userSpaceOnUse"><stop class="stop0" offset="0" stop-color="#a6541c"/><stop class="stop1" offset="1" stop-color="#b67c57"/></linearGradient><linearGradient id="Gradient16" x1="837.5" x2="844" y1="1001" y2="1027.4" gradientUnits="userSpaceOnUse"><stop class="stop0" offset="0" stop-color="#b58764"/><stop class="stop1" offset="1" stop-color="#c0ad9a"/></linearGradient><linearGradient id="Gradient17" x1="714.1" x2="738.5" y1="821.6" y2="823.4" gradientUnits="userSpaceOnUse"><stop class="stop0" offset="0" stop-color="#b8a18b"/><stop class="stop1" offset="1" stop-color="#c3b9ae"/></linearGradient><linearGradient id="Gradient18" x1="761.8" x2="796" y1="973.9" y2="939.5" gradientUnits="userSpaceOnUse"><stop class="stop0" offset="0" stop-color="#c2a18c"/><stop class="stop1" offset="1" stop-color="#c9b8a4"/></linearGradient><linearGradient id="Gradient19" x1="720.2" x2="898.5" y1="914.3" y2="998" gradientUnits="userSpaceOnUse"><stop class="stop0" offset="0" stop-color="#d4cec1"/><stop class="stop1" offset="1" stop-color="#f6f1e8"/></linearGradient><linearGradient id="Gradient20" x1="861.6" x2="639.7" y1="1024.8" y2="826.4" gradientUnits="userSpaceOnUse"><stop class="stop0" offset="0" stop-color="#bd9475"/><stop class="stop1" offset="1" stop-color="#cdc2b2"/></linearGradient></defs><path fill="url(#Gradient20)" d="M825.2 628.1a288 288 0 0 1 61.2 3.8 317 317 0 0 1 200 134.3 175 175 0 0 1 23 42.2l-1-.1c-2.3 6.4-4.8 3.9-5.4 12.7l-1 1.2c-6.2 1.4-8.1.9-14.3.1-2 1.6-1.2.6-1.8 3.3l-5.1 3.9c-1.2-5.8-1.6-5.2-6.2-7.8v1.1c-2.6-.3-7-1.4-9.7-2l-2.3 2.2c3 2 3.5 1.7 4.8 5.6-2.7 5-4 6-1.5 11.1l-1.3 2c-1.7 2.4-1.6 2.2-4.2 3.6-3.6-3-4.3-3.8-8.4-5.4l-3.6 1.2c-.7 4-1.4 8.7-2.2 12.5-.1 3.1 0 3.3 3 5.3-2.3 2.2-2.2 2-5.2 3-8-1.5-7.8-7.8-13.7-13.4l-3.1 2.8-.7-1.1c.4-8.2-1.7-14.4 2.3-19.4 2.2-3.6 3.1-4.8 4.5-8.8-2.8-2.2-9.6-.3-11.6-.6-1.3-.2-1.1-2.5-6-3-2.3 1.7-2.7 5.4-3.5 8.3-3.6-1.4-3.7-1.8-5.8-5l-1-1.6c-3.8-2-5.4-1.1-10-.8 5.6-4.5 5.4-7.7 6.8-14.7h-2.5c-6.2-.4-6.7-1.7-11-6.4-4.8-1.2-5.7-1.5-10.6-1l-1.7 4.2c3.5 4.3 3.3 4.2 4.7 9.5a51 51 0 0 1-22.8-18.6l-3 3c-6 9.6-16.1 22.2-27.6 10-3.4-3.4-4.1-4.8-6.6-9-6-9.4-5.7-12.7-13.7-22.2-5-2.9-6.1-3.5-11.6-5-13.3-1.1-21.4.9-27.1-12.3-2-6.3-5-13.3-7.5-19.5-4.4-6.2-6.2-9.7-13.3-12.8-4.1.9-3.9.8-8-.4-4.2 2-4.6 2-7.6 5.5-1 10-2.2 12.3-10.1 18.8l-1 .8c-2.9-1.2-7.4-3.3-10.3-3.7-5.6-3.2-6.7-3.8-11-9l-.7-.9c-3.4-1.3-2.2-1.6-4.8-.7-13.3 4.8-27.3 5-41 7-2 .3-3.8 2.4-5.1 3.9-35.7 46.4-30.5 101.4-16.4 155.3 7 20.2 29.7 76.6 49.5 84.6 21.7 8.9 44.2 9.3 66.5 3.5 5.7.1 6.5 2.1 13 0 11.5-3.7 17.6-13 22.6-23.4.8-7.5 9.7-18.5 15.8-23 1.4.8 2.7 1.6 4.3 1.5 3.8-.1 5.3 3 7.9 4.3l-.6 4.6-1.2 1 .2 1.7c.4 3.5 1 17.5.5 20.5l.3 3.6c.8 3 .6 3.4 2.9 5.3-1 3-1.8 5.2-3 8l-5.8 6.6-2.3 12.3c-4.8 5-5.6 1.8-11.7 0-2.3 3.8-2.4 2.7-2.4 6.5 1.9 2.2 1.5 2 3.7 3.6l-1 3.2.9.6c10.9 7.5 9.4 12 24 8.5l5.4-1.9c3.4-1.7 5.4-3.3 8.5-5.6 3.7 4.6 1 4.8 4.2 7.7 6.5 2.6 5.8 6.5 7.5 13 0 3.7 0 5.8.7 9.4l-.5 1-3.6 1c-1 2.2-1 1.4-1 3.5 2.3 4 2 5 5.2 6.4l3-.5 5.3-.6c-2.3 5-2.5 6.1-6.8 9.1l-1 5 2.9 3.4 1.6-1c4.7 5.2 4.8-.8 7 4.4l-.3 3.7-.8.2c-5.7 18-18.4 25.6-14.6 48.5l3.1 6.6-1 2.2c-2.3 4.2-4.3 5.4-8 8.4 4.5-.4 31.7-3 34.2-4 4.1-4.5 9.8-11.2 14.7-14.4l4.3-3.3 4.5-5c3.9-4 7.4-6.5 11.8-9.8l2.1-1.6 1.5-.8c1.4-2.3 4.2-5.3 6.1-7.4-7.4-10.5-2.7-11-5.8-18.7.6-.3 5.5-1 6.6-1.2.5 6.9 1 10.6 2.3 17.4 25.3-11.5 37 18.2 54.3-1.8 2.6-4 4.4-8.2 8.6-10 5.4 1.2 2.5 1.5 7.4 4.5 2-2.8 4.3-7 7.3-8 2.6 4.4-1.6 16.9-2.4 22.2-.6 4.2-5.7 8.2-8.9 10.8l-1.4 1.2c-1.8 2.4-4.3 5.6-5.7 8.2 0 1.8 0 5 .4 6.7-4.5.2-3.3-.4-6.7 1.6l2 5c-1.1 2.6-.3 1.5-2.9 2.9.6 3.4-.5 7.6-1.6 10.9l-3 2.3c-1.2 4-1.6 5.1-2 9.3l-2.4 1.7c-3 3.3-4.2 4.9-7.7 7.6a141 141 0 0 0 4.4 26.5c1 3.9 2.7 6.7.4 10.3l-7.5 2.1c-2.6-1-6-2-8.8-2.8l-8-1.5-1.7-.4c-36.5 1.3-50.8 10-84.9 23-6.6 2.5-22.4 8.7-29 10-6.7-8.5-20.7-5.7-33.8-9.4q-2.6-.3-5.1-1.2c-3.7-1-4.7-1.3-8-3.1l.8-1.1 5.8-1.3c-8.8-.6-13.3 2.8-20.6 3.5l-9.6-1c-.1 1.6 0 2.5-.6 4l1.8 1.2c4.9.6 10.6 1.5 15.4 1.9 4.9 2.5 12.2 3 17.7 3.7-5.6 6.6-10.2 3.9-18.6 6.2-3.3.9-5.6 2.3-8.7 3 6.8 1.7 14 5.2 19.9 5.2-2.5.7-13.2 1.2-16.7 1.7-36.5 5-68-10.3-101-25.4-3.5-3.8-26.3-13.5-35-20.3-15-8-29.5-19.8-43-29.8-51.6-38.6-68.5-68.8-91.7-125.8-9.4-14.7-12.5-30.8-17-47.3-39.4-144.8 41.8-344.6 197-381 18.1-6.5 41.7-7.7 61-7.6"/><path fill="#c3ae99" d="M669.4 711.3q6.6-3.2 13.3-6c1.2 2.9.8 2.9 2.9 4.9 2.5-.4 4-1 6.3 0-2.5 4.4-3.3 4.7-7.3 8l-5.9 5.8-10 8.9c.3-3 .3-1.9-1-5l2-3-.6-1.7-3.6-1.2c.1-2 .5-1.5 2.5-3.8-2.6.1-2.8.4-5-.6.6-2.7 3.7-4.3 6.4-6.3"/><path fill="#c1956e" d="M669.4 711.3q6.6-3.2 13.3-6c1.2 2.9.8 2.9 2.9 4.9-4.7 3.3-11.3 3.9-17.6 8-2.6.1-2.8.4-5-.6.6-2.7 3.7-4.3 6.4-6.3"/><path fill="#e8e3d9" d="M705.3 1079.4a252 252 0 0 1-50.5-92.6c-24.1-83.4 1.5-201.6 85.3-242 1.1-.5 1.3 0 2.4.8l.6-.6 5.2.8c-35.7 46.4-30.5 101.4-16.4 155.3 7 20.2 29.7 76.6 49.5 84.6 21.7 8.9 44.2 9.3 66.5 3.5 5.7 0 6.5 2.1 13 0 11.5-3.7 17.6-13 22.6-23.4.8-7.5 9.7-18.5 15.8-23 1.4.8 2.7 1.6 4.3 1.5 3.8-.1 5.3 3 7.9 4.3l-.6 4.6-1.2 1 .2 1.7c.4 3.5 1 17.5.5 20.5l.3 3.6c.8 3 .6 3.4 2.9 5.3-1 3-1.8 5.2-3 8l-5.8 6.6-2.3 12.3c-4.8 5-5.6 1.8-11.7 0-2.3 3.8-2.4 2.7-2.4 6.5 1.9 2.2 1.5 2 3.7 3.6l-1 3.2c-3.7-1.1-3.2-1.6-6.2-.7l-2.2 3.3-1.2-3.1c-16.8 17.9-48.4 26.4-71.8 30.2l-1.1 1.6 3 .7-2.6 2.6.7 1.3c6.5 1 10-.3 15.3.2l-4.9 1.2.1 1 .9.5-.2-1.4.7-.2 1 2h1.1l1.6.1-11.3 2a250 250 0 0 1-52.9 27.1c-14.6-1-30.4-1-44.5-2.5a57 57 0 0 1-11.3-12"/><path fill="url(#Gradient19)" d="M728.6 904.6c1.5-3 .4-1.9 3.3-3.5 7 20.2 29.7 76.6 49.5 84.6 21.7 8.9 44.2 9.3 66.5 3.5 5.7 0 6.5 2.1 13 0 11.5-3.7 17.6-13 22.6-23.4.8-7.5 9.7-18.5 15.8-23 1.4.8 2.7 1.6 4.3 1.5 3.8-.1 5.3 3 7.9 4.3l-.6 4.6-1.2 1 .2 1.7c.4 3.5 1 17.5.5 20.5l.3 3.6-.5.1c-10.9 6-17.6 15.6-27.3 22-14.8 9.6-33.9 10-50.8 9.7-26.7.6-45.3-2.6-66-20.7-1.1-1-.8-.7-2.6-1.6 0-1.7-.3-2.6-1.4-4-16.5-21.9-35.4-44.3-37.5-72.8-.3-3-1.2-7 .7-9.3l2.6.6z"/><path fill="url(#Gradient18)" d="M728.6 904.6c1.5-3 .4-1.9 3.3-3.5 7 20.2 29.7 76.6 49.5 84.6 21.7 8.9 44.2 9.3 66.5 3.5l1.4 3.4c-18.5 4.3-10.1 8.4-34 5.4-34.2-4.5-47.6-10.4-63.6-42.7-8-16.3-16.3-32.6-23.1-50.7"/><path fill="#c6bbaf" d="M883.5 965.8c4.2 12.7-16 26.4-26 30.6l-8.2-3.8-1.4-3.4c5.7 0 6.5 2.1 13 0 11.5-3.7 17.6-13 22.6-23.4M743 745l5.3.8c-35.7 46.4-30.5 101.4-16.4 155.3-2.9 1.6-1.8.5-3.3 3.5l-.7-.6-2.6-.6c-1.9 2.2-1 6.3-.7 9.3 2.1 28.5 21 50.9 37.5 72.7a6 6 0 0 1 1.4 4.1l-1.3 1 .6 2.5-.7.6a169 169 0 0 1-46.8-75.6c-10.4-32.1-12-101.2 4-130.3 2.8-12.2 15.3-32.3 23.2-42.1z"/><path fill="url(#Gradient17)" d="m743 745 5.3.8c-35.7 46.4-30.5 101.4-16.4 155.3-2.9 1.6-1.8.5-3.3 3.5l-.7-.6-.4-3.2-1.4-.7.7.3c-8 .2-1.8-5.3-6.1-8.5v4.5h-1.5c-4-3.6-3.8-10.9-4.9-16-6.7-31.3 1-61.7 5-92.7 2.8-12.2 15.3-32.3 23.2-42.1z"/><path fill="#c3ae99" d="M788.5 1057.8q10.5-1.5 21.2-2.6l-1.1 1.6 3 .7-2.6 2.6.7 1.3c6.5 1 10-.3 15.3.2l-4.9 1.2.1 1 .9.5-.2-1.4.7-.2 1 2h1.1l1.6.1-11.3 2a250 250 0 0 1-52.9 27.1c-14.6-1-30.4-1-44.5-2.5a57 57 0 0 1-11.3-12c3.9-.7 12.8.6 17.7 1.1 18 2.1 36.8 2.9 53.1-6.5 2.5-1.5 2.9-3.2 3.2-5.3-3-4.1-11-4.5-16-5.3 3.3.5 6 1.4 9.1.2-.9-3-1-1.6 0-4.2 4.6-1.8 10.9-1.5 16-1.6"/><path fill="#bf9e80" d="M788.5 1057.8q10.5-1.5 21.2-2.6l-1.1 1.6 3 .7-2.6 2.6.7 1.3c6.5 1 10-.3 15.3.2l-4.9 1.2.1 1 .9.5-.2-1.4.7-.2 1 2h1.1l1.6.1-11.3 2c-3.8-3.7-27.4-4.7-33-4.7 2.3-1 4-1.9 6.2-3.4z"/><path fill="url(#Gradient16)" d="m900.6 1003.1 4.2-3.2-2.3 12.3c-4.8 5-5.6 1.8-11.7 0-2.3 3.8-2.4 2.7-2.4 6.5 1.9 2.2 1.5 2 3.7 3.6l-1 3.2c-3.7-1.1-3.2-1.6-6.2-.7l-2.2 3.3-1.2-3.1c1.2-2 2.7-3.8 2-6.1-7.2 1.8-13.2 5-20.9 6.2-27.5 4.1-60 2.5-85.5-8.7l3.8-2c8.6 3.6 31.3 8.2 40.6 8 34.2-.7 51.2.6 76.3-22.2z"/><path fill="#d0c2ae" d="m900.6 1003.1 4.2-3.2-2.3 12.3c-4.8 5-5.6 1.8-11.7 0a40 40 0 0 1 9.8-9"/><path fill="url(#Gradient15)" d="M718.4 943c15 29.2 31.6 56.5 62.5 71.4l-3.8 2c-31-16.4-48.8-30.6-62-65a43 43 0 0 1 3.3-8.4"/><path fill="#bf9e80" d="M703.1 903c4.1 9.3 8.7 23.4 12.2 33.3l-1.2 1.2.4 1.2-1.8 1.3-1.3-3-1.7-.7c-3.8-5.8-6.6-25.7-6.6-33.2"/><path fill="#cba784" d="m910.2 980.1.5-.1c.8 3 .6 3.4 2.9 5.3-1 3-1.8 5.2-3 8l-5.8 6.6-4.2 3.2-2.8-2.9c8-8.3 9.3-9.2 12.4-20"/><path fill="#bb8b64" d="m715.3 936.3 3.1 6.7a43 43 0 0 0-3.2 8.3c-3-6-3.9-8.6-5.5-15l1.7.7 1.3 3 1.8-1.3-.4-1.2z"/><path fill="#c6bbaf" d="M825.2 628.1a288 288 0 0 1 61.2 3.8 317 317 0 0 1 200 134.3 175 175 0 0 1 23 42.2l-1-.1c-2.3 6.4-4.8 3.9-5.4 12.7l-1 1.2c-6.2 1.4-8.1.9-14.3.1-2 1.6-1.2.6-1.8 3.3l-5.1 3.9c-1.2-5.8-1.6-5.2-6.2-7.8v1.1c-2.6-.3-7-1.4-9.7-2l-2.3 2.2c3 2 3.5 1.7 4.8 5.6-2.7 5-4 6-1.5 11.1l-1.3 2c-1.7 2.4-1.6 2.2-4.2 3.6-3.6-3-4.3-3.8-8.4-5.4l-3.6 1.2c-.7 4-1.4 8.7-2.2 12.5-.1 3.1 0 3.3 3 5.3-2.3 2.2-2.2 2-5.2 3-8-1.5-7.8-7.8-13.7-13.4l-3.1 2.8-.7-1.1c.4-8.2-1.7-14.4 2.3-19.4 2.2-3.6 3.1-4.8 4.5-8.8-2.8-2.2-9.6-.3-11.6-.6-1.3-.2-1.1-2.5-6-3-2.3 1.7-2.7 5.4-3.5 8.3-3.6-1.4-3.7-1.8-5.8-5l-1-1.6c-3.8-2-5.4-1.1-10-.8 5.6-4.5 5.4-7.7 6.8-14.7h-2.5c-6.2-.4-6.7-1.7-11-6.4-4.8-1.2-5.7-1.5-10.6-1l-1.7 4.2c3.5 4.3 3.3 4.2 4.7 9.5a51 51 0 0 1-22.8-18.6l-3 3c-6 9.6-16.1 22.2-27.6 10-3.4-3.4-4.1-4.8-6.6-9-6-9.4-5.7-12.7-13.7-22.2-5-2.9-6.1-3.5-11.6-5-13.3-1.1-21.4.9-27.1-12.3-2-6.3-5-13.3-7.5-19.5 3.1-1.6 3.4-1.9 6.9-2.8.6-2.6.5-5 .6-7.7l4.4-5.3c-1.3-1.5-1.5-1.5-3.1-2.7-2.6-2.6-2.9-2.4-6.4-3.2 4.8-1.3 5.6-1.3 7.8-5.3l-1.9-.9c2.8-.7 3-.5 4.9-2.5 0-2.5-.2-4-.5-6.5-14.8-13.3-34.2-15.7-52.2-23.7-4.6-2-9-2.7-13.2-5.8-.8-2.8.5-4.9 1.6-7.7h.7l1.1-3c6.7-.8 9.2-1.8 15.9.2 9 2 20.3 6.2 27.5 7.5v-.4a157 157 0 0 0-33.3-20.1c-18.5-5-25.5-7-45.3-6.2-5.9.2-18.1 1-23.6.1 2-2.3 7.3-2 11.3-5.7 18-6.4 41.6-7.6 60.8-7.5"/><path fill="#c3ae99" d="M825.2 628.1a288 288 0 0 1 61.2 3.8 317 317 0 0 1 200 134.3 175 175 0 0 1 23 42.2l-1-.1c-2.3 6.4-4.8 3.9-5.4 12.7l-1 1.2c-6.2 1.4-8.1.9-14.3.1-2 1.6-1.2.6-1.8 3.3l-5.1 3.9c-1.2-5.8-1.6-5.2-6.2-7.8v1.1c-2.6-.3-7-1.4-9.7-2-1-2.5-.6-1.7-.4-4.7-1.5-1-2.2-1-4-1.6 3.8-3.7 3.6-3 4-7 .3-4.8 1.6-6 5-8.8l.7-.6c-2.6-2-16.1-27.2-20-32.3-9-11.6-19.2-20-29.5-30.3l-1.8-.5c-4.5-1.3-10.6-4.8-14.4-4.6-4 4-1.2 4.7-.3 9.2-3.5-4-3.8-4.5-5.1-9.5-1.5 2-2.8 3.5-3.6 6-4.2 2.8-5.4 2.6-10.8 2.2-11.7-12.4-22-17.7-32.7-32.1l-3.8-3.6-1.5-.9c-13.5-18.3-13.3-12.5-30.2-21.8l-.8-.4-10.8-3-.9-1.7c-19.7-1.3-32 2.2-48.7-6.9v-.4a157 157 0 0 0-33.3-20.1c-18.5-5-25.5-7-45.3-6.2-5.9.2-18.1 1-23.6.1 2-2.3 7.3-2 11.3-5.7 18-6.4 41.6-7.6 60.8-7.5"/><path fill="url(#Gradient14)" d="M764.4 635.6c18-6.4 41.6-7.6 60.8-7.5-2.7 1.3-3.7 1.5-5.4 3.9v1.5c3 1.6 6.5 2.8 7.9 5.2-1.5 1.7-1.6 1.6-3.6 2.8 5.8.6 4.8-.8 10 2.3l2.3-.3c11.4.7 31.8 11.5 43.5 15 15 4.5 29.6 5.7 44.4 11.8 6.5 1.4 16 5.9 22.5 8.8a311 311 0 0 1 97.3 67.5c7.8 8.2 18.7 26 25.6 35.7 2.5 3.5 4.3 9.2 7.4 10.8-3.7 1-2.1 0-4.6 3.3l-2.3 1.7c-2.6-2-16.1-27.2-20-32.3-9-11.6-19.2-20-29.5-30.3l-1.8-.5c-4.5-1.3-10.6-4.8-14.4-4.6-4 4-1.2 4.7-.4 9.2-3.4-4-3.8-4.5-5-9.5-1.5 2-2.8 3.5-3.6 6-4.2 2.8-5.4 2.6-10.8 2.2-11.7-12.4-22-17.7-32.7-32.1l-3.8-3.6-1.5-.9c-13.5-18.3-13.3-12.5-30.2-21.8l-.8-.4-10.8-3-.9-1.7c-19.7-1.3-32 2.2-48.7-6.9v-.4a157 157 0 0 0-33.3-20.1c-18.5-5-25.5-7-45.3-6.2-5.9.2-18.1 1-23.6.1 2-2.3 7.3-2 11.3-5.7"/><path fill="#ccbba7" d="M915.7 679.5c7.6 1.2 17.6 7.1 22 7l2.6-2.6c18.3 8.6 70.9 36.8 80.4 51.6l-1.8-.5c-4.5-1.3-10.6-4.8-14.4-4.6-4 4-1.2 4.7-.3 9.2-3.5-4-3.9-4.5-5.2-9.5-1.4 2-2.7 3.5-3.5 6-4.2 2.8-5.4 2.6-10.8 2.2-11.7-12.4-22-17.7-32.7-32.1l-3.8-3.6-1.5-.9c-13.5-18.3-13.3-12.5-30.2-21.8z"/><path fill="#e8e3d9" d="M952 706.2c4.7.7 4.6 1 8.7 4.4 9.2 7.9 28.8 15.7 34.8 25.5-4.2 2.8-5.4 2.6-10.8 2.2-11.7-12.4-22-17.7-32.7-32.1"/><path fill="#dcb" d="M948.2 702.6c9.1 1.3 48.2 19.4 50.8 27.5-1.4 2-2.7 3.5-3.5 6-6-9.8-25.6-17.6-34.8-25.5-4-3.4-4-3.7-8.7-4.4z"/><path fill="#c3ae99" d="M764.4 635.6c18-6.4 41.6-7.6 60.8-7.5-2.7 1.3-3.7 1.5-5.4 3.9v1.5c3 1.6 6.5 2.8 7.9 5.2-1.5 1.7-1.6 1.6-3.6 2.8 5.8.6 4.8-.8 10 2.3l2.3-.3c11.4.7 31.8 11.5 43.5 15 15 4.5 29.6 5.7 44.4 11.8-5.3.3-13.5-3-20-4.2l-1 1.5 6.7 4.8c-20.7 4.2-74.8-30.7-88-25-18.5-5-25.5-7-45.3-6.2-5.9.2-18.1 1-23.6.1 2-2.3 7.3-2 11.3-5.7"/><path fill="url(#Gradient13)" d="M841.1 638.9a560 560 0 0 1 119.2 31.3c35.4 15 80.9 55.6 104.4 85.2 4.8 6.3 19.3 25.8 18.6 32.7-1.7 3-3.2 3.4-6.2 5-3.1-1.6-5-7.3-7.4-10.8-6.9-9.7-17.8-27.5-25.6-35.7a311 311 0 0 0-97.3-67.5c-6.5-3-16-7.4-22.5-8.8-14.8-6.1-29.4-7.3-44.4-11.8-11.7-3.5-32-14.3-43.5-15-3.6-1.9-3.1-.7-4-3.3 2.4-1.4 5.8-1.2 8.7-1.3"/><path fill="#cba784" d="M825.2 628.1a288 288 0 0 1 61.2 3.8c-3.7 0-10.2-.5-13.4.7l-.3.9 7.4 1.4c-2.8 1.1-35.3.2-40-.2l-4.5 1.3 5.5 2.9c-3 .1-6.3-.1-8.7 1.3.9 2.6.4 1.4 4 3.3l-2.3.3c-5.2-3-4.2-1.7-10-2.3 2-1.2 2-1.1 3.6-2.8-1.4-2.4-4.9-3.6-7.8-5.2l-.1-1.5c1.7-2.4 2.7-2.6 5.4-3.9"/><path fill="#dcb" d="M835.6 636c-4-.2-3.4.4-5.6-1.7l.4-2c3.3-2 1.5-1.5 5.6-1.7 3.8 1.9 2.5.5 4.2 4.1z"/><path fill="#bf9e80" d="M1064.5 816.1c4-.6 5.8-2.9 10.5-4.3l1.4 1c9 9.4 8.6 4.5 18.4 7l2.3-1 1 2.2c1.5.5 2.3.9 4 1.2-6.3 1.4-8.2.9-14.4.1-2 1.6-1.2.6-1.8 3.3l-5.1 3.9c-1.2-5.8-1.6-5.2-6.2-7.8v1.1c-2.6-.3-7-1.4-9.7-2-1-2.5-.6-1.7-.4-4.7"/><path fill="#b09278" d="M1072.5 796.4c5.8 4.3 1.5 3.8 5.4 10.1l-1 2.4 7.1-.3c-4.2 1-4.7 1-7.6 4.2l-1.4-1c-4.7 1.4-6.5 3.7-10.5 4.3-1.5-1-2.2-1-4-1.6 3.8-3.7 3.6-3 4-7 .3-4.8 1.6-6 5-8.8l.7-.6z"/><path fill="#cba784" d="M1064.4 807.4c4 .6 8.7 1.5 12.6 1.5l7-.3c-4.2 1-4.7 1-7.6 4.2l-1.4-1c-4.7 1.4-6.5 3.7-10.5 4.3-1.5-1-2.2-1-4-1.6 3.8-3.7 3.6-3 4-7"/><path fill="#9d7559" d="M1097 818.8c-2-2.7-2.2-3-3.7-6.3a128 128 0 0 1 9.8-9.7c3.6 1.7 2.7 1.6 5.2 5.5-2.3 6.4-4.7 3.9-5.3 12.7l-1 1.2c-1.6-.3-2.4-.7-4-1.2z"/><path fill="#b8a388" d="M1077.9 806.5c3.6-2.9 3.6-4.7 4.8-9.2l1.4-.4c4.2 3.5 5 7.3 1.3 11.6l-1.4.1-7 .3z"/><path fill="#c3ae99" d="M812 660.2c6.6-.8 9.1-1.8 15.8.2 9 2 20.3 6.2 27.5 7.5 16.7 9 29 5.6 48.7 6.9l.9 1.7 10.8 3 .8.4c16.9 9.3 16.7 3.5 30.2 21.8l1.5.9 3.8 3.6c10.8 14.4 21 19.7 32.7 32.1 4.5 5.4 19.8 22.6 21 28.6-1.7 1.1-.8.8-2.7 1l-2 2-1.4 3.1c-6.4-2.8-18.6-7.8-23.9-12-11-8-20.2-18.7-30.8-27.4a162 162 0 0 0-66.5-34.3c-2.3 1-2 1.1-4.5 1-14.8-13.2-34.2-15.6-52.2-23.6-4.6-2-9-2.7-13.2-5.8-.8-2.8.5-4.9 1.6-7.7h.7z"/><path fill="#c6bbaf" d="M975.7 761c7.4-3.6 3.7-9.8 8.1-13 8.6 2.8 9.4 15.1 16.1 18.1l3 1.9-1.8 1.9-1.5 3.1c-6.4-2.8-18.6-7.8-23.9-12"/><path fill="#bf9e80" d="m946.7 701.7-4 .8c-4-3.5-10.9-8.9-15-11.3-10.5-6.1-21-9-32-13l.2-1.1c2.6-1.4 5.9-.8 9-.6l10.8 3 .8.4c16.9 9.3 16.7 3.5 30.2 21.8M812 660.2c6.6-.8 9.1-1.8 15.8.2-1.1 3.2-1 3.6-3.4 6-4.3 1.5-11 .8-13.6-3.2z"/><path fill="#c6bbaf" d="M929.4 709.8c7.2.8 27.2 16 28.5 24.5-6.7-.7-16.5-9.8-22.2-13.6-5.5-3.7-5.3-4.8-6.3-11"/><path fill="#c3ae99" d="M1006.4 798c3.5 2.4 10.2 7.7 13.5 8.7 4.6-.3 6.2-1.7 10-4.2 1.5 2.5 2 3 3 5.9l.8-1.7c2.8 1.2 2.4 1.9 4.3 5.2.7-2 1-2.3 2-4 4.1-.1 11.6-1 14.4.8l.7 2 .2 3.7h5.2c1.8.7 2.5.7 4 1.7-.2 3-.5 2.2.4 4.8l-2.3 2.1c3 2 3.5 1.7 4.8 5.6-2.7 5-4 6-1.5 11.1l-1.3 2c-1.7 2.4-1.6 2.2-4.2 3.6-3.6-3-4.3-3.8-8.4-5.4l-3.6 1.2c-.7 4-1.4 8.7-2.2 12.5-.1 3.1 0 3.3 3 5.3-2.3 2.2-2.2 2-5.2 3-8-1.5-7.8-7.8-13.7-13.4l-3.1 2.8-.7-1.1c.4-8.2-1.7-14.4 2.3-19.4 2.2-3.6 3.1-4.8 4.5-8.8-2.8-2.2-9.6-.3-11.6-.6-1.3-.2-1.1-2.5-6-3-2.3 1.7-2.7 5.4-3.5 8.3-3.6-1.4-3.7-1.8-5.8-5l-1-1.6c-3.8-2-5.4-1.1-10-.8 5.6-4.5 5.4-7.7 6.8-14.7 3.4-2.2 2.4-1.7 4.2-6.5"/><path fill="#c6bbaf" d="M1049.2 859c-2.3 2.1-2.2 2-5.2 3-8-1.6-7.8-7.9-13.7-13.5l-3.1 2.8-.7-1.1c.4-8.2-1.7-14.4 2.3-19.4 2.4 3.3 1.9 3.7 6.4 3.6l1.9-2c4.4.7 8.9 5.2 11.3 8.7-.7 4-1.3 8.7-2.2 12.5-.1 3.1 0 3.3 3 5.3"/><path fill="#fff" d="m1035.2 834.4 1.9-2c4.4.7 8.9 5.2 11.3 8.7-.7 4-1.4 8.7-2.2 12.5l-13.4-6.8c1.3-4.9 2.1-7.3 2.4-12.4"/><path fill="#b8a388" d="M1055.3 814.4h5.2c1.8.7 2.5.7 4 1.7-.2 3-.5 2.2.4 4.8l-2.3 2.1c3 2 3.5 1.7 4.8 5.6-2.7 5-4 6-1.5 11.1l-1.3 2c-1.7 2.4-1.6 2.2-4.2 3.6-3.6-3-4.3-3.8-8.4-5.4l-.3-.9-2.1.5c-3.2-5.6 6.2-13.6 5.2-19.3-.4-2.5 0-3.4.5-5.8"/><path fill="#dfd6cb" d="M1062.6 823c3 2 3.5 1.7 4.8 5.6-2.7 5-4 6-1.5 11.1l-1.3 2c-6.2-7.4-8.3-10.6-2-18.7"/><path fill="#cba784" d="M1029.9 802.5c1.5 2.5 2 3 3 5.9-4.7 4.2-13.2 6.8-18.3 1.8l.1-1.9c2.6-2.3 1-1.5 5.2-1.6 4.6-.3 6.2-1.7 10-4.2"/><path fill="#bf9e80" d="M1040 807.8c4.1 0 11.6-1 14.4.9l.7 2c-1 3-1 3.5-3.4 5.5-4.5.5-9.3-2.6-13.7-4.3.7-2 1-2.3 2-4"/><path fill="url(#Gradient12)" d="M873.9 700.4c2.5 0 2.2 0 4.5-1.1a162 162 0 0 1 66.5 34.3c10.6 8.7 19.8 19.4 30.8 27.3 5.3 4.3 17.5 9.3 24 12.1.4 1 .3 1.6.5 2.8l-1.7.7c-30.9-5.3-54.5-38.9-83.8-50.8l-3 1.4c1 4.5 1.8 5.3-2.4 7.4-5.1.2-9.9-2-14.9-3.7l-.7-.3-3.4-4c-1.2-2.6-2.2-4.1-3.6-6.6-4.7 1.2-5.3.8-10.2-.1l-3.4 1.7c-1.3-1.5-1.5-1.5-3.1-2.7-2.6-2.6-2.9-2.4-6.4-3.2 4.8-1.3 5.6-1.3 7.8-5.3l-1.9-.9c2.8-.7 3-.5 4.9-2.5 0-2.5-.2-4-.5-6.5"/><path fill="#c3ae99" d="M871.4 710.3c6.2.5 8.4.7 12.3 5.5l3 4.1c-4.7 1.2-5.3.8-10.2-.1l-3.4 1.7c-1.3-1.5-1.5-1.5-3.1-2.7-2.6-2.6-2.9-2.4-6.4-3.2 4.8-1.3 5.6-1.3 7.8-5.3"/><path fill="#b77447" d="M886.7 719.9c1.4 2.5 2.4 4 3.6 6.6l3.4 4 .7.3c7 5.6 6.7 8.9 11.3 15.3l-4.8 1.8c1.1 2.5.8 3 2.5 4.1l-1.8 4c2.3 2.4 3.7 3.4 4 6.8l-1 3.2c-5-.4-5.7-.4-10-2.9l1.2 6c-13.3-1.1-21.4.9-27.1-12.3-2-6.3-5-13.3-7.5-19.5 3.1-1.6 3.4-1.9 6.9-2.8.6-2.6.5-5 .6-7.7l4.4-5.3 3.4-1.7c4.9 1 5.5 1.3 10.2.1"/><path fill="#c3ae99" d="M886.7 719.9c1.4 2.5 2.4 4 3.6 6.6l3.4 4 .7.3c7 5.6 6.7 8.9 11.3 15.3l-4.8 1.8c1.1 2.5.8 3 2.5 4.1l-1.8 4a169 169 0 0 1-19.5-10.8c-4.6-3.8-9.2-6.5-14-10.7.6-2.6.5-5 .6-7.7l4.4-5.3 3.4-1.7c4.9 1 5.5 1.3 10.2.1"/><path fill="#ccbba7" d="M886.7 719.9c1.4 2.5 2.4 4 3.6 6.6l3.4 4c-2.2 3.4-1.3 3.2-4.2 4l-1.4-.3-9-8.1c-1.5 1-2.7 1.7-3.9 3-.3-.2-5-1.6-6.5-2.3l4.4-5.3 3.4-1.7c4.9 1 5.5 1.3 10.2.1"/><path fill="#b8a388" d="M879 726c.4-1.3 0-.4 1.5-2.1 3.5-.4 6.4 1.2 9.8 2.6l3.4 4c-2.2 3.4-1.3 3.2-4.2 4l-1.4-.3z"/><path fill="#ccbba7" d="m893.7 730.5.7.3c7 5.6 6.7 8.9 11.3 15.3l-4.8 1.8h-.7c-1.2-4.8-5.4-9-9.2-11.8l-2.8-1-.1-1 1.4.4c2.9-.8 2-.6 4.2-4"/><path fill="#eee8da" d="m900.2 747.9-2.6.6c-4.4-2.9-8.6-6.7-6.6-12.4 3.8 2.8 8 7 9.2 11.8"/><path fill="#d0c2ae" d="M875.2 729.2c1.2-1.4 2.4-2 3.9-3.1l9 8 .1 1c-5.2 1.3-9.2-2.9-13-6"/><path fill="#ae6435" d="M861.2 737.3c3.1-1.6 3.4-1.9 6.9-2.8 4.8 4.2 9.4 7 14 10.7-3.2 5.7-.9 7.4-2.9 11.9l-10.5-.3c-2-6.3-5-13.3-7.5-19.5"/><path fill="#bf9e80" d="m868.7 756.8 10.5.3c4.6 2.3 13.5 4.8 15.5 6l1 6c-13.2-1.1-21.3.9-27-12.3m71.6 19.2c6.3 3.7 8 5 15 7l1.3.5c3.4.2 7.3-2 10.6-3.4 3.7 1.2 2.7 0 4.1 2.8l3.4 5.1c1 2.9 2.2 6.5 3.4 9.2l-1.7 4.2c3.5 4.3 3.3 4.2 4.7 9.5a51 51 0 0 1-22.8-18.6l-3 3c-6 9.6-16.1 22.2-27.6 10 1.6-1.9 1.5-1.8 2-4.2l-2.8-8.6 6.4.7-.7-4.6c.6-12.2 2.6-2.2 7.7-12.6"/><path fill="#fff" d="m927 792.5 6.3.7c2.7 1.8 4.2 2.6 7.7 2.6l14.3-.5c-6 9.6-16.1 22.2-27.6 10 1.6-1.9 1.5-1.8 2-4.2z"/><path fill="#aa9d8a" d="m941 795.8 14.3-.5c-6 9.6-16.1 22.2-27.6 10 1.6-1.9 1.5-1.8 2-4.2 4 5.5 15.6 4.8 17.2-2-2-3-1.5-2-6-3.3"/><path fill="#c6bbaf" d="M965.6 790.7q-.4-1.8-.5-3.8c2.2-3 2.3-2.3 6.2-4l3.4 5.1c1 2.9 2.2 6.5 3.4 9.2l-1.7 4.2c3.5 4.3 3.3 4.2 4.7 9.5a51 51 0 0 1-22.8-18.6c3.1.5 4.4-.4 7.3-1.6"/><path fill="#b77447" d="M965.6 790.7q-.4-1.8-.5-3.8c2.2-3 2.3-2.3 6.2-4l3.4 5.1c1 2.9 2.2 6.5 3.4 9.2l-1.7 4.2c-3.8-4.2-6.2-7.4-10.8-10.7"/><path fill="#d0c2ae" d="M940.3 776c6.3 3.7 8 5 15 7l1.3.5c-12 1.2-6.3 9.7-14.7 4.8-1.5-2.6-2.2-4.3-4.4-6.4l-2.5-.3c-2.8 3.2-.7 3.1-2.4 7 .6-12.2 2.6-2.2 7.7-12.6"/><path fill="#b09278" d="M905.7 746.1c9.5 9.6 11 13.6 23.4 19.2l1.4 2.1a107 107 0 0 0 9.8 8.6c-5 10.4-7 .4-7.7 12.6l.7 4.6-6.4-.7 2.9 8.6c-.6 2.4-.5 2.3-2.1 4.2-3.4-3.4-4.1-4.8-6.6-9-6-9.4-5.7-12.7-13.7-22.2-5-2.9-6.1-3.5-11.6-5l-1.1-6c4.2 2.5 5 2.5 9.9 3l1-3.3c-.3-3.4-1.7-4.4-4-6.9l1.8-3.9c-1.7-1.2-1.4-1.6-2.5-4.1z"/><path fill="#c6bbaf" d="M930.5 767.4a107 107 0 0 0 9.8 8.6c-5 10.4-7 .4-7.7 12.6-10.9-6-8.9-11.1-2-21.2"/><path fill="#ccbba7" d="M903.4 752c6.2 1.6 9 5.8 13.8 11l.8 2.7-1.2.8c-4.4.3-6.7 1.7-11.2 1.1l-1-1.6 1-3.2c-.3-3.4-1.7-4.4-4-6.9z"/><path fill="#bb8b64" d="M894.7 763.1c4.2 2.5 5 2.5 9.9 3l1 1.5c4.5.6 6.8-.8 11.2-1.1-1.3 7.5-4 3.7-9.4 7.6-5-2.9-6.1-3.5-11.6-5z"/><path fill="#4e4239" d="M921 796.3c1.7-2.4 1.8-2.4 4-4.4l2 .6 2.8 8.6c-.6 2.4-.5 2.3-2.1 4.2-3.4-3.4-4.1-4.8-6.6-9"/><path fill="#dfd6cb" d="M995.5 736c.8-2.4 2-3.8 3.6-6 1.3 5.1 1.6 5.7 5 9.6 6.6 7.3 35.1 41 34.4 48.9-6-5.8-14.5-9.6-21.5-15.9-5.4-.2-11.1 0-16-2.7l2-2c1.9-.2 1 .1 2.7-1-1.2-6-16.5-23.2-21-28.6 5.4.4 6.6.6 10.8-2.2"/><path fill="#eee8da" d="M929.1 765.3c-1-3.4-4.9-12.4-5-15 4.6-.8 10.8 2.7 14.5 5.1l32.1 21.8v1.5q-1.7 1-3.5 1.4c-3.3 1.4-7.2 3.6-10.6 3.4l-1.3-.4c-7-2.1-8.7-3.4-15-7.1-3.9-3-6.2-5.1-9.8-8.6z"/><path fill="#dcb" d="m990.9 789.3 1.7-1.9c.8.1 38.7 10.9 41 11.8l-3.7 3.3c-3.9 2.5-5.4 4-10 4.2-3.3-1-10-6.3-13.5-8.6-1.8 4.8-.8 4.3-4.2 6.5h-2.5c-6.2-.4-6.7-1.7-11-6.4z"/><path fill="#c6bbaf" d="M990.9 789.3c4.8 4.5 9.2 6.6 15.5 8.8-1.8 4.8-.8 4.3-4.2 6.5h-2.5c-6.2-.4-6.7-1.7-11-6.4z"/><path fill="#c3ae99" d="m1050.6 802 1.7 2c6.1.5 5.3-5.6 17.2-5.3-3.4 2.9-4.7 4-5 8.7-.4 4.2-.2 3.4-4 7h-5.2l-.2-3.7-.7-2c-2.8-1.8-10.3-.9-14.3-.9.1-.5 1-1.7 1.3-2.2 4-1 6.3-1 9.2-3.7"/><path fill="#bf9e80" d="M1033.6 799.2c4.6-1.7 15.2-5.4 17.4.7l-.4 2c-2.9 2.7-5.1 2.8-9.2 3.7-.3.5-1.2 1.7-1.3 2.2-1 1.8-1.4 2.2-2.1 4.1-2-3.3-1.5-4-4.3-5.2l-.8 1.7c-1-2.8-1.5-3.4-3-6z"/><path fill="#b8a388" d="M974.7 788c5.6.3 6.7.2 11.7-2.3 2.9.8 2.2 1 4.5 3.6-.9 3.1-1.5 5.7-2.2 8.9-4.8-1.2-5.7-1.5-10.6-1-1.2-2.7-2.4-6.3-3.4-9.2"/><path fill="url(#Gradient11)" d="M1006.2 1093.5c.6-.3 5.5-1 6.6-1.2.5 6.9 1 10.6 2.3 17.4 25.3-11.5 37 18.2 54.3-1.8 2.6-4 4.4-8.2 8.6-10 5.4 1.2 2.5 1.5 7.4 4.5 2-2.8 4.3-7 7.3-8 2.6 4.4-1.6 16.9-2.4 22.2-.6 4.2-5.7 8.2-8.9 10.8l-1.4 1.2c-1.8 2.4-4.3 5.6-5.7 8.2 0 1.8 0 5 .4 6.7-4.5.2-3.3-.4-6.7 1.6l2 5c-1.1 2.6-.3 1.5-2.9 2.9.6 3.4-.5 7.6-1.6 10.9l-3 2.3c-1.2 4-1.6 5.1-2 9.3l-2.4 1.7c-3 3.3-4.2 4.9-7.7 7.6a141 141 0 0 0 4.4 26.5c1 3.9 2.8 6.7.4 10.3l-7.5 2.1c-2.6-1-6-2-8.8-2.8l-8-1.5-1.7-.4c-36.5 1.3-50.8 10-84.9 23-6.6 2.5-22.4 8.7-29 10-6.7-8.5-20.7-5.7-33.8-9.4q-2.6-.3-5.1-1.2c-3.7-1-4.7-1.3-8-3.1l.8-1.1 5.8-1.3c-8.8-.6-13.3 2.8-20.6 3.5l-9.6-1c-.1 1.6 0 2.5-.6 4l1.8 1.2c4.9.6 10.6 1.5 15.4 1.9 4.9 2.5 12.2 3 17.7 3.7-5.6 6.6-10.2 3.9-18.6 6.2-3.3.9-5.6 2.3-8.7 3 6.8 1.7 14 5.2 19.9 5.2-2.5.7-13.2 1.2-16.7 1.7-36.5 5-68-10.3-101-25.4-3.5-3.8-26.3-13.5-35-20.3 2.7-6.2-2.1-11.3.4-16.3l-.7-1 3.3-3.5c4.7 1.5 4.5 2.3 8.6 1.4l1.3-1.6c-3.9-3.7-10-8.6-14.2-12.2-1.6-.6-7.7-5.3-9.5-6.7q-7.2-5.3-14.8-10.1c-10.1-3.2-12-3.4-20.6-9.7-2.3-6.2-5.9-11-12.7-12-.1-2.2 2-5 3.4-7.4-.3-4.7-6-7.2-7.9-13.9 7.5-1.2 21.8 13 28.3 17 1.3-2.6 1.4-2 4.4-3.8 5.2 4.5 18.3 16 23.7 18.7 18.1 13 26 18.9 47 27.3 2.1-1 1.4-.5 3-2.3l-.8-4.6c15.6.5 15-1 29.4-3l1.4-3c7 0 19 7.3 26 9.1a164 164 0 0 0 43.6 5l1.7-.5c11.2-5.7 25-2.4 35-8.7a44 44 0 0 0 25.4-13.9 120 120 0 0 0 13.9-12.6l3.3-1.2c-2.4 4.2-4.4 5.4-8 8.4 4.4-.4 31.6-3 34.1-4 4.1-4.5 9.8-11.2 14.7-14.4l4.3-3.3 4.5-5c3.9-4 7.4-6.5 11.8-9.8l2.1-1.6 1.5-.8c1.4-2.3 4.2-5.3 6.1-7.4-7.4-10.5-2.7-11-5.8-18.7"/><path fill="#dfd6cb" d="M1006.2 1093.5c.6-.3 5.5-1 6.6-1.2.5 6.9 1 10.6 2.3 17.4 25.3-11.5 37 18.2 54.3-1.8 2.6-4 4.4-8.2 8.6-10 5.4 1.2 2.5 1.5 7.4 4.5 2-2.8 4.3-7 7.3-8 2.6 4.4-1.6 16.9-2.4 22.2-.6 4.2-5.7 8.2-8.9 10.8l-1.4 1.2c-1.8 2.4-4.3 5.6-5.7 8.2 0 1.8 0 5 .4 6.7-4.5.2-3.3-.4-6.7 1.6l2 5c-1.1 2.6-.3 1.5-2.9 2.9.6 3.4-.5 7.6-1.6 10.9l-3 2.3c-1.2 4-1.6 5.1-2 9.3l-2.4 1.7c-3 3.3-4.2 4.9-7.7 7.6a141 141 0 0 0 4.4 26.5c1 3.9 2.8 6.7.4 10.3l-7.5 2.1c-2.6-1-6-2-8.8-2.8l-8-1.5-1.7-.4c-36.5 1.3-50.8 10-84.9 23-6.6 2.5-22.4 8.7-29 10-6.7-8.5-20.7-5.7-33.8-9.4q-2.6-.3-5.1-1.2c-3.7-1-4.7-1.3-8-3.1l.8-1.1 5.8-1.3c10 0 22-1.8 31.7-4.5 7.9-2.2 46.3-16 40-27.8-7.2-3.3-18.3 1.5-25.7 4l-1.1-1.8.6-2.3a60 60 0 0 1 15.4-8.7l.2-.6q0-1.8-.3-3.7c2.6-3.3 2.5-1.8 2.2-4.7l-3.1-4.3c2.9-1 8.8-5 11.7-6.7l4.2-3.8c5-2.4 6.3-9.6 15.3-15l1-1.5c4-4.5 9.7-11.2 14.6-14.4l4.3-3.3 4.5-5c3.9-4 7.4-6.5 11.8-9.8l2.1-1.6 1.5-.8c1.4-2.3 4.2-5.3 6.1-7.4-7.4-10.5-2.7-11-5.8-18.7"/><path fill="#e8e3d9" d="M1006.2 1093.5c.6-.3 5.5-1 6.6-1.2.5 6.9 1 10.6 2.3 17.4 25.3-11.5 37 18.2 54.3-1.8 2.6-4 4.4-8.2 8.6-10 5.4 1.2 2.5 1.5 7.4 4.5 2-2.8 4.3-7 7.3-8 2.6 4.4-1.6 16.9-2.4 22.2-.6 4.2-5.7 8.2-8.9 10.8l-1.4 1.2c-1.8 2.4-4.3 5.6-5.7 8.2 0 1.8 0 5 .4 6.7-4.5.2-3.3-.4-6.7 1.6l2 5c-1.1 2.6-.3 1.5-2.9 2.9.6 3.4-.5 7.6-1.6 10.9l-3 2.3c-2.5-.4-2.3-.5-4.4-2-3.4 3.6-3.7 3.8-5.5 8.3l.6 1.4c-4.3 6-15.5 3.5-21.2.8-6.7-8.3-6.3-8.2-6.5-18.7-.2-2.6 1-4 2.4-6.2l-.7.2c-.5-2-1-2.2-2-4.1q-3.2-1.6-5.7-3.7c-4-.7-5.7-.5-9.8-.4-.7-.2-2.8-1.7-3.6-2.2l-3.4-.4c-2.8-1.6-4-2.5-6.5-4.4l-2.8 2.3c-.8-2.5-1.4-3-2.9-5.3 3.9-4 7.4-6.5 11.8-9.8l2.1-1.6 1.5-.8c1.4-2.3 4.2-5.3 6.1-7.4-7.4-10.6-2.7-11-5.8-18.7"/><path fill="#c3ae99" d="M1034 1149.8c5.7-8.4 3.5-2.6 9.8-1.3l1.7 1.4 2.3-.8c5.4.7 7.3.8 12.7.6l6.6 3.3c.6 3.4-.5 7.6-1.6 10.9l-3 2.3c-2.5-.4-2.3-.5-4.4-2-3.4 3.6-3.7 3.8-5.5 8.3l.6 1.4c-4.3 6-15.5 3.5-21.2.8-6.7-8.3-6.3-8.2-6.5-18.7-.2-2.6 1-4 2.4-6.2h3.2l2.1 1z"/><path fill="#b6815a" d="M1028 1149.8h3.1c2.2 9.2 11.6 16.6 19.3 21.4l2.2 1.3.6 1.4c-4.3 6-15.5 3.5-21.2.8-6.7-8.3-6.3-8.2-6.5-18.7-.2-2.6 1-4 2.4-6.2"/><path fill="#cba784" d="m1060.5 1149.7 6.6 3.3c.6 3.4-.5 7.6-1.6 10.9l-3 2.3c-2.5-.4-2.3-.5-4.4-2l-4.5-3.3c4.2-4 6.5-5.6 7-11.2"/><path fill="#c1956e" d="M1047.8 1149c5.4.8 7.3.9 12.7.7-.4 5.6-2.7 7.1-6.9 11.2-4.7-3.9-5.3-5.4-8-11z"/><path fill="#ccbba7" d="M1069.5 1107.9c2.5-4 4.4-8.2 8.5-10 5.4 1.2 2.5 1.5 7.4 4.5 2-2.8 4.3-7 7.3-8 2.6 4.4-1.6 16.9-2.4 22.2-.6 4.2-5.7 8.2-8.9 10.8l-1.4 1.1c-1.8 2.5-4.3 5.7-5.7 8.2l-.5.5-1.8-.1c-2.8-2-3.3-2-4.6-5.3-2.2-2.5-3.6-1.6-6.4-4.7 1.1-3.2 1.5-2.6 5-5-2.2-1.5-1.5-.8-2.8-3.4q3.7-3.4 7.6-6.6z"/><path fill="#d0c2ae" d="M1066 1122.2c6.1-.3 5 3.7 14 6.4-1.8 2.4-4.3 5.6-5.7 8.2l-.5.4-1.8-.1c-2.8-2-3.3-2-4.6-5.3-2.2-2.5-3.6-1.6-6.4-4.7 1.1-3.2 1.5-2.6 5-5"/><path fill="#eee8da" d="M1070.8 1112c2 5.5 5.4 12.6 10.6 15.4l-1.4 1.1c-9-2.6-7.8-6.6-14-6.3-2.2-1.6-1.5-.9-2.8-3.5q3.7-3.4 7.6-6.6m13.4-2.8c3.1 1 2 0 3.7 2.7-.1 3-2 5-4 7.5-3.3-1.2-3.6-2-4.4-5 1.6-3.9.8-2.6 4.7-5.2"/><path fill="#cba784" d="M1004.4 1120.4c4.1 3.4 5.4 8.3 7 13.2l1.6.9c2.9-1.8 2-3 3.7-5.5 7 2.7 10.6 1.5 18 4.2l1.7 1.4 2.8.4c.8 6.2.6 6.7 4.5 11.6l.1 1.9c-6.3-1.3-4-7.1-9.8 1.3l-.8 1-2.1-1h-3.2l-.7.2c-.5-2-1-2.2-2-4.1q-3.1-1.6-5.8-3.7c-3.9-.7-5.6-.5-9.7-.4-.7-.2-2.8-1.7-3.6-2.2l-3.4-.4c-2.8-1.6-4-2.5-6.5-4.4l-2.8 2.3c-.8-2.5-1.4-3-2.9-5.3 3.9-4 7.4-6.5 11.8-9.8z"/><path fill="#ccbba7" d="m1034.8 1133.2 1.6 1.4 2.8.4c.8 6.2.6 6.7 4.5 11.6l.1 1.9c-6.3-1.3-4-7.1-9.8 1.3l-.8 1-2.1-1h-3.2l-.7.2c-.5-2-1-2.2-2-4.1q-3.1-1.6-5.8-3.7l1.8-.7.5-2.8 2.2-1.4c5.5.2 7.8 1 10.9-4"/><path fill="#d0c2ae" d="m1036.4 1134.6 2.8.4c.8 6.2.6 6.7 4.5 11.6l.1 1.9c-6.3-1.3-4-7.1-9.8 1.3-9.5-5.6.4-11.7 2.4-15.2"/><path fill="#dfd6cb" d="M996.2 1134.8c2-3.2 2.5-4.7 6-6 6 1.1 5.4 6 4 10.8l-3.5-.4c-2.8-1.6-4-2.5-6.5-4.4"/><path fill="#d0c2ae" d="M1006.2 1093.5c.6-.3 5.5-1 6.6-1.2.5 6.9 1 10.6 2.3 17.4 25.3-11.5 37 18.2 54.3-1.8l1.4 4.2q-4 3.2-7.6 6.6c-11.9 7.2-34.1-7-47.4-4q-1.6-1.3-3.8-2.5c-7.4-10.5-2.7-11-5.8-18.7"/><path fill="#dcb" d="M1067.4 1131.8c1.3 3.3 1.8 3.3 4.6 5.3h1.8l.5-.4c0 2 0 5.1.4 6.8-4.5.2-3.3-.5-6.7 1.6l2 5c-1.1 2.6-.3 1.5-2.9 2.9l-6.6-3.3c-5.4.2-7.3.1-12.7-.6l-2.2.8-1.8-1.4v-1.9l2.4-8-.5-1c4-5 6.3.6 13.6-2.2 3.4 2 1.7 1.7 5.2 1.8 2.8-2.5 1.6-1 2.9-5.4"/><path fill="#eee8da" d="M1051.3 1143.2c3.2-2.1 4-3 7.7-3 2.1 1.2 7.5 4.4 9 5l2 4.9c-1.1 2.6-.3 1.5-2.9 2.9l-6.6-3.3c-5.4.2-7.3.1-12.7-.6 1-3.5 1.2-3.4 3.5-6"/><path fill="#cba784" d="m1046.2 1138.6 4 1.3q.7 1.6 1.1 3.3c-2.3 2.5-2.4 2.4-3.5 5.9l-2.2.8-1.8-1.4v-1.9c.4-2 1.7-5.8 2.4-8"/><path fill="#ccbba7" d="M1012 1112.2c1.4.9 2.7 1.5 3.8 2.6 1.8 6 2.2 5 8.4 6.4v.8l-1.2.4c-2.7 1-4.4 1.2-6 3.6l-.3 3c-1.7 2.5-.8 3.6-3.7 5.5l-1.6-.9c-1.5-4.9-2.8-9.8-7-13.2l1.5-.8c1.4-2.3 4.2-5.3 6.1-7.4"/><path fill="#c3ae99" d="M1039.2 1135c6.2-7.5 20-15.8 20.1.4-7.3 2.8-9.6-2.8-13.6 2.2l.5 1c-.7 2.2-2 6-2.4 8-4-4.9-3.8-5.4-4.6-11.6"/><path fill="#c6bbaf" d="M936 1194.8c4.3 2.4 3.2 1.4 8 1 7.6-.7 16.8-.3 24.6-.3l-3.9 1.8c-.7 2-.8 2-.4 4.3 1.2 6.9-8.1 12.4-12.7 15.8a110 110 0 0 1-22.7 13.9c-14 3.6-31.3 5.8-45.9 9.2l-1.5 2.1q-2.6-.3-5.1-1.2c-3.7-1-4.7-1.3-8-3.1l.8-1.1 5.8-1.3c10 0 22-1.8 31.7-4.5 7.9-2.2 46.3-16 40-27.8-7.2-3.3-18.3 1.5-25.7 4l-1.1-1.8.6-2.3a60 60 0 0 1 15.4-8.7"/><path fill="#d0c2ae" d="M1058.1 1164.3c2 1.4 2 1.5 4.3 1.9-1.1 4-1.5 5.1-2 9.3l-2.3 1.7c-3 3.3-4.2 4.9-7.7 7.6a141 141 0 0 0 4.4 26.5c1 3.9 2.8 6.7.4 10.3l-7.5 2.1c-2.6-1-6-2-8.8-2.8l-8-1.5-1.7-.4-1.2-2c.4-4 2.6-6 5.9-8 3.2-3.8 2.2-3.9 6.2-5.1l1.1-2.3c-.6-12.4-2-16-13.7-18.8l-1.6-.4 1-2.2c2.7-1 3.1-.9 5.4-2.7l-.3-2.8c5.7 2.7 17 5.2 21.2-.8l-.6-1.4c1.8-4.5 2-4.7 5.5-8.2"/><path fill="#c1956e" d="M1038.9 1220.9c1-4.3 4.8-14 9.5-15 3.5 1.8 3.7 2.3 6.4 5.4 1 3.9 2.8 6.7.4 10.3l-7.5 2.1c-2.6-1-6-2-8.8-2.8m-5-11.9c3.2-3.8 2.2-3.9 6.2-5.1 1.4 7.5-.9 14.7-9.3 15.5l-1.6-.4-1.2-2c.4-4 2.6-6 5.9-8"/><path fill="#b09278" d="M1028 1217c-7.4-4.7-9.5-3.9-17.6-6 4.7-4.3 17.6-14.3 20.4-18.5l1.9.3c2.7 6.1-2 9.8 1.2 16.1-3.3 2.1-5.5 4.1-6 8.2"/><path fill="#c1956e" d="M966.1 1156c.2 8.3 5.6 9 7 16.3-4.7 3-7 1.2-12.2 5.4-6-1.5-6.5-2.1-13.1-1.4l-1.2-1.5 4.2-3.8c5-2.4 6.3-9.6 15.3-15"/><path fill="#c3ae99" d="M978.4 1167c22-5.6 31.7-1.4 46.2 15.8-11.5-6.3-19.9-12.2-33.5-11.4-4.3.3-10.9.9-15 .5z"/><path fill="#bb8b64" d="m981.7 1140.1.7 2.1-.2.5a62 62 0 0 0-6.8 13.8l3 10.5-2.3 5-3 .3c-1.4-7.4-6.8-8-7-16.3l1-1.5c4-4.5 9.7-11.2 14.6-14.4"/><path fill="#cba784" d="m993.4 1137.2 2.8-2.4c2.5 2 3.7 2.8 6.5 4.4l3.4.4c.8.5 2.9 2 3.6 2.2-.9 2.2-1.2 2.3-1.4 4.5-1.8 1.8-1 1.4-3.3 2.3l-5.4-.4-2.5 1.4c-1.4-2.9-3.8-5-6-7.4z"/><path fill="#c3ae99" d="m1002.7 1139.2 3.4.4c.8.5 2.9 2 3.6 2.2-.9 2.2-1.2 2.3-1.4 4.5-1.8 1.8-1 1.4-3.3 2.3l-5.4-.4c2-4 2.7-4.7 3.1-9"/><path fill="#bf9e80" d="M990.5 1131.8c1.5 2.3 2 2.8 3 5.3l-2.5 5.1c2.3 2.4 4.7 4.5 6.1 7.4-8.2 1-8.3-2.4-15-6.9l.3-.5-.7-2 4.3-3.5z"/><path fill="#c1956e" d="M990.5 1131.8c1.5 2.3 2 2.8 3 5.3l-2.5 5.1c-3-1.8-3.2-2.5-5-5.5z"/><path fill="#c6bbaf" d="M1009.7 1141.8c4-.1 5.8-.3 9.7.4q2.8 2 5.8 3.7c1 1.9 1.5 2 2 4.1l-1 .3c-3.6-1.3-13.7-3.2-18-4 .3-2.2.6-2.3 1.5-4.5"/><path fill="#bf9e80" d="m946.6 1174.8 1.2 1.5a81 81 0 0 0 1.2 8.4l-1.1.6c-4.7-.4-5.5-.7-10 .5l-3-4.3c2.9-1 8.8-5 11.7-6.7"/><path fill="#ccbba7" d="M1008.3 1146.3c4.2.8 14.3 2.7 17.8 4l1-.3.8-.2c-1.4 2.3-2.6 3.6-2.4 6.2-4.7-4.7-14-6-20.5-7.4 2.3-1 1.5-.5 3.3-2.3m-60.5 30c6.6-.7 7-.1 13.1 1.4-6.1.9-5.2 4.7-11.9 7a81 81 0 0 1-1.2-8.4"/><path fill="#cba784" d="M938 1185.8c4.4-1.2 5.2-1 9.9-.5-3.7 3.2-7.4 6.8-11.8 9q0-1.9-.3-3.8c2.6-3.3 2.5-1.8 2.2-4.7"/><path fill="#dfd6cb" d="M940.9 1150c-2.4 4.3-4.4 5.5-8 8.5 4.4-.4 31.6-3 34.1-4l-.9 1.5c-9 5.4-10.3 12.6-15.3 15l-4.2 3.8c-2.9 1.7-8.8 5.6-11.7 6.7l3 4.3c.4 3 .5 1.4-2 4.7a24 24 0 0 1-10.3 5.8c-14.6 4.9-29.7 11.5-45.4 14.1-25 4.2-97.5-10.7-119.5-19.7l1.8-2.7c5.4 1.1 6.1 1.3 11.4-.2-6.8-2.2-7-1.4-13.8-2H759c2.1-1 1.4-.5 3-2.3l-.8-4.6c15.6.5 15-1 29.4-3l1.4-3c7 0 19 7.3 26 9.1a164 164 0 0 0 43.6 5l1.7-.5c11.2-5.7 25-2.4 35-8.7a44 44 0 0 0 25.4-13.9 120 120 0 0 0 13.9-12.6z"/><path fill="#dcb" d="M940.9 1150c-2.4 4.3-4.4 5.5-8 8.5 4.4-.4 31.6-3 34.1-4l-.9 1.5c-9 5.4-10.3 12.6-15.3 15l-4.2 3.8c-2.9 1.7-8.8 5.6-11.7 6.7-20.6 3.1-45.8 6.6-66.1 10.2-19.4 3.6-62.5-2.9-78.2-15.8l1.4-3c7 0 19 7.3 26 9.1a164 164 0 0 0 43.6 5l1.7-.5c11.2-5.7 25-2.4 35-8.7a44 44 0 0 0 25.4-13.9c1.9-.6 11.7-10.5 13.9-12.6z"/><path fill="#ccbba7" d="M940.9 1150c-2.4 4.3-4.4 5.5-8 8.5 4.4-.4 31.6-3 34.1-4l-.9 1.5c-9 5.4-10.3 12.6-15.3 15-5-1.6-73.8 18-85 16.3l-4.2-.2 1.7-.6c11.2-5.7 25-2.4 35-8.7a44 44 0 0 0 25.4-13.9c1.9-.6 11.7-10.5 13.9-12.6z"/><path fill="#bf9e80" d="M761.2 1179c15.6.4 15-1.1 29.4-3 15.7 12.8 58.8 19.3 78.2 15.7 3.7 1 10.4 2 14.3 1.3l-2 .5-.5-.8a27 27 0 0 0-15.8 5.8c-2 .7-3.8 2.5-5.6 4.1-25.3 1.7-60-9-85.3-14.8-6.8-2.2-7-1.4-13.8-2H759c2.1-1 1.4-.5 3-2.3z"/><path fill="#c3ae99" d="M868.8 1191.7c20.3-3.7 45.5-7 66-10.2l3.2 4.3c.3 3 .4 1.4-2.2 4.7a24 24 0 0 1-10.2 5.8c2.6-3.6 2.6-2.5 2.3-6-9.6-7.2-38 15-46.4 13.3-1.2-6 1.6-4.6-1.1-8-6 .4-11 2.8-15.6 3 4.7-4.1 9.6-5.2 15.8-5.8l.5.7 2-.5a43 43 0 0 1-14.3-1.3"/><path fill="#6b4730" d="M731.9 1198.6c3.5 3.1 6.5 5.7 9.8 9 4.2 2.1 7 4 11.6 4 2.3-1.5 1.3-.6 2.5-4l-3.2-3.3c2-1.2 2.5 0 5-2.5-.7-1.8-.2-1-2.4-2.1l.7-1.3a78 78 0 0 1 22.5 9.9 42 42 0 0 0 15 10c-1.4 2.5-2.3 3.7-2.5 6.4 17.6 5.3 36 9.4 53.9 13.7-.1 1.6 0 2.4-.6 4l1.8 1.2c4.9.6 10.6 1.5 15.4 1.9 4.9 2.5 12.2 3 17.7 3.7-5.6 6.6-10.2 3.9-18.6 6.2-3.3.9-5.6 2.2-8.7 3 6.8 1.7 14 5.2 19.9 5.2-2.5.7-13.2 1.2-16.7 1.7-36.5 5-68-10.3-101-25.4-3.5-3.8-26.3-13.5-35-20.3 2.7-6.2-2.1-11.3.4-16.3l-.7-1 3.3-3.5c4.7 1.5 4.5 2.3 8.6 1.4z"/><path fill="#eee8da" d="M731.9 1198.6c3.5 3.1 6.5 5.7 9.8 9 4.2 2.1 7 4 11.6 4 2.3-1.5 1.3-.6 2.5-4l-3.2-3.3c2-1.2 2.5 0 5-2.5-.7-1.8-.2-1-2.4-2.1l.7-1.3a78 78 0 0 1 22.5 9.9 42 42 0 0 0 15 10c-1.4 2.5-2.3 3.7-2.5 6.4 17.6 5.3 36 9.4 53.9 13.7-.1 1.6 0 2.4-.6 4l-7.8-1.2c-22.1-5-55.6-10.1-78.5-8.5-3.6 1.8-3.4 3-3.9 7.2-3.5-3.8-26.3-13.5-35-20.3 2.7-6.2-2.1-11.3.4-16.3l-.7-1 3.3-3.5c4.7 1.5 4.5 2.3 8.6 1.4z"/><path fill="#6f260c" d="M755.9 1198.5a75 75 0 0 1 22.5 9.8 42 42 0 0 0 15 10c-1.4 2.5-2.3 3.7-2.5 6.4-9.2-2.5-21.9-5.3-28.7-12-2.5-2.6-2.4-2.4-5.5-4.6l-1-.5-3-3.3c2-1.2 2.4 0 5-2.5-.8-1.8-.3-1-2.5-2.1z"/><path fill="#cba784" d="M731.9 1198.6c3.5 3.1 6.5 5.7 9.8 9-7.7 1.3-14.6-1.9-22.3-4.3l-.7-1 3.3-3.5c4.7 1.5 4.5 2.3 8.6 1.4z"/><path fill="#dfd6cb" d="M754 1240c.5-4.2.3-5.5 3.9-7.3 12.3 11 62.9 19.1 80.6 22.5l13.3 3.3c6.8 1.6 14 5 19.9 5-2.5.8-13.2 1.3-16.7 1.8-36.5 5-68-10.3-101-25.4"/><path fill="#9d7559" d="m836.4 1241.2 7.8 1.2 1.8 1.2c2.4 3.3 3.4 3.5 7 5.5l.6 1.8-1.5 1.2c-10.6-2.6-26.4-4.7-37.3-6.2 6.4-1 16.2-1.9 21.6-4.7"/><path fill="#b77447" d="M921 1207.7c7.4-2.6 18.5-7.4 25.7-4 6.3 11.8-32.1 25.5-40 27.7-9.8 2.7-21.6 4.5-31.7 4.5-8.8-.6-13.3 2.8-20.6 3.5l-9.6-1c-18-4.3-36.3-8.4-53.9-13.7.2-2.7 1.1-4 2.4-6.3-7.5-3.5-9-4.7-14.9-10.1 9.6-.6 23.5 4.4 33.6 6.7 31.2 7.2 79.9 6.4 109-7.3"/><path fill="#8d4824" d="M793.3 1218.4a286 286 0 0 0 19.7 7.9c8.1 2.9 36.1 8.6 41.4 13l-9.6-1c-18-4.2-36.3-8.3-53.9-13.6.2-2.7 1.1-4 2.4-6.4"/><path fill="#c6bbaf" d="M684 1143.6c1.2-2.6 1.3-2 4.3-3.8 5.2 4.5 18.3 16 23.7 18.7 18.1 13 26 18.9 47 27.3h1.1c6.8.6 7-.2 13.8 2-5.3 1.5-6 1.3-11.4.2l-1.8 2.7c-17 .6-62.4-35.4-76.8-47.1"/><path fill="#ae6435" d="m717.7 1186.4.2-1.4c-2.1-2.5-4-4.1-4-7l.8.2-1 1.4c3.4-1.2 2.6-.7 7 .5 1.3.8 6.5 3.7 7.6 4.5 10 5.6 18 8.9 27.6 13.9l-.7 1.2c2.2 1.2 1.7.3 2.5 2.1-2.6 2.6-3 1.3-5 2.5l3 3.3c-1.1 3.4 0 2.5-2.4 4-4.5 0-7.4-1.9-11.6-4-3.3-3.3-6.3-5.9-9.8-9-3.9-3.7-10-8.6-14.2-12.2"/><path fill="#8d4824" d="M728.3 1184.6c10 5.6 18 8.9 27.6 13.9l-.7 1.2c2.2 1.2 1.7.3 2.5 2.1-2.6 2.6-3 1.3-5 2.5-3.7-1.7-22.5-16-24.4-19.7"/><path fill="#b77447" d="M693.4 1169.6c-5.3-5.4-20.9-15.4-22.3-21.3l1.2-1.4c6.3.6 39.8 27 48.3 33.2-4.3-1.2-3.5-1.7-7-.5l1-1.4-.7-.2c0 2.9 1.9 4.5 4 7l-.2 1.4c-1.7-.6-7.7-5.3-9.5-6.7q-7.2-5.3-14.8-10.1"/><path fill="url(#Gradient10)" d="M584.3 1064c-9.4-14.7-12.5-30.8-17-47.3-39.4-144.8 41.8-344.6 197-381-3.9 3.5-9.1 3.3-11.2 5.6 5.5.8 17.7 0 23.6-.1 19.8-.8 26.8 1.1 45.3 6.2 10.7 4 24.2 13.3 33.4 20.1l-.1.4c-7.2-1.3-18.5-5.6-27.5-7.5-6.7-2-9.2-1-15.9-.2l-1 3h-.8c-1.1 2.8-2.4 4.9-1.6 7.7 4.1 3.1 8.6 3.8 13.2 5.8 18 8 37.4 10.4 52.2 23.7.3 2.4.4 4 .5 6.5-2 2-2 1.8-4.9 2.5l2 .9c-2.3 4-3.1 4-7.9 5.3 3.5.8 3.8.6 6.4 3.2 1.6 1.2 1.8 1.2 3 2.7l-4.3 5.3q.1 3.9-.6 7.7c-3.5.9-3.8 1.2-6.9 2.8-4.4-6.2-6.2-9.7-13.3-12.8-4.1.9-3.9.8-8-.4-4.2 2-4.6 2-7.6 5.5-1 10-2.2 12.3-10.1 18.8l-1 .8c-2.9-1.2-7.4-3.3-10.3-3.7-5.6-3.2-6.7-3.8-11-9l-.7-.9c-3.4-1.3-2.2-1.6-4.8-.7-13.3 4.8-27.3 5-41 7-2 .3-3.8 2.4-5.1 3.9l-5.2-.8c6-10.8 24.4-10.5 24.8-17.8l-3.1-3.3c-10.2.4-21.7.2-31.5 2.7h-2.1c-1.8.6-7.7 2.6-9.2 2.8q-4.5.1-8.9 1l-3-4c-4.4 1.4-10 2.8-13.8 5-1.8-2.4-1.6-2.6-4.3-3.8-2.4-.4-3.4-1-5.6-2l1.4-3c-1-1.8-1.9-2.8-3.2-4.4 4-3.3 4.8-3.6 7.3-8-2.3-1-3.8-.4-6.3 0-2.1-2-1.7-2-2.9-4.9l-13.3 6c-2.7 2-5.8 3.6-6.5 6.3 2.3 1 2.5.7 5 .6-2 2.3-2.3 1.8-2.4 3.8-8 8.2-17 10.3-22.8 21l-1.3.8-5.3 4.1c-1-2.6-1.3-3-2.8-5.5-5 4-12.4 17-18.7 24l-1.2 1.4-.7.8c-4.2 4.3-19.9 27.7-20.4 33.6l1-.2 2.8.8 3.6 7.5-1.2 1c4.6 6.5-2.3 18-2.1 27 4.8-1.7 3.1-.5 6.5-4.2a39 39 0 0 1-.2 12.3c1.8 2.3 2.1 3 4.6 4.4-4.8 5-6 5-9.3 11.3l-4-2.2c-6.5 18.5-16.2 69.6-14.8 87.5 1.3 16.9 2.6 32.5 2.8 51 2.6 7.2 13.5 32.2 12.6 37.5.8 3 1.5 6.6 2.7 9.4 2.2 14.8 18.5 35.4 26.3 48.2a107 107 0 0 0 24 27.4c2.7 2.2 5.7 3 8.7 4.7l-.7 1c1.9 6.7 7.6 9.2 8 13.9-1.4 2.4-3.6 5.2-3.5 7.4 6.8 1 10.4 5.8 12.7 12 8.5 6.3 10.4 6.5 20.6 9.7q7.6 4.8 14.8 10.1c1.8 1.4 7.8 6.1 9.5 6.7 4.2 3.6 10.3 8.5 14.2 12.2l-1.3 1.6c-4 .9-3.9.1-8.6-1.4l-3.3 3.6.7 1c-2.5 5 2.3 10-.3 16.2-15.1-8-29.6-19.8-43-29.8-51.7-38.6-68.6-68.8-91.8-125.8"/><path fill="#dfd6cb" d="m782 662.3 1.8 1.2c3.6 2.2 3.5 2 5.4 5.7l3.8 5.6-3.4 4 1.7 1.8-.2 1.5c-4-.5-7-1.5-10.6 0l-6.7-1.3c-2.2 3.7-2 3.6-5.5 6-1.7-4.2.6-5.7 3-9.1l-.5-2.6-6.5 4.7.4-4.2c1.6-6.6 1.2-7.7 7.6-10 5-.6 5.5-.8 9.7-3.3"/><path fill="#bf9e80" d="M783.8 663.5c3.6 2.2 3.5 2 5.4 5.7l3.8 5.6-3.4 4c-2-1.2-2.2-1.5-4-3-2-4.2-1.7-7.6-1.8-12.3"/><path fill="#d0c2ae" d="M770.8 675.1c2.2-2.4 3.7-4.7 6.7-5.7.1 4.1-1.7 6.4-4.4 9.2.4 2 0 1.3.7 2.2-2.2 3.7-2 3.6-5.5 6-1.7-4.2.6-5.7 3-9.1z"/><path fill="#dcb" d="M801.8 657.6c3.3.2 7-.2 9.5 1.6l.6 1-1 3h-.8c-1.1 2.8-2.4 4.9-1.6 7.7 4.1 3.1 8.6 3.8 13.2 5.8 18 8 37.4 10.4 52.2 23.7.3 2.4.4 4 .5 6.5-2 2-2 1.8-4.9 2.5l2 .9c-2.3 4-3.1 4-7.9 5.3 3.5.8 3.8.6 6.4 3.2 1.6 1.2 1.8 1.2 3 2.7l-4.3 5.3q.1 3.8-.6 7.7c-3.5.9-3.8 1.2-6.9 2.8-4.4-6.2-6.2-9.7-13.3-12.8-4.1.9-3.9.8-8-.4-4.2 2-4.6 2-7.6 5.5-1 10-2.2 12.3-10.1 18.8l-1 .8c-2.9-1.2-7.4-3.3-10.3-3.7-5.6-3.2-6.7-3.8-11-9l-.7-.9c-3.4-1.3-2.2-1.6-4.8-.7-13.3 4.8-27.3 5-41 7-2 .3-3.8 2.4-5.1 3.9l-5.2-.8c6-10.8 24.4-10.5 24.8-17.8l-3.1-3.3c-10.2.4-21.7.2-31.5 2.7h-2.1c-1.8.6-7.7 2.6-9.2 2.8q-4.5.1-8.9 1l-3-4c-4.4 1.4-10 2.8-13.8 5-1.8-2.4-1.6-2.6-4.3-3.8-2.4-.4-3.4-1-5.6-2l1.4-3c-1-1.8-1.9-2.8-3.2-4.4 4-3.3 4.8-3.6 7.3-8-2.3-1-3.8-.4-6.3 0-2.1-2-1.7-2-2.9-4.9 3-1 6.8-2.7 9.9-4 4.3-.8 6.7-2 9.5-5.2l6.2-.7c6-2.4 12.2-3.7 18.6-2.5 1-.3 3.4-1.4 4.5-1.9l2.1-1 1.3.6c2.8 1.3 3 1.8 5.3 1 0-5.4-.2-6.2 3.8-10l-.2-.5c6.5-1.5 4.2-.8 11.7 2.8 3.7 0 5.8-2 9-4.1l6.4-4.7.6 2.6c-2.5 3.4-4.8 4.9-3 9.2 3.4-2.5 3.2-2.4 5.4-6.1l6.7 1.4c3.6-1.6 6.5-.6 10.6-.1l.2-1.5-1.7-1.8 3.4-4-3.9-5.6c-1.8-3.8-1.7-3.5-5.3-5.7l-1.8-1.2c5.7-3.9 12.9-4 19.8-4.7"/><path fill="#c6bbaf" d="M801.8 657.6c3.3.2 7-.2 9.5 1.6l.6 1-1 3h-.8c-1.1 2.8-2.4 4.9-1.6 7.7 4.1 3.1 8.6 3.8 13.2 5.8 18 8 37.4 10.4 52.2 23.7.3 2.4.4 4 .5 6.5-2 2-2 1.8-4.9 2.5l2 .9c-2.3 4-3.1 4-7.9 5.3 3.5.8 3.8.6 6.4 3.2 1.6 1.2 1.8 1.2 3 2.7l-4.3 5.3q.1 3.8-.6 7.7c-3.5.9-3.8 1.2-6.9 2.8-4.4-6.2-6.2-9.7-13.3-12.8-4.1.9-3.9.8-8-.4-1.3-2.5-1.6-2.4-4-4.2 1.7-2.7 1.4-1.3 1-4.3-2.7-3.8-2.4-2-1.9-5.7l4-3c5.5-4.3 5.7-4.3 5-11.1-1.2-.2-1.1 0-2.2-.6-6.2-3.5-14.8-3.2-22-3.4l-17.6-5.1c.3-2.2.7-2.6 1.8-4.8-3.7-1.3-2.5-.1-4.1-3l-7-4-3.7-5.7c-1.9-3.8-1.8-3.5-5.4-5.7l-1.8-1.2c5.7-3.9 12.9-4 19.8-4.7"/><path fill="#ccbba7" d="M836.9 715.6c3.4-3.5 4.8-5.4 9.6-6 3.3 3 3.2 2 8.6 2.5 4.7-.7 7.8-1.6 12.4-3l2 .3 2 .9c-2.3 4-3.1 4-7.9 5.3 3.5.8 3.8.6 6.4 3.2 1.6 1.2 1.8 1.2 3 2.7l-4.3 5.3q.1 3.9-.6 7.7c-3.5.9-3.8 1.2-6.9 2.8-4.4-6.2-6.2-9.7-13.3-12.8-4.1.9-3.9.8-8-.4-1.3-2.5-1.6-2.4-4-4.2 1.7-2.7 1.4-1.3 1-4.4"/><path fill="#9d7559" d="M870 718.8c1.6 1.2 1.8 1.2 3 2.7l-4.3 5.3q.1 3.8-.6 7.7c-3.5.9-3.8 1.2-6.9 2.8-4.4-6.2-6.2-9.7-13.3-12.8l1.7-2.6c9.2 1.2 12.7 1.4 20.4-3"/><path fill="#bb8b64" d="m867.5 709.2 2 .2 2 .9c-2.3 4-3.1 4-7.9 5.3-5 .7-10.2 1.4-14.8-1.3 1.9-2 2.7-1.5 6.3-2.2 4.7-.7 7.8-1.6 12.4-3"/><path fill="#dcb" d="M801.8 657.6c3.3.2 7-.2 9.5 1.6l.6 1-1 3h-.8c-5.3.2-10.9-.1-15.7 1.8l-1.2 1.5.8 1.9c-1.5.2-3.6.3-4.9.8-1.8-3.8-1.7-3.5-5.3-5.7l-1.8-1.2c5.7-3.9 12.9-4 19.8-4.7"/><path fill="#cba784" d="m844 695.8 1.1-1.6 2.3.1c4.6 5.4 3.3 10.1-1 15.4-4.7.5-6 2.4-9.5 5.9-2.7-3.8-2.4-2-1.9-5.7l4-3c5.5-4.3 5.7-4.3 5-11.1"/><path fill="#bf9e80" d="M804 682c5.4 1.4 16.7 3.6 20 7.8l-.8 1.2-3.5.8-17.5-5.1c.3-2.2.7-2.6 1.8-4.8"/><path fill="#dfd6cb" d="m864 704.5 3.6 1.2c.8 2.3.8 1.2-.1 3.5-4.6 1.3-7.7 2.2-12.4 3-5.4-.6-5.3.3-8.6-2.5l4.4-1.3c3.8-.9 9.2-2.7 13-3.9"/><path fill="#eee8da" d="M789.2 669.2c1.2-.5 3.3-.6 4.8-.8 2.7 2 5.9 3.6 7 6.6-.3 2.5 0 1.7-1.1 3.8l-7-4z"/><path fill="#bf9e80" d="M851 708.4c3-4.8 3.5-7 8.8-8.8 3.6 1 2.2 0 4.6 2.9l-.5 2c-3.8 1.2-9.2 3-13 3.9"/><path fill="#bb8b64" d="M708.3 695.4c6-2.4 12.2-3.7 18.6-2.5q.5 3.4.4 6.6l-1.4 1.4c.5.7 1.3 1.8 1.4 2.5 2.7 2 4 3.1 6.5 5.3h2c.4-.7 1.2-2 1.5-2.8 5.8 8.5 20.4 11.3 30.1 11.1l3.4 3c-1 .7-3 2.3-3.9 2.7l-2.1 1.2c-10.2.4-21.7.2-31.5 2.7h-2.1c-1.8.6-7.7 2.6-9.2 2.8q-4.5.1-8.9 1l-3-4c-4.4 1.4-10 2.8-13.8 5-1.8-2.4-1.6-2.6-4.3-3.8-2.4-.4-3.4-1-5.6-2l1.4-3c-1-1.8-1.9-2.8-3.2-4.4 4-3.3 4.8-3.6 7.3-8-2.3-1-3.8-.4-6.3 0-2.1-2-1.7-2-2.9-4.9 3-1 6.8-2.7 9.9-4 4.3-.8 6.7-2 9.5-5.2z"/><path fill="#c3ae99" d="M727.3 703.4c2.7 2 4 3.1 6.5 5.3h2c.4-.7 1.2-2 1.5-2.8 5.8 8.5 20.4 11.3 30.1 11.1l3.4 3c-1 .7-3 2.3-3.9 2.7l-2.1 1.2c-10.2.4-21.7.2-31.5 2.7h-2.1c-2.6-2.3-5.2-3-8.4-4.3 4.4-4.8 5.3-3.8 12-3.6-.4-.2-4.9-1-5.6-1 1.7-1.7 1.2-1 2-3.2-5-5.5-5-4.2-3.9-11"/><path fill="#b6815a" d="M722.8 722.3c4.4-4.8 5.3-3.8 12-3.6 8.4 0 25.7-.6 32.1 4l-2.1 1.2c-10.2.4-21.7.2-31.5 2.7h-2.1c-2.6-2.3-5.2-3-8.4-4.3M702 696.1l6.3-.7c-.1 1.5-.5 6.3-.3 7.5l1.5 1 .2 1.7.9.3c-5.5.3-4.4-1.6-7.2.8 1.9 5 7.4-.6 3.5 10.8l-1.2.8c-1.8-2.1-1-.9-1.2-4.5-.1-4.5.7-2.6-2.6-5.7-3.2-2.7-1.4-2-5.4-2.3-2.4 1.2-3.4 1.3-4.6 4.4-2.3-1-3.8-.4-6.3 0-2.1-2-1.7-2-2.9-4.9 3-1 6.8-2.7 9.9-4 4.3-.8 6.7-2 9.5-5.2"/><path fill="#c1956e" d="m702 696.1 6.3-.7c-.1 1.5-.5 6.3-.3 7.5-9 2.2-7.7-.3-15.4-1.6 4.3-.8 6.7-2 9.5-5.2"/><path fill="#eee8da" d="M726 700.9c.4.7 1.2 1.8 1.3 2.5-1.2 7-1.2 5.6 4 11.1-.9 2.2-.4 1.5-2.1 3.1-5.8-1.1-12.7-1-12.2-8.2 2.4-4.1 5.1-5.7 9-8.5"/><path fill="#ae6435" d="M691.9 710.2c1.2-3 2.3-3.2 4.6-4.4 4 .3 2.2-.4 5.4 2.3l-4.7 5.6-3.9 3.4-5.5 5.5c-1-1.8-1.9-2.8-3.2-4.4 4-3.3 4.8-3.6 7.3-8m30.9 12.1c3.2 1.3 5.8 2 8.4 4.3-1.8.6-7.7 2.6-9.2 2.8q-4.5.1-8.9 1l-3-4c4-2.1 8.3-3 12.7-4"/><path fill="#bf9e80" d="M693.3 717.1c2.2 4.5 2.6 3.6 2 7.7-.8.7-2.3 2.1-3.3 2.8-2.4-.4-3.4-1-5.6-2l1.4-3z"/><path fill="#c1956e" d="M701.9 708c3.3 3.2 2.5 1.3 2.6 5.8-.5 2.8-.4 3-1.9 5.4-2.8-.7-3.2-2.6-5.4-5.5z"/><path fill="#c6bbaf" d="M783.7 708q5.4-.7 10.8-1l5.5.2c1.7 2.2 1.2 1 1.4 4 3 1.4 3.3 2.2 5.3 4.8 1.8 2 1 1.5 3.4 2.7l.5.9c4.1 1.7 6.7 3 11.3 2 5-1 7.4 5 10.4 8-1 9.9-2.2 12.3-10.1 18.8l-1 .8c-2.9-1.2-7.4-3.3-10.3-3.7-5.6-3.2-6.7-3.8-11-9l-.7-.9c-3.4-1.3-2.2-1.6-4.8-.7-13.3 4.8-27.3 5-41 7-2 .3-3.8 2.4-5.1 3.9l-5.2-.8c6-10.8 24.4-10.5 24.8-17.8l-3.1-3.3 2.1-1.2c1-.4 3-2 4-2.6l-3.5-3c2.7-1 4.7-1 7.6-1.4l6.8 1.2v-7l.9.1z"/><path fill="#b77447" d="m810.1 718.7.5.9c4.1 1.7 6.7 3 11.3 2 5-1 7.4 5 10.4 8-1 10-2.2 12.3-10.1 18.8l-1 .8c-2.9-1.2-7.4-3.3-10.3-3.7-5.6-3.2-6.7-3.8-11-9l-.7-.9q-1.9-2.2-4.2-4.2c.5-3.2 5-8.6 7-11.1 4 2 4.6.5 8.1-1.6"/><path fill="#d0c2ae" d="M808.2 723.2c6.2 2.8 12.2 5.5 16.7 11l.4 2.2-1.8 1c-4.8-4-5.8-4.4-11.5-7-3.6.4-4.4-.2-6.5-2.7l.2-2.5z"/><path fill="#ae6435" d="M812 730.4c5.7 2.6 6.7 3 11.5 7-2.1 3.1-4.2 5-8.2 4.7-3.9-2.2-2.6-1-4.2-6.4l-.6-2.5z"/><path fill="#e8e3d9" d="M800 736.4c5.8-.1 5-3.5 10.5-3.2l.6 2.5-.2 9.8c-5.6-3.2-6.7-3.8-11-9"/><path fill="#bb8b64" d="M783.7 708q5.4-.7 10.8-1l5.5.2c1.7 2.2 1.2 1 1.4 4 3 1.4 3.3 2.2 5.3 4.8 1.8 2 1 1.5 3.4 2.7-3.5 2.1-4.1 3.7-8 1.6a34 34 0 0 0-7.1 11l-1.5-.3c-2.4-4.4-2-4.4-6.7-4l.3-1.8c-1.7-4.1-2-4.2-5.1-7.5l-.2-.8.1-7 .8.1z"/><path fill="#cba784" d="m781.9 709.8.8.2c1.8 4 .4 2.9 3.5 4.4l.7-.1 1.8 4c5-2 9.6-3.5 13.3 2a34 34 0 0 0-7 11l-1.5-.3c-2.4-4.4-2-4.4-6.7-4l.3-1.8c-1.7-4.1-2-4.2-5.1-7.5l-.2-.8z"/><path fill="#c6bbaf" d="m781.9 709.8.8.2c1.8 4 .4 2.9 3.5 4.4l.7-.1 1.8 4c2.8 3.1 2.3 1.5 2.7 4.8-2 1.8-1.8 1.7-4.3 2.1-1.7-4.1-2-4.2-5.1-7.5l-.2-.8z"/><path fill="#dfd6cb" d="M783.7 708q5.4-.7 10.8-1l5.5.2c1.7 2.2 1.2 1 1.4 4-5.4.3-9.8.1-14.5 3l-.7.2c-3-1.5-1.7-.4-3.5-4.4z"/><path fill="#cba784" d="m775 715.7 6.8 1.2.2.8-4 4c-3.4-1.5-3.6-1.4-7.2-1.6l-3.4-3c2.7-1 4.7-1 7.6-1.4"/><path fill="#bb8b64" d="M782 717.7c3.2 3.3 3.4 3.4 5 7.5l-.2 1.8c-5.1-.2-5.5-1.6-8.8-5.4z"/><path fill="#bf9e80" d="m770.8 675.1.6 2.6c-2.5 3.4-4.8 4.9-3 9.2 3.4-2.5 3.2-2.4 5.4-6.1l6.7 1.4v5.1c-3 2-6.3 3.6-7.6 6.7 2 2 3.4 2.3 5.9 3.4l-.2 1.2c-4.6 1-11.2.8-13.9 2.8l.6 2c4.1 1.3 12.8 0 17.4-.5l1 5-1 2.1-.8-.2v7.1l-7-1.2c-2.8.3-4.8.3-7.5 1.3-9.7.2-24.3-2.6-30.1-11.1-.3.8-1 2.1-1.5 2.9h-2a76 76 0 0 0-6.5-5.4c0-.7-1-1.8-1.4-2.5l1.4-1.4c.2-2.1-.2-4.4-.4-6.6 1-.3 3.4-1.4 4.5-1.9l2.1-1 1.3.6c2.8 1.3 3 1.8 5.3 1 0-5.4-.2-6.2 3.8-10l-.2-.5c6.5-1.5 4.2-.8 11.7 2.8 3.7 0 5.8-2 9-4.1z"/><path fill="#ccbba7" d="m770.8 675.1.6 2.6c-2.5 3.4-4.8 4.9-3 9.2-9.7 5.5-30.3 7.9-31.1 19-.3.8-1 2.1-1.5 2.9h-2a76 76 0 0 0-6.5-5.4c0-.7-1-1.8-1.4-2.5l1.4-1.4c.2-2.1-.2-4.4-.4-6.6 1-.3 3.4-1.4 4.5-1.9l2.1-1 1.3.6c2.8 1.3 3 1.8 5.3 1 0-5.4-.2-6.2 3.8-10l-.2-.5c6.5-1.5 4.2-.8 11.7 2.8 3.7 0 5.8-2 9-4.1z"/><path fill="#c1956e" d="m731.4 691 2.1-1 1.3.6c2.8 1.3 3 1.8 5.3 1l1 .8c-3 3-9.8 6-13.8 7 .2-2-.2-4.3-.4-6.5 1-.3 3.4-1.4 4.5-1.9"/><path fill="#cba784" d="M743.9 681.6c4.3.7 2.7-.3 5.4 2.4-.8 4.9-3.9 6.5-8.2 8.4l-1-.8c0-5.4-.2-6.2 3.8-10"/><path fill="#ccbba7" d="M775 715.7c-2.3-.9-1.7-.4-3.3-2l.7-1.6c4.2-2 4.7-1.9 9.5-2.3v7.1z"/><path fill="#dcb" d="m818.3 702.5 1.3 1c5.2-1.5 11.9 2.6 15.4 6.4-.5 3.8-.8 2 1.9 5.6.4 3 .7 1.7-1 4.4 2.4 1.8 2.7 1.7 4 4.2-4.2 2-4.6 2-7.6 5.5-3-3-5.3-9-10.4-8-4.6 1-7.2-.3-11.3-2l-.5-.9c-2.4-1.2-1.6-.6-3.4-2.7-2-2.6-2.3-3.4-5.3-4.8-.2-3 .3-1.8-1.4-4l-5.5-.3 2.1-2.4c7.3 2.6 15.7 3.8 21.7-2"/><path fill="#cba784" d="M806.7 716c1.7-2.8 1.4-3.7 4-4.3 6.7-1.7 19 4.9 25.3 8.2 2.3 1.8 2.6 1.7 3.9 4.2-4.2 2-4.6 2-7.6 5.5-3-3-5.3-9-10.4-8-4.6 1-7.2-.3-11.3-2l-.5-.9c-2.4-1.2-1.6-.6-3.4-2.7"/><path fill="#dfd6cb" d="m783.3 701.8-.7-2.4c5.4-5 29.3-.3 35.7 3-6 6-14.4 4.7-21.7 2.1l-2.1 2.4-10.8 1-1-5z"/><path fill="#cba784" d="M783.3 701.8a64 64 0 0 1 13.3 2.7l-2.1 2.4-10.8 1-1-5z"/><path fill="#c3ae99" d="m793 674.8 6.9 4c1.6 3 .4 1.8 4 3.1-1 2.2-1.4 2.6-1.7 4.8-9.1.4-12.8-1.2-21.7.6v-5.1c3.6-1.6 6.5-.6 10.6-.1l.2-1.5-1.7-1.8z"/><path fill="#d0c2ae" d="M603 834c.4 5.6.5 6.9-.3 12.4 1.8 2.3 2.1 3 4.6 4.4-4.8 5-6 5-9.3 11.3l-4-2.2c-6.5 18.5-16.2 69.6-14.8 87.5 1.3 16.9 2.6 32.5 2.8 51 2.6 7.2 13.5 32.2 12.6 37.5.8 3 1.5 6.5 2.7 9.4 2.2 14.7 18.5 35.4 26.3 48.2a107 107 0 0 0 24 27.4c2.7 2.2 5.7 3 8.7 4.7l-.7 1c1.9 6.7 7.6 9.2 8 13.9-1.4 2.4-3.6 5.2-3.5 7.4 6.8 1 10.4 5.8 12.7 12 8.5 6.3 10.5 6.5 20.6 9.7q7.6 4.8 14.8 10.1c1.8 1.4 7.8 6.1 9.5 6.7 4.2 3.6 10.3 8.5 14.2 12.2l-1.3 1.6c-4 .9-3.9.1-8.6-1.4l-3.3 3.6.7 1c-2.5 5 2.3 10-.3 16.2-15.1-8-29.6-19.8-43-29.8-51.7-38.6-68.6-68.8-91.8-125.8-.4-13.8-5.8-33.6-7.8-48-5.4-38-5.6-73.1 0-111.1.8-5.7-.3-19.9 1-23.7l1 1.1q2.5-8 3.7-16.2c1.3-9.4 0-12.4 9.3-15.9 2.4-2.2 2.5-4 3.2-7.3l1.7-4.7c4.8-1.6 3.1-.4 6.5-4.1"/><path fill="#c3ae99" d="M672.8 1159.9c-8.7-3.7-13.8-10.3-20.6-16.4a189 189 0 0 1-53.3-80c-2.7-7.9-8-19.6-4.3-27.6.8 3 1.5 6.5 2.7 9.4 2.2 14.7 18.5 35.4 26.3 48.2a107 107 0 0 0 24 27.4c2.7 2.2 5.7 3 8.7 4.7l-.7 1c1.9 6.7 7.6 9.2 8 13.9-1.4 2.4-3.6 5.2-3.5 7.4 6.8 1 10.4 5.8 12.7 12"/><path fill="#dcb" d="M708.2 1179.7c1.8 1.4 7.8 6.1 9.5 6.7 4.2 3.6 10.3 8.5 14.2 12.2l-1.3 1.6c-4 .9-3.9.1-8.6-1.4-4.6-2.7-14.3-10-19-13.4-2-1.8-1.4-1-2.3-3.4 2-2.3 3.6-1.7 7.5-2.3"/><path fill="#cba784" d="M703 1185.4c4.7 3.3 14.4 10.7 19 13.4l-3.3 3.6c-6.4-1.7-15.5-10.2-15.6-17"/><path fill="#dcb" d="M602.7 846.4c1.8 2.3 2.1 3 4.6 4.4-4.8 5-6 5-9.3 11.3l-4-2.2c3.4-5.7 4-8.5 8.7-13.5"/><path fill="#c3ae99" d="M759.3 650.6c10.5-3.1 47.7-4 55.6 3.5l-.2 1.6c-4.5 3-7.6 0-13 2-6.8.7-14 .7-19.7 4.6a17 17 0 0 1-9.7 3.3c-6.4 2.3-6 3.4-7.6 10-3.4-1.2-5.8-2-9.2-2.8l-1.5-3.3c-3-1.3-4-1.5-6.1-4 .7-5.2 11.6-8.8 13-13.5z"/><path fill="#b8a388" d="M766.4 655.8c4.7.3 3.8-.5 6.5 2.1.4 3.4 0 4.4-.6 7.7-4.4-.6-4 .1-6.8-2.3-.3-3.2.2-4.4.9-7.5"/><path fill="#c3ae99" d="m593.3 802 2.8.8 3.6 7.5-1.2 1c4.6 6.5-2.3 18-2.1 27l-1.7 4.6c-.7 3.2-.8 5.1-3.2 7.3-9.3 3.5-8 6.5-9.3 15.9q-1.2 8.3-3.7 16.2l-1-1c3.2-27.7 3.5-53.5 14.8-79z"/><path fill="#c1956e" d="M598.5 811.3c4.6 6.5-2.3 18-2.1 27l-1.7 4.6a47 47 0 0 1-4.2 5.4h-1.6c-5.4-8.3 4-30 9.6-37"/><path fill="#bf9e80" d="M669.4 708.4c2.5-1.6 11.3-9.4 16-12.8a90 90 0 0 1 58.3-14.5l.2.5c-4 3.8-3.8 4.6-3.8 10-2.4.8-2.5.3-5.3-1l-1.3-.6-2.1 1-4.5 2c-6.4-1.3-12.6 0-18.6 2.4l-6.2.7a15 15 0 0 1-9.5 5.2c-3 1.3-6.8 3-9.9 4q-6.6 2.8-13.3 6z"/><path fill="#cba784" d="M702 696.1c1.4-6 17.4-8.2 22.6-8.2 4.1 0 4 .4 6.8 3.1l-4.5 2c-6.4-1.3-12.6 0-18.6 2.4z"/><path fill="#bf9e80" d="m759.3 650.6 1.6 1.4c-1.4 4.7-12.3 8.3-13 13.4 2 2.6 3.1 2.8 6.1 4.1l1.5 3.3c-8.6.7-14-.4-23.8 1-9.4 1.6-14.2 7.5-20.5 5.6 1.3-2.7 3-6.8 5-8.8 2.8-2.8 4.5-2.6 5-6.1-6 .4-10 5.6-16 6 15-9.3 37.2-15 54.1-19.9"/><path fill="#c3ae99" d="M642.4 732.9c6.2-7.7 19-17.3 27-24.5v2.9c-2.7 2-5.8 3.6-6.5 6.3 2.3 1 2.5.7 5 .6-2 2.3-2.3 1.8-2.4 3.8-8 8.2-17 10.3-22.8 21l-1.3.8c0-5.1-.1-6 1-11"/><path fill="#ccbba7" d="M642.4 732.9c-1.1 4.9-1 5.8-1 10.9l-5.3 4.1c-1-2.6-1.3-3-2.8-5.5q4.3-4.9 9-9.5"/><path fill="#bb8b64" d="m882.7 1028.1 2.2-3.3c3-1 2.5-.4 6.1.7l1 .6c10.9 7.5 9.4 12 24 8.5l5.4-1.9c3.4-1.7 5.4-3.3 8.5-5.6 3.7 4.6 1 4.8 4.2 7.7 6.5 2.6 5.8 6.5 7.5 13 0 3.7 0 5.8.7 9.4l-.5 1-3.6 1c-1 2.2-1 1.4-1 3.5 2.3 4 2 5 5.2 6.4l3-.5 5.3-.6c-2.3 5-2.5 6.1-6.8 9.1l-1 5 2.9 3.4 1.6-1c4.7 5.2 4.8-.8 7 4.4l-.3 3.7-.8.2c-5.7 18-18.4 25.6-14.6 48.5l3.1 6.6-1 2.2-3.2 1.2c-2.2 2-12 12-14 12.6a44 44 0 0 1-25.4 13.9c-10 6.3-23.7 3-35 8.7l-1.6.6c-14.2 0-29.9-1.4-43.7-5-7-1.9-18.9-9.1-26-9.2l-2-3.7c-1-1.7-2-4.1-3-6-5-6-14.3-12.7-20.8-17.5a51 51 0 0 1-19.3-10.8c2.4-3.4 1-4.4 0-8.3l2.9 2.2c.7-2.9.2-3 1.8-4.3l1.5 2.7 3.2.3c2.9-1.3 15.7-17.8 21.1-22.1 14.8-11.7 35-20.1 48.6-32.5l-9-.2c3.8-1 3.9-1.1 7.4-3l-.8-3.2 8.1-1.8-6.3.1c-.9-.2-.4-.1-1.6 0h-1l-1-2h-.8l.2 1.5-.9-.5v-1l4.8-1.2c-5.3-.5-8.8.8-15.3-.2l-.7-1.3 2.6-2.6-3-.7 1-1.6c23.5-3.9 55.1-12.3 71.9-30.2z"/><path fill="url(#Gradient9)" d="m882.7 1028.1 2.2-3.3c3-1 2.5-.4 6.1.7l1 .6c10.9 7.5 9.4 12 24 8.5l5.4-1.9c3.4-1.7 5.4-3.3 8.5-5.6 3.7 4.6 1 4.8 4.2 7.7 6.5 2.6 5.8 6.5 7.5 13 0 3.7 0 5.8.7 9.4l-.5 1-3.6 1c-1 2.2-1 1.4-1 3.5l-2 3c-7.6 4.3-2.8 4.6-7.4 7.4-7.8 2.1-23 14.8-32.2 19.5-21.7 14.4-59.2 33-84.6 38.6-13.3-1.8-41.3 5-54.8-3.7 2.9-1.3 15.7-17.8 21.1-22.1 14.8-11.7 35-20.1 48.6-32.5l-9-.2c3.8-1 3.9-1.1 7.4-3l-.8-3.2 8.1-1.8-6.3.1c-.9-.2-.4-.1-1.6 0h-1l-1-2h-.8l.2 1.5-.9-.5v-1l4.8-1.2c-5.3-.5-8.8.8-15.3-.2l-.7-1.2 2.6-2.6-3-.7 1-1.7c23.5-3.8 55.1-12.3 71.9-30.2z"/><path fill="#b6815a" d="m881.5 1025 1.2 3.1c-1 3.2-1.8 3.9-1 6.7l4.6-.6c-1.4 10-50.3 34-60.4 38.7l-9-.2c3.8-1 3.9-1.1 7.4-3l-.8-3.2 8.1-1.8-6.3.1c-.9-.2-.4-.1-1.6 0h-1l-1-2h-.8l.2 1.5-.9-.5v-1l4.8-1.2c-5.3-.5-8.8.8-15.3-.2l-.7-1.2 2.6-2.6-3-.7 1-1.7c23.5-3.8 55.1-12.3 71.9-30.2"/><path fill="#dfd6cb" d="M929.9 1027.1c3.7 4.6 1 4.8 4.2 7.7 6.5 2.6 5.8 6.5 7.5 13 0 3.7 0 5.8.7 9.4l-.5 1-3.6 1c-1 2.2-1 1.4-1 3.5l-2 3c-7.6 4.3-2.8 4.6-7.4 7.4-7.8 2.1-23 14.8-32.2 19.5 3-7 25.4-18.3 31-23.2 1.2-1 .8-32.5 2.8-38.4-1.8-.8-6 4.6-13.4 3.6l5.4-1.9c3.4-1.7 5.4-3.3 8.5-5.6"/><path fill="#bb8b64" d="M746.8 1134.9c2.4-3.4 1-4.4 0-8.3l2.9 2.2c.7-2.8.2-3 1.8-4.3l1.5 2.7 3.2.3c13.5 8.8 41.5 1.9 54.8 3.7-6.6 3.8-25.9 1.9-32.4 6.7l.3 1.7c4.3 2 5.3 2.5 10 3.5l5.9-.5a38 38 0 0 1 10 6.9c5.2 2.9 7 2.4 12.8 3-3.6.3-7.4.2-10.5 2 3.2.6 6.9 1.6 10 1.7 3.8-.2 5 .3 8.7 1.2l1.1 1.2c1.4 4 1.2 4 4 7l.3 3.2c2 1 34.3 5.8 37.8 6 14.3.7 35.6-2.2 48.2-9.8 1.6-1 4.1-4.3 6-5.9l1.1-1c2.7-2.3 3.6-2.3 4.5-5-1.6-4-1.6-2.2-.7-6l1.7-1c4 1.4 2.2.3 5 3.6v1.7c-4.1 3.3-7.5 7.3-11 11.1l-.1 1.4a44 44 0 0 1-25.5 13.9c-10 6.3-23.7 3-35 8.7l-1.6.6c-14.2 0-29.9-1.4-43.7-5-7-1.9-18.9-9.1-26-9.2l-2-3.7c-1-1.7-2-4.1-3-6-5-6-14.3-12.7-20.8-17.5a51 51 0 0 1-19.3-10.8"/><path fill="#cba784" d="M787 1163.3c8-1.4 18.5 6.5 27.1 8.6 27.4 6.8 56.4 12.5 84.1 5.9-10 6.3-23.7 3-35 8.7l-1.6.6c-14.2 0-29.9-1.4-43.7-5-7-1.9-18.9-9.1-26-9.2l-2-3.7c-1-1.7-2-4.1-3-6"/><path fill="#bf9e80" d="M746.8 1134.9c2.4-3.4 1-4.4 0-8.3l2.9 2.2c.7-2.8.2-3 1.8-4.3l1.5 2.7 3.2.3c13.5 8.8 41.5 1.9 54.8 3.7-6.6 3.8-25.9 1.9-32.4 6.7l.3 1.7c4.3 2 5.3 2.5 10 3.5-2.4.8-4.4 1.2-6.3 2.6l-2.5.5c-5.7-2.6-19.4-16-26-16 4 7 8.7 8 12 15.5a51 51 0 0 1-19.3-10.8"/><path fill="#b09278" d="m788.8 1143.1 6-.6a41 41 0 0 1 10 7c5.2 2.9 7 2.4 12.8 3-3.6.3-7.4.2-10.5 2 3.2.6 6.9 1.6 10 1.7l1 1.5c-2.4 2-3.3 2.3-4.5 5.2-7.4 1.1-25.7-7.5-30.4-13.7-1.5-2-.2-1.3-3.1-3l2.5-.5c1.9-1.5 3.9-1.9 6.2-2.6"/><path fill="#cba784" d="m788.8 1143.1 6-.6a41 41 0 0 1 10 7c5.2 2.9 7 2.4 12.8 3-3.6.3-7.4.2-10.5 2-6.6-1.6-14.5-6.6-24.5-8.8 1.9-1.5 3.9-1.9 6.2-2.6"/><path fill="#c3ae99" d="M817.2 1156.2c3.7-.2 5 .3 8.6 1.2l1.1 1.2c1.4 4 1.2 4 4 7l.3 3.2q-8.9-2.7-17.6-5.8c1.2-3 2.1-3.4 4.6-5.3z"/><path fill="#bf9e80" d="M937.3 1062.7c2.2 4 1.8 5 5 6.3l3.2-.4 5.2-.6c-2.3 5-2.5 6.1-6.8 9.1l-1 5c-11.8 9.3-13.8 5.2-22.1 10.2-25.5 15.3-39 33.6-67.8 44.8-10.6 4.1-43.3 9.9-48.2 12.4a40 40 0 0 0-10-7l-6 .6c-4.6-1-5.6-1.4-9.9-3.5l-.3-1.7c6.5-4.8 25.8-2.9 32.4-6.7 25.4-5.6 62.9-24.2 84.6-38.6 9.2-4.7 24.4-17.4 32.2-19.5 4.6-2.8-.2-3.1 7.5-7.5z"/><path fill="#b77447" d="M895.6 1092.6c9.2-4.7 24.4-17.4 32.2-19.5.1 2.5.8 3.6-1.3 5.3-25.1 20.4-59.4 44.8-89.4 56-13.6 5.1-30 5.4-42.3 8.1l-6 .6c-4.6-1-5.6-1.4-9.9-3.5l-.3-1.7c6.5-4.8 25.8-2.9 32.4-6.7 25.4-5.6 62.9-24.2 84.6-38.6"/><path fill="#c6bbaf" d="M937.3 1062.7c2.2 4 1.8 5 5 6.3l3.2-.4 5.2-.6c-2.3 5-2.5 6.1-6.8 9.1-5.8-1-6.3-1.1-12 1.2.8-6.9 6.1-3.7 3.4-12.7z"/><path fill="#b8a388" d="M919.7 1141.2c2.2-2.2 2-2.2 5-3.1 3 1 3.4 1.3 3.3 5-2.5 3.6-2.4 3.4-3.2 7.7l2.2 1.6c-.3 2.6-1.2 3.4-2.7 5.7l-1.1 1c-1.9 1.6-4.4 5-6 5.9-12.6 7.6-33.9 10.5-48.2 9.7-3.5-.2-35.7-5-37.8-6l-.3-3a63 63 0 0 0 23.1-2.3c.3.7 1.9 2.2 2.4 2.8 4 1.2 11.3 2.7 13.4-1.6l-1.4-2.6c1.3-2.5 1.3-2.3 1.6-5.1 3.6 2.5 2.1 1.8 7 2l12.2.2c6.8-.7 21-11.3 26.7-15.6z"/><path fill="#b77447" d="M919.7 1141.2c2.2-2.2 2-2.2 5-3.1 3 1 3.4 1.3 3.3 5-2.5 3.6-2.4 3.4-3.2 7.7l-.6.2c-9.5 11-24.5 18.6-39 11.8l-.5-1.6c2.4-1.9 1.5-1.3 4.5-2 6.8-.8 21-11.4 26.7-15.7z"/><path fill="#b6815a" d="M919.7 1141.2c2.2-2.2 2-2.2 5-3.1 3 1 3.4 1.3 3.3 5-2.5 3.6-2.4 3.4-3.2 7.7l-.6.2-1-4-1.4-.7a18 18 0 0 1-5.1 3h1.7l-1.4.3-.4-1.3c2.2-1.6 2.7-2.3 4.5-4.3z"/><path fill="#c1956e" d="m945.8 1085.5 1.6-1c4.7 5.2 4.8-.8 7 4.4l-.3 3.7-.8.2c-5.7 18-18.4 25.6-14.6 48.5l3.1 6.6-1 2.2-3.2 1.2c-2.2 2-12 12-14 12.6l.2-1.4c3.5-3.8 6.9-7.8 11-11v-1.8c-2.8-3.3-1-2.2-5-3.6l-1.7 1c-.9 3.8-1 2 .7 6-1 2.7-1.8 2.7-4.5 5 1.5-2.3 2.4-3 2.7-5.7l-2.2-1.6c.8-4.3.7-4.1 3.2-7.7 0-3.7-.3-4-3.3-5-3 1-2.8.8-5 3.1l-3.8 2.3c-3.3 1.2-3.6 2-6.4 1.3l1.2-7.6c3-4 12.2-9 16.5-11.4 2.1-3.9 2-2 1.7-5.6l-3.4-2.2c-2.8.5-2.4.3-5.3 0 2.4-4.6 21.5-28.2 25.6-32.5"/><path fill="#bf9e80" d="m945.8 1085.5 1.6-1c4.7 5.2 4.8-.8 7 4.4l-.3 3.7-.8.2-1.7-3.6c-6.4-.7-11.2 13.4-15.4 18-2.2 2.3-9.9 8.7-10.7 10.8-2.8.5-2.4.3-5.3 0 2.4-4.6 21.5-28.2 25.6-32.5"/><path fill="#c3ae99" d="M927.2 1125.8c-.7 7.7 6.5 11.4 4.5 18.5l-1.7.3-2-1.5c0-3.7-.3-4-3.3-5-3 1-2.8.9-5 3.1l-3.8 2.3c-3.3 1.2-3.6 2-6.4 1.3l1.2-7.6c3-4 12.2-9 16.5-11.4"/><path fill="#b6815a" d="m938.7 1141.3 3.1 6.6-1 2.2-3.2 1.2c-2-2.8-2.4-3.1-3.4-6.4 1.2-2.8.8-1.9 4.5-3.6"/><path fill="#ccbba7" d="m817.6 1152.6 8.5-2.8c6.8 3.9 8.2 3.4 16.2 3 5 4 17.1 2.5 23.2 7.9l2.9 1.3 1.4 2.6c-2.1 4.3-9.5 2.8-13.4 1.6-.5-.6-2-2.1-2.4-2.8a63 63 0 0 1-23 2.3c-3-3.2-2.7-3-4-7l-1.2-1.3c-3.6-.9-4.9-1.4-8.6-1.2-3.2-.1-6.9-1-10-1.8 3-1.7 6.8-1.6 10.4-1.8"/><path fill="#b09278" d="m827 1158.6 1.2.3c9.8 1.6 20.4-.8 25.8 4.5a63 63 0 0 1-23 2.3c-3-3.1-2.7-3-4-7"/><path fill="#dfd6cb" d="M826.1 1149.8a127 127 0 0 0 41.5-13.4c6-3 14.8-7.6 21-9l-2.3 4.4c-12.7 13.3-26.5 17.9-44 21-8 .4-9.4.9-16.2-3"/><path fill="#bf9e80" d="m910.7 1137.2-1.2 7.6c2.8.7 3.1-.1 6.4-1.3-5.8 4.3-19.9 15-26.7 15.6l-12.2-.2c-4.9-.2-3.4.5-7-2 2.9-2.3 7.3-4 10.8-5.6l2.6-1.6 1.8.6a83 83 0 0 0 25.5-13.1"/><path fill="#d0c2ae" d="M880.8 1151.3c3.3.6 2-.2 3.9 2.3-1.1 3.6-.2 2-3.2 4.7l-4.5.6c-4.9-.2-3.4.5-7-2 2.9-2.3 7.3-4 10.8-5.6"/><path fill="#c6bbaf" d="M920.2 1118c2.9.3 2.5.5 5.3 0l3.4 2.2c.3 3.5.4 1.7-1.7 5.6-4.3 2.4-13.5 7.5-16.5 11.4a83 83 0 0 1-25.5 13.1l-1.8-.6c12.9-12.3 22.5-10.3 36.8-31.7"/><path fill="#bf9e80" d="M898.8 1122c.3-3.7-.4-2.2 1.8-4.8h2.6c4.4 5.6-6.2 18.6-12.1 19.1l-1.8-1.4c-1.3-.8-2-1.9-3-3l2.3-4.4c4.5-3.4 4.4-4.3 10.2-5.4"/><path fill="#8d4824" d="M888.6 1127.5c4.5-3.4 4.4-4.3 10.2-5.4-2 6-5 8.3-9.5 12.8-1.3-.8-2-1.9-3-3z"/><path fill="url(#Gradient8)" d="M684.6 718.2c1.3 1.6 2.2 2.6 3.2 4.4l-1.4 3c2.2 1 3.2 1.6 5.6 2 2.7 1.2 2.5 1.4 4.3 3.9 3.9-2.3 9.4-3.7 13.8-5.1l3 4q4.4-.9 8.9-1c1.5-.2 7.4-2.2 9.2-2.8h2.1l3 2.6c-8.3 4.1-17 14.9-24.2 21.5-6.3 5.8-16.2 11.8-21.4 17.6-22 20.9-40.8 46.6-48.4 76.4-.5 11.8-5.9 25-6.8 37-1 7-.2 14.3-1 21.2a265 265 0 0 0-1.2 54.4c1.2 13.7 8.6 22.4 3 37 .2-.4 4.9 28.3 5.6 30.7 3 9.6 5.6 16 6.6 26 .3 6.6.5 11.3-6.8 13-4.2-1-6.9-1.8-8.4-6.2 2.7-1.8 1.9-1.2 6-.7-13.6-6-26.7-25-34.6-37.2-2.4-3.7-3.6-9-6.7-11l-2 .7a36 36 0 0 0-2.4 6.4c0 5 12.4 23.2 3.7 29.3q-1.7-4.5-2.7-9.4c1-5.3-10-30.3-12.6-37.5-.2-18.5-1.5-34.1-2.8-51-1.4-17.9 8.3-69 14.9-87.5l4 2.2c3.2-6.3 4.4-6.4 9.2-11.3-2.5-1.4-2.8-2.1-4.6-4.4.8-5.5.7-6.8.2-12.3-3.4 3.7-1.7 2.5-6.5 4.1-.2-8.8 6.7-20.4 2.1-26.9l1.2-1-3.6-7.5-2.8-.8-1 .2c.5-5.9 16.2-29.3 20.4-33.6l.7-.8 1.2-1.3c6.3-7.1 13.6-20 18.7-24 1.5 2.3 1.9 2.8 2.9 5.4l5.2-4.1 1.3-.9c5.8-10.6 14.8-12.7 22.8-20.9l3.6 1.2.6 1.6-2 3.2c1.3 3 1.3 2 1 4.9l10-9z"/><path fill="#ccbba7" d="M593.5 942.4c5.3 7 14.3 36.5 20.4 36.7 8.2-15.1 7.5-34.2 10-50.8q2.5-17.1 5.4-34.1v1.9c2.7-9.6 8.4-47.5 13-51.4-.5 11.8-5.9 25-6.8 37-1 7-.2 14.3-1 21.2a265 265 0 0 0-1.2 54.4c1.2 13.7 8.6 22.4 3 37 .2-.4 4.9 28.3 5.6 30.7 3 9.6 5.6 16 6.6 26 .3 6.7.5 11.3-6.8 13-4.2-1-6.9-1.8-8.4-6.2 2.7-1.8 1.9-1.2 6-.7-13.6-6-26.7-25-34.6-37.2-2.4-3.7-3.6-9-6.7-11l-2 .7a36 36 0 0 0-2.4 6.4l-1-7c-.5-4.1-1-7.7 1.6-11-1.6-4.4-1.5-2.3-.8-6.7l1.7-1c5 1.7 8 11.3 12 17l2-3.3-7.2-14.2c-3.2-6.4-2.9-7-10-9.1-.9-2 0-30.5-.2-35.7z"/><path fill="#b6815a" d="M621.7 1001.8c-.3-1.7 3.5-42.5 4-43.9l1 .4c1.9 9 6.2 24 3.8 32.3 2.7 13.7 12.1 55.5 8.7 66.5-13.5-6-26.6-25-34.5-37.2-2.4-3.7-3.6-9-6.7-11l-2 .7a36 36 0 0 0-2.4 6.5l-1-7.1c-.5-4.1-1-7.7 1.6-11-1.6-4.4-1.5-2.3-.8-6.7l1.7-1c5 1.7 8 11.3 12 17l2-3.3c3.2 3 4.4 3.9 8.4 4 3.3-2.4 2.3-1.8 4.2-6.2"/><path fill="#dfd6cb" d="M594.2 998c-1.6-4.4-1.5-2.3-.8-6.7l1.7-1c5 1.7 8 11.3 12 17l2-3.3c3.2 3 4.4 3.9 8.4 4 3.3-2.4 2.3-1.8 4.2-6.2l1.7.9c1.7 5.5 1.6 8.3 1.4 14.1l2.2 3.2c1.3-.9.8-.3 1.3-1.8v1.4c1.3 2 1.1 1.9 1.7 4 .4 5 1.2 8.2-1.4 12-12.8 1.3-23.3-32-34.4-37.6"/><path fill="#b6815a" d="m621.7 1001.8 1.7.9c1.7 5.5 1.6 8.3 1.4 14.1-.5 2.5-.3 2.6-1.8 4.6-7 .4-12.6-8.7-15.9-14l2-3.4c3.2 3 4.4 3.9 8.4 4 3.3-2.4 2.3-1.8 4.2-6.2"/><path fill="#cba784" d="M621.7 1001.8c-.3-1.7 3.5-42.5 4-43.9l1 .4c1.9 9 6.2 24 3.8 32.3-2.5-7-2-16.5-4-23.7-.3 7.4-.7 15.9-.4 23.2 1.4.1.6.2 2.5-.7.1 10.6 1.5 25.1 1.4 34.2-.6-2.1-.4-2-1.7-4v-1.4c-.5 1.5 0 .9-1.3 1.8l-2.2-3.2c.2-5.8.3-8.6-1.4-14.1z"/><path fill="#eee8da" d="m633.4 821.2 4.7-4.4.6.2c.3 4.8-22 46.6-27.2 52.2-5 5.4-18.4 10-18.9 16.3 2.2.8 10.2-.4 15.7.4l1-.9c13.6-11.6 13-25.4 20-33.7 0 2.7-5.9 42-6.7 45.5l-6.6 14 5.3 1.1c-2 7-2.8 10.5-5.7 17-1.4 2.4-1.3 2.7-3.6 3.6-3-1-5.4-5.4-7.4-8.2l-.7 1.2c-1.7-3.1-5.7-12-8.2-13.2-5.2 5.3-7.3 24.7-6.4 32l1.1.7c.6-2 .4-1 .6-3l3.6-.3-.3.5-.8.2-1.8 2.6c.2 5.2-.7 33.8.2 35.7 7.1 2.2 6.8 2.7 10 9.1l7.3 14.2-2 3.3c-4.2-5.7-7.2-15.3-12.1-17l-1.7 1c-.7 4.4-.8 2.3.8 6.7-2.6 3.3-2 6.9-1.6 11l1 7c0 5 12.4 23.2 3.7 29.3q-1.7-4.5-2.7-9.4c1-5.3-10-30.3-12.6-37.5-.2-18.5-1.5-34.1-2.8-51-1.4-17.9 8.3-69 14.9-87.5l4 2.2c.3 2.5-.2 1.4 1.3 3.3h2.5c12.8-7.4 24.3-30.8 31.5-44.2"/><path fill="#cba784" d="M591.7 945c.2 5.2-.7 33.8.2 35.7 7.1 2.2 6.8 2.7 10 9.1l7.3 14.2-2 3.4c-4.2-5.8-7.2-15.4-12.1-17l-1.7 1c-.7 4.3-.8 2.2.8 6.6-2.6 3.3-2 6.9-1.6 11l1 7c0 5 12.4 23.2 3.7 29.3q-1.7-4.5-2.7-9.4c1-5.3-10-30.3-12.6-37.5 3.7 2.7 6.5 18.3 10.1 23.1l.5-3c-5.5-9.8-1.1-59.3-.9-73.5m12.9-20.7c-2.1-5-3.9-10-7.2-14.3l-7.5 1.3-1.2-1.2c.4-3 3.6-8.1 6.5-9.4 5.4 1.6 10.3 11.5 15.4 17.8l5.4-7.7 5.3 1.1c-2 7-2.8 10.5-5.7 17-1.4 2.4-1.3 2.6-3.6 3.6-3-1-5.4-5.4-7.4-8.2m28.7-181.9c1.5 2.4 1.9 3 2.9 5.5l-.3 3c2.9 2.5 4.4 4.7 4.9 8.7l1.4 1.5c-2.3 3.6-6 8.2-6.5 12.2l.7 1.3c-1.4 4.2-3.5 8.8-4.5 12.5 4.5 2 3 4 6.5 7l-.4 1.6 3.5 2.5c-10.2 17.1-21.4 37.9-34.2 52.6-2.5-1.4-2.8-2.1-4.6-4.4.8-5.5.7-6.8.2-12.3-3.4 3.7-1.7 2.5-6.5 4.1-.2-8.8 6.7-20.4 2.1-26.9l1.2-1-3.6-7.5-2.8-.8-1 .2c.5-5.9 16.2-29.3 20.4-33.6l.7-.8 1.2-1.3c6.3-7.1 13.6-20 18.7-24"/><path fill="#c1956e" d="M633.3 742.4c1.5 2.4 1.9 3 2.9 5.5l-.3 3c2.9 2.5 4.4 4.7 4.9 8.7l1.4 1.5c-2.3 3.6-6 8.2-6.5 12.2l.7 1.3c-1.4 4.2-3.5 8.8-4.5 12.5l-2.4-1.1c-3.3-7.3.9-12.4-.9-15.3l-3.4 2.8-3.5-2.8-2.8-.2c-.5-2.3-.5-3.8-.6-6.2-2 2-2.9 3-5.6 4.3l.7-.8 1.2-1.3c6.3-7.1 13.6-20 18.7-24"/><path fill="#d0c2ae" d="M612.7 768.6c2.7-1.3 3.6-2.2 5.6-4.3.1 2.4.1 4 .6 6.2l2.8.2 3.5 2.8c-1.7 4-1.5 4-4.8 6.6-2.8 1.7-3.1 2-5.5 4-1.5 2.7-2.6 4.4-3.6 7.3-6.3 2-8 5-13.2 9.4-3.6.2-2.2-.5-4.8 1.2l-1 .2c.5-5.9 16.2-29.3 20.4-33.6"/><path fill="#e8e3d9" d="M598.1 800.8c-2.8-6.7 6.5-14.9 11.7-18.1 3.6-.4 1.9-.7 5.1 1.5-1.5 2.6-2.6 4.3-3.6 7.2-6.3 2-8 5-13.2 9.4"/><path fill="#dcb" d="m621.7 770.7 3.5 2.8c-1.7 4-1.5 4-4.8 6.6-2.2-1.5-2-1.8-3.1-4.3 1.1-3.4 1-2.4 4.4-5.1"/><path fill="url(#Gradient7)" d="m638 795.7 3.5 2.5c-10.2 17.1-21.4 37.9-34.2 52.6-2.5-1.4-2.8-2.1-4.6-4.4.8-5.5.7-6.8.2-12.3l1.6-5c1.3 2.4 1.1 3 .9 5.7 1.3 2.7 1.2 2.6 3.3 4.7h2c2.1-3 2.3-3.2 3.7-6.5 6.5-8.9 10.6-17.6 16.9-26 1.8-4 4.3-6.2 6.7-11.3"/><path fill="#cba784" d="M624.9 802c2.4 2.3 3.8 4.6 6.4 5-6.3 8.4-10.4 17.1-17 26-2.4.6-1.4.5-3.7 3.4-.5-3.8 5.4-23 8.4-25.5l1.3-.2z"/><path fill="#ccbba7" d="m615.4 804.2 3-.5 1.2 1.2c0 2.8 0 3.3-.6 6-3 2.5-9 21.7-8.4 25.5 2.3-2.9 1.3-2.8 3.8-3.4a25 25 0 0 1-3.7 6.5h-2c-2-2-2-2-3.3-4.7.2-2.6.4-3.3-1-5.6 2-5.9 8.3-19 11-25"/><path fill="#bf9e80" d="M615.4 804.2c.2-5 3.4-17.1 7.6-19.9l1.5 1.6c1.8 7.3 1.3 8.5.4 16l-4.6 8.8-1.3.2c.7-2.7.6-3.2.6-6l-1.2-1.2z"/><path fill="#c3ae99" d="M611.3 791.4c-4.3 8.6-4.3 13.4-11.6 19l-3.6-7.6-2.8-.8c2.6-1.7 1.2-1 4.8-1.2 5.1-4.4 7-7.3 13.2-9.4"/><path fill="#8d4824" d="M684.6 718.2c1.3 1.6 2.2 2.6 3.2 4.4l-1.4 3c2.2 1 3.2 1.6 5.6 2 2.7 1.2 2.5 1.4 4.3 3.9 3.9-2.3 9.4-3.7 13.8-5.1l3 4c-8.8 3.1-25 12.3-32.3 18.4-2 2-4.5 5-6.7 6.5q-5.4 5.2-10.4 10.7a84 84 0 0 0-14 13.2l-5.6 5.6-5.7 9.2c-3.5-2.8-2-5-6.5-7 1-3.6 3.1-8.2 4.5-12.4l-.7-1.3c.5-4 4.2-8.6 6.5-12.2l-1.4-1.5c-.5-4-2-6.2-4.9-8.7l.3-3 5.2-4.1 1.3-.9c5.8-10.6 14.8-12.7 22.8-20.9l3.6 1.2.6 1.6-2 3.2c1.3 3 1.3 2 1 4.9l10-9z"/><path fill="#c3ae99" d="m665.5 722 3.6 1.2.6 1.6-2 3.2c1.3 3 1.3 2 1 4.9-5.7 7.7-11.6 17-17.1 24.2l-15.2 17.5-.7-1.3c.5-4 4.2-8.6 6.5-12.2l-1.4-1.5c-.5-4-2-6.2-4.9-8.7l.3-3 5.2-4.1 1.3-.9c5.8-10.6 14.8-12.7 22.8-20.9"/><path fill="#cba784" d="m665.5 722 3.6 1.2.6 1.6-2 3.2c-8.2 6.1-12.6 16.3-16.9 19.2-2.3-5.1-3.3-4.4-8-4.3 5.7-10.6 14.7-12.7 22.7-20.9"/><path fill="#8d4824" d="M642.7 743c4.8-.2 5.8-1 8.1 4.2l-8.6 13.9-1.4-1.5c-.5-4-2-6.2-4.9-8.7l.3-3 5.2-4.1z"/><path fill="#bb8b64" d="M651.6 757.1c-1.8 5.5-9.2 23.8-9.5 26.2l2 1.5-5.7 9.2c-3.5-2.8-2-5-6.5-7 1-3.6 3.1-8.2 4.5-12.4z"/><path fill="#985835" d="M674 755.3c-2.6.2-4 .3-6.7.2-2.5-2.2-1.7-.8-2.4-4.2 1.2-3.5 1.3-3.4 4.1-5.5l1.1.4c3.3 2.5 6.5 2.2 10.7 2.6-2 2-4.5 5-6.7 6.5"/><path fill="#ae6435" d="M681.1 732.2c2-4 1.9-3.8 5.3-6.6 2.2 1 3.2 1.6 5.6 2 2.7 1.2 2.5 1.4 4.3 3.9-4.5 1.7-7.6 3.5-12.2 3.1-1.8-1.2-1.6-.9-3-2.4"/><path fill="#985835" d="M684.6 718.2c1.3 1.6 2.2 2.6 3.2 4.4l-1.4 3c-3.4 2.8-3.3 2.6-5.3 6.6l-.3-1.2c0-3.4-.6-4-2-7z"/><path fill="url(#Gradient6)" d="M663.7 766c-.9 5.3-5.4 5.1-6 10 2.5 1.7 1.2 1 4.6 1 4.1-3.8 6.3-6.6 11.6-8.7-12.6 13.9-33.5 36-40.5 53-7.2 13.3-18.7 36.7-31.5 44l-2.5.2c-1.5-2-1-1-1.4-3.4 3.3-6.3 4.5-6.4 9.3-11.3 12.8-14.7 24-35.5 34.2-52.6l-3.5-2.5.4-1.7 5.7-9.2 5.6-5.6a84 84 0 0 1 14-13.2"/><path fill="#bf9e80" d="M649.7 779.2c1 2 1.5 1.9.9 3.6a117 117 0 0 1-9 15.4l-3.6-2.5.4-1.7 5.7-9.2z"/><path fill="#9d7559" d="M713.1 730.5q4.4-1 8.9-1c-20.7 16.4-27.3 18-48.1 38.8-5.3 2.1-7.5 5-11.6 8.8-3.4 0-2 .6-4.5-1.2.5-4.8 5-4.6 5.8-9.9q5.2-5.5 10.5-10.7c2.2-1.4 4.8-4.5 6.7-6.5 7.4-6.1 23.5-15.3 32.3-18.3"/><path fill="#d0c2ae" d="M622.6 896.8c2.2 4.6 2.1 5 .4 10.3l-1.7 4.8-5.3-1.1z"/><path fill="#c6bbaf" d="M593.6 1016c.9-2.8 1.1-3.6 2.5-6.4l2-.7c3 2 4.2 7.3 6.6 11 7.9 12.1 21 31.2 34.5 37.2-4-.5-3.2-1-6 .7 1.6 4.4 4.3 5.2 8.5 6.2 7.3-1.7 7.1-6.3 6.8-13 4.7 12 8.5 18.2 3.4 30.3l2.6-1.7c2 4.2 3.5 5.1 2.9 9.1q-1.8 1.6-3.6 2.8l4.5 3.7 4.4 4.2c5.7 6.5 12 14.2 18 20.4l6.2-.4c3.3 1.8 8.5 4.7 12 6v.4c7.6 1.5 9.4 2.8 15.6-2.7l1.9 3.1a77 77 0 0 1-9.3 9l1.3 1.3-1.7 3.3c-2.3 0-2.2-.1-4.4-.9l1.7 2-1.2 3.9c5.1 4.6 9.6 6.8 14 10.5-1.5 1-3.4 2.1-4.8 3.2-5.4-2.8-18.5-14.2-23.7-18.7-3 1.8-3 1.2-4.4 3.8-6.5-4-20.8-18.2-28.3-17l.7-1c-3-1.7-6-2.5-8.7-4.7a107 107 0 0 1-24-27.4c-7.8-12.8-24.1-33.4-26.3-48.2 8.7-6-3.6-24.3-3.7-29.2"/><path fill="url(#Gradient5)" d="M631.2 1077.2c5.3 2.6 17.6 10.5 22.6 14.3l4.5 3.7 4.4 4.2c5.7 6.5 12 14.2 18 20.4l6.2-.4c3.3 1.8 8.5 4.7 12 6v.4c7.6 1.5 9.4 2.8 15.6-2.7l1.9 3.1a77 77 0 0 1-9.3 9l1.3 1.3-1.7 3.3c-2.3 0-2.2-.1-4.4-.8l1.7 1.9-1.2 3.9c5.1 4.6 9.6 6.8 14 10.5-1.5 1-3.4 2.1-4.8 3.2-5.4-2.8-18.5-14.2-23.7-18.7-3 1.8-3 1.2-4.4 3.8-6.5-4-20.8-18.2-28.3-17l.7-1c4.3-1.3 2.5 0 5.2-4.1a153 153 0 0 1-17.9-24.6l-1.7-.5a11 11 0 0 0-3.8 3.4c-2.6-1.3-1.7-.3-2.9-2.9l3.9-6.4-.6-1.9c-8.4-3.8-5.8-3-7.3-11.4"/><path fill="url(#Gradient4)" d="m643.6 1097 1.8-1.5a745 745 0 0 0 57.4 49.3c5.1 4.6 9.6 6.8 14 10.5-1.5 1-3.5 2.1-4.8 3.2-5.4-2.8-18.5-14.2-23.7-18.7-3 1.8-3 1.2-4.4 3.8-6.5-4-20.8-18.2-28.3-17l.7-1c4.3-1.3 2.5 0 5.2-4.1a153 153 0 0 1-17.9-24.6"/><path fill="#b09278" d="M661.5 1121.5c6.4-2.6 22.3 13.6 26.8 18.3-3 1.8-3 1.2-4.4 3.8-6.5-4-20.8-18.2-28.3-17l.7-1c4.3-1.3 2.5 0 5.2-4.1"/><path fill="url(#Gradient3)" d="m680.6 1119.8 6.3-.4c3.3 1.8 8.5 4.7 12 6v.4c7.6 1.5 9.4 2.8 15.6-2.7l1.9 3.1a77 77 0 0 1-9.3 9l1.3 1.3-1.7 3.3c-2.3 0-2.2-.1-4.4-.9a96 96 0 0 1-21.7-19.1"/><path fill="#b09278" d="m714.5 1123.1 1.9 3.1a77 77 0 0 1-9.3 9c-4.1-2-7.5-3.4-10.7-6.7v-1.6l2.5-1c7.6 1.3 9.4 2.7 15.6-2.8m-83.3-45.9c-7.5-4-3-2.6-10.7-1-.5-2.8-.2-3.2.2-6-4.7-3.3-6 .5-8.6-2.6 1-3.7 0-2.5 2.9-4.3 11.3.5 32 22.1 36.9 18l2.6-1.7c2 4.2 3.5 5.1 2.9 9.1l-3.6 2.8c-5-3.8-17.3-11.7-22.6-14.3"/><path fill="#eee8da" d="m702.6 1096.6 2.5 2.6 2.4-1.6a201 201 0 0 0 39.3 37.3c5.8 4.7 12 9 19.3 10.8 6.5 4.8 15.8 11.5 20.9 17.5.8 1.9 1.9 4.3 2.9 6l2 3.7-1.3 3c-14.4 2-13.8 3.5-29.4 3l.7 4.6c-1.5 1.8-.8 1.3-2.9 2.3-21-8.4-28.9-14.3-47-27.3l4.9-3.2c-4.5-3.7-9-6-14.1-10.6l1.2-3.8-1.7-2c2.2.8 2.1.8 4.4 1l1.7-3.4-1.3-1.2c4-3.3 5.8-5.2 9.3-9l-2-3.2c-3-5.6-10-13.4-12-18z"/><path fill="url(#Gradient2)" d="m702.6 1096.6 2.5 2.6 2.4-1.6a201 201 0 0 0 39.3 37.3c5.8 4.7 12 9 19.3 10.8 6.5 4.8 15.8 11.5 20.9 17.5.8 1.9 1.9 4.3 2.9 6-1.2 2.8-1.7 4.2-4 5.3v-2.4c-3.6-3.7-8.5-2.4-12.3-5-7.5-5-13.5-10.9-21.6-15.2a31 31 0 0 0-18.9-8.3 17 17 0 0 1-13.7-2.3c-2.4-1.7-1.7-3.2-1.6-5.9-2 .7-4 1-5.8 2l-3.6-1-1.3-1.1c4-3.3 5.8-5.2 9.3-9l-2-3.2c-3-5.6-10-13.4-12-18z"/><path fill="#985835" d="m702.6 1096.6 2.5 2.6q9.3 13 19.8 24.8c-4 2.3-4 3.3-8.5 2.2l-2-3c-3-5.7-10-13.5-12-18.1z"/><path fill="#9d7559" d="M725 1124q3.2 4.6 6.1 9.3-6.6 1.3-13.3 2.1c-2 .7-4 1-5.8 2l-3.6-1-1.3-1.1c4-3.3 5.8-5.2 9.3-9 4.5 1 4.6 0 8.5-2.3"/><path fill="#ae6435" d="M728.3 1154.6c1.9 1 8.8 4.5 10 5.5 7 6.7 15.3 12.9 23 18.8l.6 4.6c-1.5 1.8-.8 1.3-2.9 2.3-21-8.4-28.9-14.3-47-27.3l4.9-3.2c1.8 1.1 6 3.9 7.8 4.3.8-2.4 1.8-3 3.6-5"/><path fill="#cba784" d="M728.3 1154.6c1.9 1 8.8 4.5 10 5.5l-3.2 3.7-2.3.1c-2.9-1.7-5.2-2.8-8.1-4.3.8-2.4 1.8-3 3.6-5"/><path fill="#ae6435" d="M702.3 1139c2.2.7 2.1.7 4.4.8l1.7-3.3 3.6 1c4.9 5 8.5 8.7 13 14l3.3 3.1c-1.8 2-2.8 2.6-3.6 5-1.8-.4-6-3.2-7.8-4.3-4.5-3.7-9-6-14.1-10.5l1.2-4z"/><path fill="#bb8b64" d="M704 1140.9c7 6 11.5 11.4 21 10.6l3.3 3.1c-1.8 2-2.8 2.6-3.6 5-1.8-.4-6-3.2-7.8-4.3-4.5-3.7-9-6-14.1-10.5z"/><path fill="#dcb" d="M733.1 1143.7a32 32 0 0 1 18.9 8.2c-6.1 1-16.6-1.4-20.7-6.2z"/><path fill="#b6815a" d="M648 1015c1-4 0-2.4 3.4-5.1a306 306 0 0 0 16.2 32.1c1.9 3.3 10.8 17.3 11.6 19.1 6.4 8.7 19 26 23.4 35.5l-.2 8.5c2 4.6 9 12.4 12 18-6.1 5.5-7.9 4.1-15.5 2.7v-.5c-3.5-1.2-8.7-4.1-12-5.9l-6.3.4c-5.8-6.2-12.2-14-18-20.4l-4.3-4.2-4.5-3.7 3.6-2.8c.6-4-.8-5-2.9-9 4.9-10-1.1-14.3 1.7-24.5l-.5-1c-4-8.2-14.7-32.7-11.8-41.4h1.4l2.2 6.1z"/><path fill="#8d4824" d="m675.1 1086.2 1.6-2.8c8.4 12.6 31.5 28 22.1 42-3.4-1.3-8.6-4.2-12-6l-6.2.4c-5.8-6.2-12.2-14-18-20.4 5-2.4 6.5-.6 11.1 2.2 5-1.9 4.5-2.8 6.5-7.4z"/><path fill="#985835" d="M662.7 1099.4c5-2.4 6.4-.6 11 2.2 3.1 2 7.4 4.7 9.8 7.4l-.1 2.5c5.8 2 5.1-1.9 8 1.2l-.2 1.8-3.8 2.5-.5 2.4-6.3.4c-5.9-6.2-12.2-14-18-20.4"/><path fill="#9d7559" d="M673.7 1101.6c5-1.9 4.5-2.8 6.5-7.4 3.4 5.9 5.4 8 3.3 14.8-2.4-2.7-6.7-5.3-9.8-7.4"/><path fill="#c1956e" d="m656.2 1055.2 3.4 3.3c.9 2.8.8 3.3 2.8 5.4q1.7 4.5 3.8 8.8c3.2 7 6 8.4 8.9 13.5l5.1 8c-2 4.6-1.4 5.5-6.5 7.4-4.6-2.8-6-4.6-11-2.2l-4.4-4.2-4.5-3.7 3.6-2.8c.6-4-.8-5-2.9-9 4.9-10-1.1-14.3 1.7-24.5"/><path fill="#b77447" d="M666.2 1072.7c3.2 7 6 8.4 8.9 13.5l5.1 8c-2 4.6-1.4 5.5-6.5 7.4-4.6-2.8-6-4.6-11-2.2l-4.4-4.2c1.7-1.5 1-1 3.1-1.8 2.4 1.4 3 2 5.7 2.5 2.7-4.2-.7-15-1-22z"/><path fill="#ae6435" d="M662.4 1064c10.3-1 6 9.3 11.2 10.9-1.1-2.6-1.4-3.9-2.2-6.6l1.8-1c3.6 2.2 1.1 2.8 4.4 7.3l1.2-1.6c4.3 9.6 14.2 27 23.6 32.1 2 4.6 9 12.4 12 18-6.1 5.5-7.9 4.2-15.5 2.7v-.5c9.3-13.9-13.8-29.3-22.2-41.8l-1.6 2.7c-3-5-5.7-6.6-9-13.5q-2-4.2-3.7-8.8"/><path fill="#8d4824" d="M678.8 1073c-2-5.3-4.3-11.2-6.8-16.3-1.9-4-5-6.5-6.2-10.9 4.7 4.4 7.9 9.8 11.4 15.1l2 .2c6.4 8.7 19 26 23.4 35.5l-.2 8.5c-9.4-5.1-19.3-22.5-23.6-32"/><path fill="#b77447" d="M648 1015c1-4 0-2.4 3.4-5.1a306 306 0 0 0 16.2 32.1c1.9 3.3 10.8 17.3 11.6 19.1l-2-.2c-3.5-5.3-6.7-10.7-11.4-15 1.2 4.3 4.3 6.9 6.2 10.8 2.5 5 4.7 11 6.8 16.3l-1.2 1.6c-3.3-4.5-.8-5.1-4.4-7.4l-1.8 1.1c.8 2.7 1 4 2.2 6.6-5.3-1.6-1-11.8-11.2-11-2-2-2-2.6-2.8-5.4l.1-1.1c.4.4 10 6.5 11.8 8-.6-2.4-22.4-49-23.5-50.4"/><path fill="#c3ae99" d="M642.3 844.7c7.6-29.8 26.4-55.5 48.4-76.4.8 1.9 2 3.6.6 5.3a210 210 0 0 0-53 125.9c-.7 9.7-3.7 21.8-2.7 32 .8 22.7 6.4 39 10.4 60 1 7.3 2.9 11.6 5.4 18.4-3.4 2.7-2.4 1-3.4 5l-.5 4-2.2-6-1.4-.1c-3 8.8 7.7 33.2 11.8 41.5l.5 1c-2.8 10 3.2 14.3-1.7 24.3l-2.6 1.7c5.1-12 1.3-18.2-3.4-30.3-1-10-3.7-16.4-6.6-26-.7-2.4-5.4-31.1-5.5-30.8 5.5-14.5-1.9-23.2-3-37a265 265 0 0 1 1-54.3c.9-6.9.2-14.2 1-21.1 1-12 6.4-25.3 6.9-37.1"/><path fill="#b6815a" d="M648 1015c-5.5-9.5-10.6-15.1-2-23.4 1 7.2 2.9 11.5 5.4 18.3-3.4 2.7-2.4 1-3.4 5"/><path fill="#b77447" d="M825.3 1064.8h6.3q-4 .6-8 1.7l.7 3.1c-3.5 2-3.6 2-7.4 3-19 10.4-61.5 37-85.2 36.8-3 0-9.2-6.2-11.4-9l.2-2c3.4-.3 2.5 0 5.3.4a82 82 0 0 0 35.3-4.9 250 250 0 0 0 53-27q5.6-1.2 11.2-2.1"/><path fill="#dfd6cb" d="M1123.4 1106.5c1.6 3.1 2.3 4.1 2.5 7.7l1.2 2.8c.6 5 1.6 5.7 5.5 9l5.8 4 2 1.1c5.3-.2 16.9-1 21.5 0q-.9 3.5-1.3 7.2l2.3 3.1-1.4 4.6c-2.3 2-2.6 3.3-4 6-4.7 4.2-5.5 4.8-8.3 10.1l4.9 2.1c-2.7 2.8-3.7 3-2.9 7.4l6.6 2.9-3.3 6.8c-.7 4.5-1.6 8-1 12.5-1.5 1.7-1.2 1.7-3 2.8l-3.5 1.5c-.6 1.6-1.6 4.2-2 5.8l-.4 5.2 2.8 3.8.9 3.2a32 32 0 0 0-13.9 7.7c-.6 1.5-2.1 4.9-2.5 6.3-2.8 6.7-4.8 13.7-13.7 9l1-4.7 3.9-2-2.2-8.1c-3.1-1-4.4-2.1-6.9.8l-2.6-1.2c-4.4.2-3.4.8-6.7-1l-1.3 4c-2.3-.9-3.5-1.4-5.7-2.6l-.8-2.5-3.4-8c-7-2.4-12.6-1.6-21.6-5.4l-4.8-1.7c-7.6-8.4 1.5-21.2-9-29.5l2.3-1.7c.5-4.2.9-5.2 2-9.4l3-2.2c1.2-3.3 2.3-7.5 1.7-11 2.6-1.3 1.8-.2 2.9-2.8l-2-5c3.4-2 2.2-1.4 6.7-1.6 12.6.3 27.5-1.7 36-12 2.6-10 4.1-7 4.6-20.9 3.9.4 5 .6 7.7-1.3z"/><path fill="#ccbba7" d="m1149.2 1162.1 4.9 2.1c-2.7 2.8-3.7 3-2.9 7.4l6.6 2.9-3.3 6.8c-.7 4.5-1.6 8-1 12.5-1.5 1.7-1.2 1.7-3 2.8l-3.4 1.5a45 45 0 0 0-2.1 5.8l-.4 5.2 2.8 3.8.9 3.2a32 32 0 0 0-13.9 7.7c-.6 1.5-2.1 4.9-2.5 6.3-2.8 6.7-4.8 13.7-13.7 9l1-4.7 3.9-2-2.2-8.1c-3.1-1-4.4-2.1-6.9.7l-2.6-1c-4.4.1-3.4.7-6.7-1.1l-1.3 4c-2.3-.9-3.5-1.4-5.7-2.6l-.8-2.5-3.4-8c-7-2.4-12.6-1.6-21.6-5.4l-1-3 3-1c4.6.3 8.1.6 12.9.6 6.1-1 11.5-2.6 17.5-4.2l3.3-1.2c12-4.7 15.1-9.5 20-20.6.2 4.1-.2 8.8 1.2 12.7 2.6-1 2.7-2.7 4.6-5.8 2.8-2.6 3.7-2.6 4.8-5.7 4-5.5 8.5-11.7 11-18"/><path fill="#bf9e80" d="M1133.6 1201.1q5.7 1.6 11.4 2.8l-.4 5.2 2.8 3.8.9 3.2a32 32 0 0 0-13.9 7.7c-.6 1.5-2.1 4.9-2.5 6.3-2.8 6.7-4.8 13.7-13.7 9l1-4.7 3.9-2-2.2-8.1 3.8-2.3.5-2.7c.8-8.5 3.4-11.4 8.3-18.2"/><path fill="#b6815a" d="M1123 1232.4c0-4.2-.7-6 3.2-7.7 3.1 1.5 3.7 2.7 5.7 5.4-2.8 6.7-4.8 13.7-13.7 9l1-4.7z"/><path fill="#ccbba7" d="M1134.4 1223.8c-.7-2.8-.7-2.9-.7-5.8 2.8-5.9 4.8-6.3 10.9-9l2.8 4 .9 3.1a32 32 0 0 0-13.9 7.7"/><path fill="#d0c2ae" d="M1111.5 1224c1-6.1 2.6-14.9 9.4-16.4l2.2 1.4c2.3 3.8 1.9 5.8 2 10.3l-.4 2.7-3.8 2.3c-3.1-1-4.4-2.1-6.9.8z"/><path fill="#c3ae99" d="M1073.8 1204.3c4.7.4 8.2.7 13 .7 8 0 7 0 14.2 3.3-3 1.7-5.5 2.7-7.4 5.5-7-2.4-12.7-1.6-21.7-5.4l-1-3z"/><path fill="#cba784" d="M1149 1178.7c2.3.8 3.6 1.2 5.5 2.6-.7 4.5-1.6 8-1 12.5-1.5 1.7-1.2 1.7-3 2.8l-3.4 1.5c-3.7-.8-5.4-2-6.8-5.5l.8-1.7 2.2-.7c3.8-4 3.6-5.1 5-10.6z"/><path fill="#b6815a" d="m1101 1208.4 2.6-.2c2.3 4.7-3.9 3.5 1.1 14.7l-1.3 4c-2.3-.9-3.5-1.4-5.7-2.6l-.8-2.5-3.4-8c2-2.8 4.4-3.8 7.5-5.5"/><path fill="#c3ae99" d="m1151.2 1171.6 6.6 2.9-3.3 6.8c-2-1.5-3.2-1.8-5.5-2.7.4-1.8 1.6-5 2.2-7"/><path fill="#e8e3d9" d="m1143.3 1190.2-2.2-1.8c-1.8-5 3.3-7 7.2-8.9-1.4 5.6-1.2 6.8-5 10.7m-19.9-83.7c1.6 3.1 2.3 4.1 2.5 7.7l1.2 2.8c.6 5 1.6 5.7 5.5 9l5.8 4 2 1.1c5.3-.2 16.9-1 21.5 0q-.9 3.5-1.3 7.2c-3.7 4-3.3 3.2-8.4 5.2-7.6 1.1-19.2 3.2-25.5-.7-2.5-3.8-1.8-2.2-2-7-.2-.6-1.2-2-1.6-2.5l-8.3-.8c-.4-.2-3.5-.9-4.2-1 2.7-10 4.2-7 4.7-20.9 3.9.4 5 .6 7.7-1.3z"/><path fill="#e8e3d9" d="M1123.4 1106.5c1.6 3.1 2.3 4.1 2.5 7.7-4.4 4.8-1 12-2.8 19.1l-8.3-.8c-.4-.2-3.5-.9-4.2-1 2.7-10 4.2-7 4.7-20.9 3.9.4 5 .6 7.7-1.3z"/><path fill="#ccbba7" d="m1125.9 1114.2 1.2 2.8c.6 5 1.6 5.7 5.5 9l5.8 4 2 1.1 2.2 1.8-.7 1.2c-8.4 1.1-8.1-1.6-17.2 1.6-.2-.5-1.3-1.9-1.6-2.4 1.7-7.1-1.6-14.3 2.8-19.1"/><path fill="#e8e3d9" d="m1073.8 1204.3-3.5-1.2-.9-2.2 1.1-1.7c7.2-3.2 19.9-2.4 27.6-2 4.1.2 4 1 6.2 3.6-6 1.6-11.4 3.2-17.5 4.2-4.8 0-8.3-.3-13-.7"/><path fill="#c3ae99" d="m1114.8 1132.5 8.3.8 1.6 2.4c.2 4.9-.5 3.3 2 7.1 6.3 3.9 17.9 1.8 25.5.7l2.5 1.1-.6 1.3c-6 1.6-10 .8-15.6 1.5-6.2 2.4-10.3 1.2-16.7.1-2.3-6.6-4.3-8.5-8.8-14z"/><path fill="#c6bbaf" d="M1074.7 1143.5c.2 3.8 0 4.4-.8 8.1 2.1 3.8 8 4.4 12.1 5.3l-.1 2.4c-7 .6-15.7 5.3-20.4 4.6 1.1-3.3 2.2-7.5 1.6-11 2.6-1.3 1.8-.2 2.9-2.8l-2-5c3.4-2 2.2-1.4 6.7-1.6"/><path fill="#d0c2ae" d="m1141 1160 2-.5c.7 6.4-7.7 12.7-4.8 20.7-1 3.1-2 3.1-4.8 5.7-1-11.9 1-16.2 7.6-25.8"/><path fill="#dfd6cb" d="m980.6 1043.8 1.4 5-5.2 5.2c6.6 8.4 14.2 18.6 24.5 22.6l1.3-.3 2-.4c6-1.2 8.5-2 13.2-6 1-1.9 2.4-3.3 3.8-5 1.8 2.6 2 2.7 3.2 5.8l2.5.2c1.2 2.2 1.1 3.8 1.4 6.3l1.3 1.5c1 3.4 1.2 3.5.2 6.8-2.4 2.4-2.2 2.3-5.4 3l-1.9.3c-6.7.8-5.4-1.5-9.6 2l-.5 1.5c-1 .2-6 .9-6.6 1.2 3 7.6-1.6 8.2 5.8 18.7-1.9 2.1-4.7 5.1-6 7.4l-1.6.8-2.1 1.6c-4.4 3.3-8 5.8-11.8 9.8l-4.5 5-4.3 3.3c-5 3.1-10.6 10-14.7 14.4-2.5 1-29.7 3.6-34.2 4 3.7-3 5.7-4.2 8-8.4l1-2.2-3-6.6c-4-22.9 8.8-30.4 14.5-48.5l.8-.2.4-3.7c-2.3-5.2-2.4.8-7-4.3l2-2 2-2.7a40 40 0 0 1 1.8-10.1l.5-.8c.1-7 .6-7.4 5-12.8q2.1 0 4.1.5l11.6-9.4z"/><path fill="#e8e3d9" d="m980.6 1043.8 1.4 5-5.2 5.2c6.6 8.4 14.2 18.6 24.5 22.6l1.3-.3 2-.4c6-1.2 8.5-2 13.2-6 1-1.9 2.4-3.3 3.8-5 1.8 2.6 2 2.7 3.2 5.8l2.5.2c1.2 2.2 1.1 3.8 1.4 6.3l1.3 1.5c1 3.4 1.2 3.5.2 6.8-2.4 2.4-2.2 2.3-5.4 3l-1.9.3c-6.7.8-5.4-1.5-9.6 2l-.5 1.5c-1 .2-6 .9-6.6 1.2l-4.9 2.2-3.6-4.4c-9.1.8-22.7-23.5-31-27.5l-1.1-.7-.6-4.7-2-1.7 11.5-9.4z"/><path fill="#ccbba7" d="m980.6 1043.8 1.4 5-5.2 5.2c6.6 8.4 14.2 18.6 24.5 22.6-.6 1.5-.6 1.2-1.9 2.5-12.2 1.5-20.1-20.1-34.4-20.7l-2-1.7 11.5-9.4z"/><path fill="#c3ae99" d="M997.7 1091.3c4-2.8 7.5-6 12.3-5.5 3 2.3 1.8.9 3.3 5l-.5 1.5c-1 .2-6 .9-6.6 1.2l-4.9 2.2zm27.1-2.7c-6-.2-6.3.3-9.7-4.7 0-3.5-.7-2.2 1.2-4.3l2.3.8q2.9 3.3 5.9 6.4z"/><path fill="#eee8da" d="M1018.6 1080.4c4-2.2 2-1.8 6.4-1.1 3 2.3 2.2.8 3 4.2-1.7 3-.5 2-3.5 3.3q-3.1-3-5.9-6.4m3-15.4c1.8 2.5 2 2.6 3.2 5.7-1 2.6-1.2 4-3.4 5.7-2.5-2.1-2.4-3.3-3.6-6.6q1.6-2.5 3.7-4.8"/><path fill="#dcb" d="M958.8 1056.2q2.1 0 4.1.5l2.1 1.7.6 4.7 1 .7c8.4 4 22 28.3 31 27.5l3.7 4.4 4.9-2.2c3 7.6-1.6 8.2 5.8 18.7-1.9 2.1-4.7 5.1-6 7.4l-1.6.8-2.1 1.6c-5.8-9-6-9.7-8-20l-.7.5-.4-2.2c-2.7-2.2-1.2-1.8-4.2-2.2-5.2-2.9-16.2-14-20.6-18.5l-2.8 1.8-7.6-2.6-6.6 1.1a40 40 0 0 1 2-10.1l.4-.8c.1-7 .6-7.4 5-12.8"/><path fill="#dfd6cb" d="M958.8 1056.2q2.1 0 4.1.5l2.1 1.7.6 4.7 1 .7c-5 3.2-3 3.6-5.7 7.3l2.4 2.2c2 2.3 3.5 3.7 5.1 6.3l-2.8 1.8-7.6-2.6-6.6 1.1a40 40 0 0 1 2-10.1l.4-.7c.1-7.1.6-7.5 5-12.9"/><path fill="#ccbba7" d="m960.9 1071 2.4 2.3c2 2.3 3.5 3.7 5.1 6.3l-2.8 1.8-7.6-2.6c0-4.9.4-4.5 2.9-7.7"/><path fill="#e8e3d9" d="M1006.2 1093.5c3 7.6-1.6 8.1 5.8 18.7-1.9 2.1-4.7 5.1-6 7.4l-1.5-1.4c-5.9-5.8-5.2-13.2-5.2-21.4l2-1z"/><path fill="#eee8da" d="m963.3 1073.3 2.6-.8c4 2.8 24.3 20.1 25 23.9l-1.9 1.7c-5.2-2.9-16.2-14-20.6-18.5-1.6-2.6-3.1-4-5.1-6.3"/><path fill="#e8e3d9" d="m958 1078.8 7.6 2.6c3 3.1 17.5 18 18.6 20.4-2 2.3-2.6 2.3-5.3 3.6-7.4-7.8-16.2-2.3-16.2-16 0-3.1-9.4-4.9-13.3-6.8l2-2.7z"/><path fill="#c6bbaf" d="M968.4 1079.6c4.4 4.5 15.4 15.6 20.6 18.5 3 .4 1.5 0 4.2 2.2-3 9.9-10.6 9.2-17.8 15.7l-.6-4.6c-5.2-4.5-10.2-2.5-15.5 1 4.1-9.9 8.3-1 19.6-7 2.7-1.3 3.4-1.3 5.3-3.6-1-2.4-15.6-17.3-18.6-20.4z"/><path fill="#d0c2ae" d="m953.3 1092.8.8-.2c.2 13.9-16.6 21.4-7 29.7 1 7.8-5 19.8-5.3 25.6l-3-6.6c-4-22.9 8.8-30.4 14.5-48.5"/><path fill="#ccbba7" d="M959.3 1112.4c5.3-3.5 10.3-5.5 15.5-1l.6 4.6c-3.3 4.7-5.3 7.2-10.7 8.9-3.8-.5-2.2.3-5-2.6-1.4-4.2-1-5.4-.4-10"/><path fill="#c3ae99" d="m1105.4 860.3 2 1.4 4.6 1.3v1.2c3.7 1 8.4-1.6 13.6-2.3 1.5 2.4 1.3 2.3 1.3 5.2l1 1.5.5 1c4 2.4 6.3 3.6 10.4 5.5 4.8 3 8 5 11.5 9.7 7.7 5.3 13.8-.5 22.9 5.9 3.9 7.2-5.3 11.7-11.5 12.6-4.8-.8-7.1-1.6-11.7 0-2.2 4-6.2 6-6.9 9.6l.8 3.3c.5 2.6.8 4 1 6.8l3.4 7c7.1 8.8 4.7 13.4 1.9 23.5-4.2 10.3 3.6 12.5-7 20-25.6 7.8-20.6-18.2-25-25.4l-2-.3c-5.8-1.3-12-2.3-15.9-6.7-4.3-11-.2-14 9.3-18.7l1.6-1c4.5-3.9 4.3-3.5 5.6-9.2l-3-1.5-2.9.2-1.4-1.5a61 61 0 0 1-1.5-24.3c3.2 1 3.3 1.7 5.4 4.5 3.9-.2 2 .4 5.3-2.7-2-1.8-3.5-3.7-5.3-5.8l-5.9-1.1q-1-1.3-1.9-3c-1-2.4-1.9-3.3-3.4-5.4-1.5-3-1.3-4.6-1.3-7.8 2.2-1.2 2.6-1.8 4.5-3.5"/><path fill="#c3ae99" d="m1105.4 860.3 2 1.4 4.6 1.3v1.2c3.7 1 8.4-1.6 13.6-2.3 1.5 2.4 1.3 2.3 1.3 5.2l1 1.5.5 1c4 2.4 6.3 3.6 10.4 5.5-1.3 6.2 2.5 5.6-.8 14.2-5.2 7.1-9.1 6.6-12.1 10.7-3.2 3.7-6.4 9.4-9 12.2l-3-1.5-3 .2-1.4-1.5a61 61 0 0 1-1.5-24.3c3.2 1 3.3 1.7 5.4 4.5 3.9-.2 2 .4 5.3-2.7q-2.8-2.7-5.3-5.8l-5.9-1.1q-1-1.3-1.9-3c-1-2.4-1.9-3.3-3.4-5.4-1.5-3-1.3-4.6-1.3-7.8 2.2-1.2 2.6-1.8 4.5-3.5"/><path fill="#c3ae99" d="m1105.4 860.3 2 1.4 4.6 1.3v1.2q-.7 3.4-1 6.8l2 6 .4 4.1-5.9-1.1q-1-1.3-1.9-3c-1-2.4-1.9-3.3-3.4-5.4-1.5-3-1.3-4.6-1.3-7.8 2.2-1.2 2.6-1.8 4.5-3.5"/><path fill="#ccbba7" d="M1105.6 877c2.3-3.6 2.1-3.5 5.4-6l2 6 .4 4.1-5.9-1.1q-1-1.3-1.9-3"/><path fill="#aa9d8a" d="M1125.6 861.9c1.5 2.4 1.3 2.3 1.3 5.2l1 1.5.5 1-5.5.5c-4.2 4.5-4.2 6.1-9.9 6.8l-2-5.9q.3-3.4 1-6.8c3.7 1 8.4-1.6 13.6-2.3"/><path fill="#b8a388" d="M1113 877c5.7-.8 5.7-2.4 10-6.9 2.2 4.5 3 4.6 7.4 7.5-3.7 3-6.7 4.3-7 9.4h-4.7q-2.8-2.8-5.3-5.9zm-5 8.1c3.2 1 3.3 1.7 5.4 4.5-2 3.6-1.8 3.5-2.1 7.7 3 6.9 8.5 5.6 2.5 13.4l-2.9.2-1.4-1.5a61 61 0 0 1-1.5-24.3"/><path fill="#b09278" d="m1123 870.1 5.4-.5c4 2.4 6.3 3.6 10.4 5.5-1.3 6.2 2.5 5.6-.8 14.2-3.7-3.2-2.8-3.8-3.2-9-1.9-2-1.7-2-4.4-2.7-4.4-2.9-5.2-3-7.5-7.5"/><path fill="#4e4239" d="M1130.4 877.6c2.7.7 2.5.7 4.4 2.8-.9 4.7-.1 4.6-2.8 7.8-3.3.8-5.2-.2-8.5-1.2.2-5 3.2-6.4 6.9-9.4"/><path fill="#bf9e80" d="M1138.8 875.2c4.8 3 8 4.9 11.5 9.6 7.7 5.3 13.8-.5 22.9 5.9 3.9 7.2-5.3 11.7-11.5 12.6-4.8-.8-7.1-1.6-11.7 0-2.2 4-6.2 6-6.9 9.6l.8 3.3-3.3-2.6c-4.4 3.6-5 6-9.8 9-5.4-8.3 1.3-8 6.5-15.5l-.5-1.7-4-1.6c-4.1.4-4.3-1-7-3.8 3.1-4.1 7-3.6 12.2-10.7 3.3-8.6-.5-8 .8-14.1"/><path fill="#b8a388" d="M1150.3 884.8c7.7 5.3 13.8-.5 22.9 5.9 3.9 7.2-5.3 11.7-11.5 12.6-4.8-.8-7.1-1.6-11.7 0-2.7-1.3-3.1-2.4-5.2-4.8l1.4-2c-2.5-1.9-1.8-.7-2.4-3.4 1-3.7 3.7-5.6 6.5-8.3"/><path fill="#bf9e80" d="m1146.2 896.5 4.8-5.1c3-1.2 2.9-1.4 6-.5 4 3.1 4.4 7.6 4.7 12.4-4.8-.8-7.1-1.6-11.7 0-2.7-1.3-3.1-2.4-5.2-4.8z"/><path fill="#c6bbaf" d="M1140.6 913.6c.6-5.2-2.6-7.3-.3-13 2.8-2.3 1.2-1.7 4.5-2 2 2.3 2.5 3.4 5.2 4.8-2.2 3.8-6.2 6-6.9 9.5l.8 3.3z"/><path fill="#4e4239" d="m1111.2 921.4 2.8 1.9c2.4 2.4 5 10.2 7.4 14-.9 2.5-1.5 3.7-1.6 6.3l-2.5 1.3c-.5 2.3 0 1.4-1.1 2.9-5.8-1.3-12-2.3-15.9-6.7-4.3-11-.2-14 9.3-18.7z"/><path fill="#ccbba7" d="M1114 923.3c2.4 2.4 5 10.2 7.4 14-.9 2.5-1.5 3.7-1.6 6.3l-2.5 1.3c-4.7-1-6.8-1.2-9.1-5.6-.2-5 3.3-11.7 5.8-16"/><path fill="#cba784" d="M1100.3 941c-4.3-11-.2-13.8 9.3-18.6.8 7.5-4.4 13.5-9.3 18.7"/><path fill="#8d4824" d="m1119.8 943.6 5.6 2.5c-1 9.1 4.8 15.8 9.5 24.7 2.4 1.2 3.3.8 6 .7l2.2 2c-25.5 7.8-20.5-18.2-24.9-25.4l-2-.3c1.1-1.5.6-.6 1.1-3z"/><path fill="#c1956e" d="M1142.5 945.6c3-6 2.4-12.7 5.8-15.6 7.1 8.8 4.7 13.4 1.9 23.5l-4.9-1.5c-2.7-2.9-1.9-2-2.8-6.4"/><path fill="#c6bbaf" d="m1144.8 923 3.5 7c-3.4 2.9-2.8 9.6-5.8 15.6-5 .3-7.7-1.2-8-6 2-5.2 5.7-9.7 10.5-12.5z"/><path fill="#b09278" d="M1125.9 900c2.6 2.7 2.8 4.2 6.8 3.8-9.5 5.2-7.8 17.6-11.4 19.6-4-5.8-4.8-5.3-4.5-11.2 2.7-2.8 6-8.5 9-12.2"/><path fill="#c6bbaf" d="M1121.4 937.4c2.5-3.5 7.7-9.1 12-5.5 0 6.3-2.7 6.3-5.8 12.9l-2.1 1.3-5.7-2.5c0-2.6.7-3.8 1.6-6.2"/><path fill="#4e4239" d="m1140.6 913.6 3.3 2.6c.5 2.6.8 4 1 6.8l.1 4c-3.5-.4-1.8.3-4.8-3.2-8.4-.1-.1 2.4-6.8 2.3l-2.6-3.4c4.8-3.1 5.4-5.5 9.8-9"/><path fill="#c3ae99" d="m1108.3 808.3 1 .1c3.8 3.7 4.9 8.5 6.7 13.7 3.7-.1 9.2-1 12.1 1 6.2 5 7.5 7.3 4.2 14.8l-3.1 4c12.7 5 20.9 9 12.8 23-4.4 1.8-6.7 1-11-.2l-2.3 1.2-.8 2.7-1-1.5c0-2.9.2-2.8-1.3-5.2-5.2.7-10 3.2-13.6 2.3V863l-4.5-1.3-2-1.4c-2 1.7-2.4 2.3-4.6 3.5 0 3.2-.2 4.9 1.3 7.8l-2.8 1.4c-3.4 1-17.7 2.8-19-2.5-1.8-7.7 4.4-11.4 6-18.3l-9.8-4.3-1.7.3c-8.7 1.7-8.1 4.1-17.6 1.8 1.4-1.7 2-2.8 3.1-4.7 2.6-1.4 2.5-1.2 4.2-3.6l1.3-2c-2.5-5.2-1.2-6.2 1.5-11l2.6 2.4c2.1-2.3 2.7-3.3 5.6-4.2l-1-4v-1.2c4.6 2.6 5 2 6.2 7.8l5.1-3.9c.6-2.7-.2-1.7 1.8-3.3 6.2.8 8.1 1.3 14.3-.1l1-1.2c.6-8.8 3-6.3 5.3-12.7"/><path fill="#ae6435" d="M1074.5 822.8v-1.1c4.7 2.6 5 2 6.3 7.8-.1 3 2.9 9.4 3.9 13.5l1.7.5c2.2.6 2.7.9 4.8 2l-.5-6.5c7 1.2 7.9.6 11 7 3.2 2.1 4.4 1.8 8.3 1.8-.5 4.5-.3 5 1.4 9.2l-1.3 1.5-2.6 3.2-2-1.4c-2 1.7-2.4 2.3-4.6 3.5 0 3.2-.2 4.9 1.3 7.8l-2.8 1.4c-3.4 1-17.8 2.8-19-2.5-1.8-7.7 4.4-11.4 6-18.3l-9.8-4.3-1.7.3c-8.7 1.7-8.1 4.1-17.7 1.8 1.5-1.7 2-2.8 3.2-4.7 2.6-1.4 2.5-1.2 4.2-3.6l1.3-2c-2.6-5.2-1.2-6.2 1.5-11l2.6 2.4c2.1-2.3 2.7-3.3 5.6-4.2z"/><path fill="#c6bbaf" d="M1086.4 852.2c6.5 3 13.6 4 19 8-1.9 1.8-2.3 2.4-4.5 3.6 0 3.2-.2 4.9 1.3 7.8l-2.8 1.4c-3.4 1-17.8 2.8-19-2.5-1.8-7.7 4.4-11.4 6-18.3"/><path fill="#fff" d="M1099.4 873c-3.4-6.6-10.6-1.6-14.7-6.6 2.8-4.5 11.7-4.9 16.2-2.6 0 3.2-.2 4.9 1.3 7.8z"/><path fill="#c6bbaf" d="M1066 839.7c3 2.7 8.4 5.8 10.2 7.6l.4.6-1.7.3c-8.7 1.7-8.1 4.1-17.7 1.8 1.5-1.7 2-2.8 3.2-4.7 2.6-1.4 2.5-1.2 4.2-3.6z"/><path fill="#aa9d8a" d="m1067.4 828.7 2.6 2.4c1 3 3 9.1 4.3 11.7l2 4.5c-2-1.8-7.2-5-10.4-7.6-2.5-5.2-1.2-6.2 1.5-11"/><path fill="#b09278" d="M1090.7 839c7 1.2 7.9.6 11 7l-.8 4.4c-4.4-1-7-1.3-9.7-4.8z"/><path fill="#c6bbaf" d="M1070 831c2.1-2.2 2.6-3.2 5.6-4 3 8 4.3 8.7-1.3 15.8-1.4-2.6-3.2-8.7-4.3-11.7"/><path fill="#aa9d8a" d="M1101.7 846c3.2 2.1 4.4 1.8 8.3 1.8-.5 4.5-.3 5 1.4 9.2l-1.3 1.5-9.2-8z"/><path fill="#c3ae99" d="M1129.2 842c12.7 4.9 20.9 8.8 12.8 23-4.4 1.7-6.7 1-11-.3l-2.3 1.2-.8 2.7-1-1.5c0-2.9.2-2.9-1.3-5.2l-1-4.7c2-7.3-1.2-7.3-.6-13 2.1-1.5 2.6-1.5 5.2-2.2"/><path fill="#b8a388" d="M1131 864.7c.1-4.9-.6-4.7 1.6-8 4.7-.6 8.5 4 9.4 8.3-4.4 1.7-6.7 1-11-.3"/><path fill="#b09278" d="m1128.4 835.6 4 2.3-3.2 4c-2.6.8-3 .8-5.2 2.4-.6 5.6 2.6 5.6.6 13l1 4.6c-5.2.7-10 3.2-13.6 2.3V863l-4.5-1.3 2.6-3.2 1.3-1.5c-1.7-4.2-1.9-4.7-1.4-9.2 3.5-7.2 0-7 8.3-12 1.7 2.3 1.7 2.7 4.2 4.1 1.7-1.4 2.5-2.2 4.3-3.3z"/><path fill="#4e4239" d="M1112 863c1.6-4.4 6.8-7.5 11.3-7.5l1.3 1.7 1 4.7c-5.2.7-10 3.2-13.6 2.3z"/><path fill="#b09278" d="M1086 825.6c6.8 5.2 10.8 1.5 15.6 5.6l.2 2.1c-4.6 5.5-7.1-.2-11.7 3.2 0 .6.3 2 .6 2.5l.5 6.6c-2-1.2-2.6-1.5-4.8-2.1l-1.7-.5c-1-4-4-10.5-4-13.5z"/><path fill="#b8a388" d="M1110 847.8c1.8-9.6-4.7-15.9.8-23.5 3-1 2.7-1.2 5.8-.5l1.2 2c-.4 4.4-.6 5.7.5 10-8.3 5-4.8 4.8-8.3 12"/><path fill="#6b4730" d="M1128.4 835.6c-1-5.6-2.3-7.8-.3-12.4 6.2 4.9 7.5 7.2 4.2 14.7z"/><path fill="#eee8da" d="M966.3 963.3c4.5 3 6.9 4.1 10.2 8.4.5 7-1.3 9.2-6 14.7-7.9 9.3-17.4 17.4-25.4 26.7-4.6 11.7-1.3 20.7 1.6 32-2.5 2.7-1 1.6-5 2.6-1.8-6.4-1.1-10.3-7.6-13-3.2-2.8-.5-3-4.2-7.6-3 2.3-5 3.9-8.5 5.6l-5.4 1.9c-14.6 3.5-13.1-1-24-8.5l-1-.6 1-3.2c-2.1-1.6-1.7-1.4-3.6-3.6 0-3.8 0-2.7 2.4-6.5 6 1.8 6.9 5 11.7 0l4-.6 3.1 2.2 4.2-1 1.4-2.3 3-.5c19.1-3.4 24.9-18 36-33.9 2.8-5.8 7-9 12-12.8"/><path fill="#c3ae99" d="m941.7 1010 3.4 3.2c-4.6 11.6-1.3 20.6 1.6 32-2.5 2.6-1 1.6-5 2.5-1.8-6.4-1.1-10.3-7.6-13-3.2-2.8-.5-3-4.2-7.6l.9-.6-1-2.2c2.2-2 4-5.7 6.2-8.3.8-1 4.6-4.8 5.7-6"/><path fill="#b8a388" d="m936 1016 1.1 1.5-.7 1.8.1 1c.7 4.7 1.5 11-2.4 14.5-3.2-3-.5-3-4.2-7.7l.9-.6-1-2.2c2.2-2 4-5.7 6.2-8.3"/><path fill="#c6bbaf" d="M941.7 1010c7.8-11.2 28.3-28 34.8-38.3.5 7-1.3 9.2-6 14.7-7.9 9.3-17.4 17.4-25.4 26.8z"/><path fill="#b09278" d="M892 1022.3c14.8 3.6 12 11 26.9 7.2l2.5 3.2-5.4 1.9c-14.6 3.5-13.1-1-24-8.5l-1-.6z"/><path fill="#dfd6cb" d="M954.1 976.1c-.8 8.3-14.3 26-21 31.4-8.3 6.5-13.5 7.6-23.5 6.3l4.2-1 1.4-2.3 3-.5c19.1-3.4 24.9-18 36-33.9"/><path fill="#bf9e80" d="m918.9 1029.5 11-5.2.9 2.2-.9.6c-3 2.3-5 3.9-8.5 5.6z"/><path fill="#e8e3d9" d="M1058.1 1177.2c10.5 8.3 1.4 21.1 9 29.5l4.8 1.7c9 3.8 14.6 3 21.7 5.4l3.3 8 .8 2.5c2.2 1.2 3.4 1.7 5.7 2.7l.4.5-2.4 1.2-.4 3.2.3 2.7c3 13-.9 19.8-14.3 20.4-6.3-2.2-7.8-3.6-13-7.4l-9.9-9.2q-8.3-7.1-16.4-14.7l7.5-2.1c2.4-3.6.7-6.4-.4-10.3a141 141 0 0 1-4.4-26.5c3.5-2.7 4.8-4.3 7.7-7.6"/><path fill="#ccbba7" d="M1074.8 1227.2c1-3.3 3-4.6 5.8-6.5 7.4-.8 10 5 16.3 1l.8 2.6c2.2 1.2 3.4 1.7 5.7 2.7l.4.5-2.4 1.2-.4 3.2.3 2.7c3 13-.9 19.8-14.3 20.4-6.3-2.2-7.8-3.6-13-7.4l-9.9-9.2c7.2-2.2 9.4-3.7 10.7-11.2"/><path fill="#ae6435" d="M1087.7 1229c3.4 2.7 5.3 7.2 7.4 11.1a46 46 0 0 0 6.2-5.5c3 13-.9 19.8-14.3 20.4-6.3-2.3-7.8-3.6-13-7.4 5.2-7.5 6.7-12.2 13.7-18.6"/><path fill="#cba784" d="M1101.3 1234.6c3 13-.9 19.8-14.3 20.4a28 28 0 0 0 8-14.9c2.8-2.1 3.9-3 6.3-5.5"/><path fill="#bb8b64" d="M1087.7 1229c3.4-1.8 4.6-2.9 8.4-2.3 3.2 2 3 2 4.9 5.2l.3 2.7a49 49 0 0 1-6.2 5.5c-2.1-4-4-8.4-7.4-11"/><path fill="#eee8da" d="m1047.7 1223.7 7.5-2.1c4.5 1.5 5 1.7 9.6.8l6.4 2.4 3.5 2.4c-1.2 7.5-3.4 9-10.6 11.1q-8.3-7-16.4-14.6"/><path fill="#c3ae99" d="M1064.8 1222.4c-2.6-3.9-2.1-1.9-2.3-6 2.9-2.6 4.5-1.8 7.8.2 2 3 1.9 2.9 1.8 6.6l-1 1.7z"/><path fill="#eee8da" d="M900.6 937.9c-8-16.8 17.9-30.4 25.3-13.7 2.7 9.2 2.7 15 12.5 18.2 8.4-.4 7.4-1.5 12.6-8 5.5-1.7 10.4-2.8 16-.3 2.8 1.7 6.5 6 6.5 9 .1 13.8-15 14.2-22.8 14l-1.5.8c-4.1 3.7-6.3 6.4-11.6 7.4-2.5-.5-2.5-1-4.3-2.8l1.3-2.8c-10.8-1.4-5.8 4.2-12.8-.5l-2.1 1.2c-2.6-5.3-.6-10.3-4.8-12.9l-3.4 1.1c-2.6-1.3-4-4.4-7.9-4.3-1.6.1-3-.7-4.3-1.4z"/><path fill="#eee8da" d="M900.6 937.9c-8-16.8 17.9-30.4 25.3-13.7 2.7 9.2 2.7 15 12.5 18.2 4.8.9 5 0 7.7 2.9l-.2 1.5c-6.9 0-6-3-14.7-3.1-3.4-2.4-2.3-2.5-5.6-2.3-4.3 3.1-5.3 5-10.7 6.1l-3.4 1.1c-2.6-1.3-4-4.4-7.9-4.3-1.6.1-3-.7-4.3-1.4z"/><path fill="#c6bbaf" d="M925.9 924.2c2.7 9.2 2.7 15 12.5 18.2 4.8.9 5 0 7.7 2.9l-.2 1.5c-6.9 0-6-3-14.7-3.1-3.4-2.4-2.3-2.5-5.6-2.3-4.3 3.1-5.3 5-10.7 6.1l-3.4 1.1c-2.6-1.3-4-4.4-7.9-4.3-1.6.1-3-.7-4.3-1.4l1.3-5c2.9-.1 3 .1 5.8 1 3.4 4.3 3.3 5 8 5.8 2-2.6 1.4-1.1 1.5-4.8-2.3-1.8-2.8-1.2-6.4-1.2l-1-1.2c4.5-3 8.5-.3 14.5-3.6 2.7-3 2.4-5.4 2.9-9.7"/><path fill="#ccbba7" d="M967 934.1c2.8 1.7 6.5 6 6.5 9 .1 13.8-15 14.2-22.8 14l.8-3.7c6.4-5.5 15.5-5 18.1-12.2-.4-3.5-.4-3.3-2.4-6.2z"/><path fill="#e8e3d9" d="M915 947.5c5.3-1 6.3-3 10.6-6 3.3-.3 2.2-.2 5.6 2.2-8.4 8.9-6.7 4.1-9.4 15.5l-2.1 1.2c-2.6-5.3-.6-10.3-4.8-12.9"/><path fill="#ccbba7" d="M934.6 959.7c1.6-.3 2.5-.7 4-1.2 1.8-2.7 4-6.8 7-7.2 2.6 2 2.7 3.5 3.6 6.6-4.1 3.7-6.3 6.4-11.6 7.4-2.5-.5-2.5-1-4.3-2.8zm16.4-25.2c5.5-1.8 10.4-3 16-.4l.2.9c-6.3.2-10 .5-16.2-.5m202.5 259.3c6.2 1.6 9.2.3 15.3-.6 11.9 5 17 10.7 25.9 19.7 14.9 17.7-3.9 30.2-11.9 21.5-2.6 3.4-1 2.4-4.8 3.4-14.2-3.4-10-22.5-28.3-22l-1.4.4-.9-3.3-2.8-3.8.4-5.2c.4-1.6 1.4-4.1 2-5.8l3.5-1.5c1.8-1 1.5-1.1 3-2.8"/><path fill="#bb8b64" d="M1176.8 1217.2c1-3 .1-1.9 2.7-3.5 3.7 0 6 1.8 9.2 3.7l6-4.5c14.9 17.7-3.9 30.2-11.9 21.5-.3-1.4-8.3-6.2-10.2-7.5 1.3-4.9.9-6.5 4.2-9.7"/><path fill="#fff" d="M1176.8 1217.2c1-3 .1-1.9 2.7-3.5 3.7 0 6 1.8 9.2 3.7-2.3 4-1.4 3.6-4.8 5.5-3.7-.9-4.6-2.4-7-5.7"/><path fill="#e8e3d9" d="M1150.5 1196.6c9 6.7 10.6 0 16 3.3 0 3.5.3 1.8-2 5-4.7 0-8.3-1.1-12.4 1-1.8 2.5-3 4.4-4.7 7l-2.8-3.8.4-5.2c.4-1.6 1.4-4.2 2-5.8z"/><path fill="#c1956e" d="m1147.4 1213 4.7-7.1c4-2.1 7.7-1 12.3-1 2.7 2 1.8.7 3 3.6-2.5 4-5.4 4.1-10.4 5.4l-7.3 1.8-1.4.4z"/><path fill="#d0c2ae" d="M915 947.5c4.1 2.6 2 7.6 4.7 13l2-1.3c7.1 4.7 2.1-.9 12.9.5l-1.3 2.8-2.7 2c.8 2.7.4 1.8 2.1 4-.6 3.3-17 35.2-19.3 37.7.5 3 0 2 1.8 4.3l-1.4 2.3-4.2 1-3-2.2-4.1.6 2.3-12.3 5.9-6.5c1.1-3 2-5.1 2.9-8.1-2.3-2-2-2.3-3-5.3l-.2-3.6c.6-3-.1-17-.5-20.5l-.2-1.8 1.2-1 .6-4.5z"/><path fill="#fff" d="M915 947.5c4.1 2.6 2 7.6 4.7 13 1.8 4.2 2 8.3-1 11.9-7.6.1-8-13.7-7.8-19.2l.6-4.6z"/><path fill="#dcb" d="M910.7 993.4c2 5-.2 5.3 0 9.2l2.7 3.6c.5 3 0 2 1.8 4.3l-1.4 2.3-4.2 1-3-2.2-4.1.6 2.3-12.3z"/><path fill="#b8a388" d="m910.6 1002.6 2.8 3.6c.5 3 0 2 1.8 4.3l-1.4 2.3-4.2 1-3-2.2q2.1-4.4 4-9m-.2-26.2c4-1.6 2.8-1.9 6-.8.8 3.9-.7 6.2-2.8 9.7-2.3-2-2-2.3-3-5.3z"/><path fill="#dfd6cb" d="M1036.3 1056.8c3-2.7 2-1.1 3-4.8-2.5-4-5-4.6-6.5-8.3 1.9-2.8 7.3-3.2 9.7-1.3 4.7 3.7 5.3 10.2 6.2 15.7 5.5 4.5 8.3 3.5 12.3 10.4 1.8 6-.7 10.5-5.7 14.2-10.7 1.7-10.8-8.4-20-11.2-1.5 2-4 5.2-5.3 7.2l-1.3-1.5c-.3-2.5-.2-4-1.4-6.4l-2.5-.1c-1.1-3-1.4-3.2-3.2-5.7 4.5-3.8 7.3-5 12.9-6.7z"/><path fill="#eee8da" d="m1035.3 1071.5 1.6-2.7c6-1.3 7.9 6 17.3 2.4 2.3-2.6 2.6-1.9 6.8-2.7 1.8 6-.7 10.5-5.7 14.2-10.7 1.7-10.9-8.4-20-11.2"/><path fill="#e8e3d9" d="M1036.3 1056.8c3-2.7 2-1.1 3-4.8-2.5-4-5-4.6-6.5-8.3 1.9-2.8 7.3-3.2 9.7-1.3 4.7 3.7 5.3 10.2 6.2 15.7l-3.7 3.8h-.5c-3-3.3-4-4-8.2-5"/><path fill="#eee8da" d="M1048.7 1058.1c5.5 4.5 8.3 3.5 12.3 10.4-4.2.8-4.5.1-6.8 2.7-2-7.2-6-3.4-9.2-9.3z"/><path fill="#9d7559" d="M1036.3 1056.8c4.2 1 5.1 1.8 8.2 5.1l-2.3 2.8c-3.5 1.3-1.9 1.4-5 .2-2.5-2.7-2.2-3-2.7-6.6z"/><path fill="#eee8da" d="M974.5 1047.3c-1.8-15.4 15.3-23.9 24.5-33.3 4.4-4.5 7.5-14.5 13-16.4 6.4 1.6 6.3 5.8 5.7 11.5-16.1 19.8-14.9 24-35.7 39.7l-1.4-5z"/><path fill="#c6bbaf" d="M980.6 1043.8c20.1-13.8 23.4-26.4 35-35.1l2 .4c-16 19.8-14.8 24-35.6 39.7z"/><path fill="#9d7559" d="M876.4 1241.4q2.5.8 5 1.2c13.2 3.7 27.2.9 34 9.4-3.4 1-10 3.8-13 3.2 1.3-3.3 2.1-3.8 1.6-6.8-3 0-1.7 0-4.9 2-.1 3-.3 1.7 1.3 4.6-1.2 1.8-.5 1-2.6 2-8.6 2.4-17.4 5-26.1 6.6-5.8 0-13.1-3.5-19.9-5.1 3-.8 5.4-2.2 8.7-3.1 8.4-2.3 13 .4 18.6-6.2-5.5-.6-12.8-1.2-17.7-3.7l.1-1.4a34 34 0 0 0 14.9-2.7"/><path fill="#bf9e80" d="M876.4 1241.4q2.5.8 5 1.2c13.2 3.7 27.2.9 34 9.4-3.4 1-10 3.8-13 3.2 1.3-3.3 2.1-3.8 1.6-6.8-3 0-1.7 0-4.9 2-.1 3-.3 1.7 1.3 4.6-1.2 1.8-.5 1-2.6 2 .3-4.2 1-2.6-1.2-5.3-5.7-2.2-11.3-2-17.5-2.5-5.5-.6-12.8-1.2-17.7-3.7l.1-1.4a34 34 0 0 0 14.9-2.7"/><path fill="#fff" d="M995.3 819.3c4.7-.3 6.3-1.2 10.1.8l1 1.5c2 3.3 2.2 3.7 5.8 5v1c9.7 14.5-9.8 23.7-17.4 14.4-7.5-6-7.3-11.5-8-20.3l4.6 2.4c1-2.2 2.2-3 4-4.8"/><path fill="#aa9d8a" d="M996.7 838.8c2.7 3.2 3 3.2 6.8 2.8 5.3-5.8 2.2-11.3 4.9-14.5l3.8.5c9.7 14.5-9.8 23.7-17.4 14.4z"/><path fill="#4e4239" d="m986.8 821.7 4.6 2.4c1.6 5.3 2.8 9.9 5.3 14.7l-2 3.2c-7.4-6-7.2-11.5-8-20.3"/><path fill="#eee8da" d="M1186 1125.2a49 49 0 0 1 25.6-4c15.2 15.9-11 17.7-20.4 19.3-2.9.5-8.6 2.8-11.2 4.1l-.7-2.2c1-3.9.5-2.5 3.8-5.6q-.7-2.8-.8-6l1.7-5z"/><path fill="#c6bbaf" d="M1211.6 1121.2c15.2 15.9-11 17.7-20.4 19.3-2.9.5-8.6 2.8-11.2 4.1l-.7-2.2c1-3.9.5-2.5 3.8-5.6 9.1-2.8 22.4-3.6 28.3-9.3z"/><path fill="#e8e3d9" d="M1186 1125.2a49 49 0 0 1 25.6-4l-.2 6.3c-7.3-10.7-14.4 4.4-25.4-2.3"/><path fill="#dcb" d="M1166.3 1123c1.9-5 4.1-12.3 4.4-17.7 9.2 4.9 1.3 5.8 13 6.4l2-1.1c0 4 .1 4.5-1.4 8.1l-.3 7.2-1.7 4.9c-1.2-2.3-2.8-7.4-3.8-10-.4.6-2.1 3.5-2.5 3.9.2 4.3.5 9.5 0 13.8-2.3 7.4-6.6 9.2-14.5 7.5l1.4-4.6-2.3-3.1q.4-3.7 1.3-7.3c2-2.4 3-5.2 4.4-8"/><path fill="#c3ae99" d="M1170.6 1134c1.6-2.4 2.8-6.7 3.9-9.7l1.5.4c.2 4.3.5 9.5 0 13.8-2.3 7.4-6.6 9.2-14.5 7.5l1.4-4.6z"/><path fill="#d0c2ae" d="M1166.3 1123c1.7 4.1 1.5 8 4.3 11l-7.7 7.4-2.3-3.1q.4-3.7 1.3-7.3c2-2.4 3-5.2 4.4-8"/><path fill="#b8a388" d="m1178.5 1120.8-.9-3 1.3-1.3c3 .3 2.8.4 5.4 2.2l-.3 7.2-1.7 4.9c-1.2-2.3-2.8-7.4-3.8-10"/><path fill="#c6bbaf" d="M1193.7 1076c-.3 6.5-.9 6 3.6 11.5l-7.2 7-4.3 16-2 1.1c-11.8-.5-3.8-1.4-13-6.3 2-4.7 3.4-6.6 6.1-10.8-.1-4-.3-6.7 2.2-9.7 4-3.7 9.7-6.2 14.6-8.7"/><path fill="#eee8da" d="m1179.1 1084.8 2-.1c5.8-.4 5.6-2.3 9.5-.2.6 7.1-7.4 10.3-13.7 10-.1-4-.3-6.7 2.2-9.7m-69.1 4.4c5.6-6.4 10.3-7.4 17-2 3 3 4.8 5.4 2.7 9.9a32 32 0 0 1-6.3 9.4l-.4 2.8c-2.7 1.9-3.8 1.7-7.7 1.3l-3-7.4c-3.4-5-2.6-8.1-2.3-14"/><path fill="#ccbba7" d="M1112.4 1103.2h1.1c9.7-1 10-6 16.2-6.1a32 32 0 0 1-6.3 9.4l-.4 2.8c-2.7 1.9-3.8 1.7-7.7 1.3z"/><path fill="#dfd6cb" d="M1110 1089.2c5.6-6.4 10.3-7.4 17-2-7.3.1-10 .7-17 2"/><path fill="#e8e3d9" d="M1127.1 1117c10.3-3.6 18.2-13 26.7-11.8 2.4 2.5 3.2 3 4 6.4-1.1 9-14.9 10.3-19.4 18.4l-5.8-4c-4-3.3-5-4-5.5-9"/><path fill="#dfd6cb" d="M1153.8 1105.2c2.4 2.5 3.2 3 4 6.4-1.1 9-14.9 10.3-19.4 18.4l-5.8-4c8.7-10 19.7-6.7 21.2-20.8"/><path fill="#d0c2ae" d="M1161.5 1146c8 1.7 12.2 0 14.5-7.5l-.6 8a97 97 0 0 1-17.6 28l-6.6-2.9c-.8-4.4.2-4.6 2.9-7.4l-5-2c3-5.4 3.8-6 8.5-10.1 1.3-2.8 1.6-4 4-6.1"/><path fill="#c3ae99" d="M1157.6 1152c1 5.4.5 8.2-3.5 12.2l-5-2c3-5.4 3.8-6 8.5-10.1"/><path fill="url(#Gradient1)" d="M978.1 797.2c5-.5 5.8-.2 10.6 1 4.3 4.7 4.8 6 11 6.3h2.5c-1.4 7.1-1.2 10.3-6.9 14.8-1.7 1.7-3 2.6-3.9 4.8l-4.6-2.4c-2-5.4-2.3-6.4-5.7-10.8-1.4-5.3-1.2-5.2-4.7-9.5z"/><path fill="#eee8da" d="M1041.6 993.6c19.7-13.9 22.8 23.5 0 13-3-2.4-3.5-3.6-3.7-7.5 1.1-3.4 1-3.1 3.7-5.5"/><path fill="#c6bbaf" d="M1041.6 993.6c19.7-13.9 22.8 23.5 0 13 6.6-3.4 10.6-.7 13.8-8.1-1.4-7.6-9.6-3.4-13.8-4.9"/><path fill="#d0c2ae" d="M946.7 1045.2c.5 3.8.3 6.3 2.8 9.1 3.2 1.8 5.6 1.7 9.3 1.9-4.4 5.4-4.9 5.8-5 12.9l-.5.7c-.8-1-1.2-1-2.6-1.8l-5.2.6-3.1.4c-3.3-1.3-2.9-2.4-5.1-6.3-.1-2.2-.2-1.3 1-3.5l3.5-1 .5-1c-.7-3.6-.6-5.8-.7-9.5 4-1 2.6 0 5-2.5"/><path fill="#b8a388" d="M937.3 1062.7c-.1-2.2-.2-1.3 1-3.5l3.5-1c3 4 4.6 5.1 3.7 10.4l-3.1.5c-3.3-1.4-2.9-2.4-5.1-6.4"/><path fill="#eee8da" d="M1198.8 1070.2c13.4-.8 17.4 10.6 4.4 16.9l-6 .4c-4.4-5.6-3.8-5-3.5-11.4z"/><path fill="#ccbba7" d="M1198.8 1070.2c13.4-.8 17.4 10.6 4.4 16.9l-2-1c-1.6-5.1 3-3.4 4-10.8-1.7-3.1-3.2-3.5-6.4-5"/><path fill="#bf9e80" d="M1104.7 1222.9c3.3 1.8 2.3 1.3 6.7 1l2.6 1.1c2.5-2.8 3.8-1.6 6.9-.7l2.2 8-3.8 2-1 4.8q-7-6.2-14.5-11.6l-.4-.5z"/><path fill="#eee8da" d="M1114 1225c2.5-2.8 3.8-1.6 6.9-.7l2.2 8-3.8 2c-2-2.1-3.9-6.4-5.3-9.3"/><path fill="#b8a388" d="M854.4 1239.4c7.3-.7 11.8-4.1 20.6-3.5l-5.8 1.3-.7 1.1c3.2 1.8 4.2 2 7.9 3a34 34 0 0 1-14.9 2.8l-.1 1.4c-4.8-.4-10.5-1.3-15.4-2l-1.8-1.2c.6-1.5.5-2.3.6-4z"/><path fill="#ccbba7" d="M1052 839.9c4.2 1.6 4.9 2.5 8.4 5.4-1.2 2-1.7 3-3.2 4.7-2 5-3.2 6.1-8 9-3-2-3.1-2.3-3-5.4.9-3.8 1.5-8.6 2.2-12.5z"/><path fill="#e8e3d9" d="M1176 1124.7c.4-.4 2.1-3.3 2.5-4 1 2.7 2.6 7.8 3.8 10.1q.1 3.1.8 6c-3.3 3-2.7 1.7-3.8 5.6l.7 2.2-4.6 1.9.6-8c.5-4.3.2-9.5 0-13.8"/><path fill="#bf9e80" d="M950.7 1068c1.4.7 1.8.7 2.6 1.8a40 40 0 0 0-1.9 10.1l-2 2.7-2 2-1.6 1-2.9-3.4 1-5c4.3-3 4.5-4.2 6.8-9.2"/><path fill="#ccbba7" d="M1064.9 820.9c2.6.5 7 1.6 9.6 2l1.1 4c-3 .9-3.5 1.9-5.6 4.2l-2.6-2.4c-1.3-4-1.8-3.7-4.9-5.7z"/><path fill="#c6bbaf" d="m1107.5 880 6 1.1q2.5 3 5.2 5.8c-3.3 3.1-1.4 2.5-5.3 2.7-2-2.8-2.1-3.4-5.4-4.5z"/><path fill="#dcb" d="M1082.2 1084.8c5.4.3 7.8.7 11 5.6l-.8 1-3.6-2.2c-4-.6-7.3-.2-11.3.2.3-2.2 2.3-2.8 4.7-4.6"/></svg>
